<svg width="382" height="522" viewBox="0 0 382 522" fill="none" xmlns="http://www.w3.org/2000/svg">
<path d="M254.44 356.992L265.477 396.86C253.328 399.94 238.955 402.507 223.127 403.962C211.406 404.988 200.455 405.074 190.616 404.817C182.574 404.646 170.169 404.988 158.448 403.962C142.62 402.507 128.418 399.94 116.27 396.86L129.359 357.762C129.53 361.355 175.644 365.633 190.959 365.804C206.786 365.89 243.232 362.211 254.354 356.907C254.44 356.821 254.44 356.907 254.44 356.992Z" fill="#F5F5F5" stroke="#8599A7" stroke-width="1.23789" stroke-miterlimit="10"/>
<path d="M129.7 213.945C124.053 193.754 118.492 173.649 112.846 153.458C113.017 132.241 114.642 108.628 118.663 83.1323C119.262 79.539 119.861 76.0313 120.46 72.6091C122.428 61.5726 131.411 53.3593 142.191 52.7604C142.191 52.7604 178.552 49.8516 190.786 49.8516C202.849 49.8516 226.975 51.9904 239.039 52.7604C249.818 53.3593 258.802 61.5726 260.769 72.6091C261.368 76.0313 261.967 79.6245 262.566 83.1323C266.587 108.628 268.213 132.241 268.384 153.458C262.737 173.649 257.176 193.754 251.53 213.945" stroke="#8599A7" stroke-width="1.85687" stroke-linejoin="round"/>
<path d="M186.337 49.8516C172.477 49.8516 158.703 49.8516 144.843 49.8516L149.977 40.8684C151.517 38.1306 149.634 34.7085 146.64 34.7085L105.916 34.7085C106.002 29.1474 106.686 22.132 108.483 14.4321C109.338 10.7532 110.365 7.50212 111.477 4.50771C112.247 2.36885 114.215 1 116.354 1L190.701 0.999996L190.444 0.999996L264.791 0.999993C266.93 0.999993 268.897 2.36884 269.667 4.50771C270.78 7.50211 271.806 10.8388 272.662 14.4321C274.544 22.132 275.143 29.1474 275.228 34.7085L234.504 34.7085C231.51 34.7085 229.628 38.1306 231.168 40.8684L236.301 49.8516C222.441 49.8516 208.667 49.8516 194.807 49.8516" stroke="#8599A7" stroke-width="1.85687" stroke-linejoin="round"/>
<path d="M353.683 148.24C368.741 148.24 380.975 135.663 380.975 120.263C380.975 104.778 368.741 92.2871 353.683 92.2871C338.625 92.2871 326.391 104.864 326.391 120.263C326.306 135.663 338.54 148.24 353.683 148.24Z" stroke="#8599A7" stroke-width="1.85687" stroke-linejoin="round"/>
<path d="M374.472 120.264C374.472 131.983 365.164 141.482 353.682 141.482C342.2 141.482 332.893 131.983 332.893 120.264C332.893 108.546 342.2 99.0469 353.682 99.0469C365.164 99.0469 374.472 108.546 374.472 120.264Z" stroke="#8599A7" stroke-width="1.14686" stroke-linejoin="round"/>
<path d="M381.06 367.687C381.06 383.138 368.841 395.664 353.768 395.664C338.696 395.664 326.477 383.138 326.477 367.687C326.477 352.236 338.696 339.711 353.768 339.711C368.841 339.711 381.06 352.236 381.06 367.687Z" stroke="#8599A7" stroke-width="1.85687" stroke-linejoin="round"/>
<path d="M374.558 367.686C374.558 379.404 365.25 388.904 353.768 388.904C342.286 388.904 332.979 379.404 332.979 367.686C332.979 355.968 342.286 346.469 353.768 346.469C365.25 346.469 374.558 355.968 374.558 367.686Z" stroke="#8599A7" stroke-width="1.14686" stroke-linejoin="round"/>
<path d="M365.575 86.127L365.575 51.8196C361.811 49.5952 355.48 46.6008 347.181 45.2319C338.882 43.863 332.038 44.7186 327.76 45.6597C325.108 46.6863 322.199 48.0552 319.119 49.7663C317.323 50.793 315.697 51.8196 314.157 52.7607C312.104 54.1296 310.649 56.0973 309.965 58.4073C307.142 67.7327 304.49 77.4004 302.008 87.5814C297.389 106.147 293.881 123.856 291.229 140.454C286.609 148.068 280.278 159.019 273.177 172.451C263.423 191.102 256.836 203.422 252.216 217.795C247.767 231.655 245.2 261.856 244.858 276.742C244.601 288.806 245.457 310.622 246.74 333.208C246.997 337.229 248.28 342.962 250.847 349.806C251.531 351.688 253.927 358.019 260.429 368.029C269.583 382.231 274.289 386.851 278.823 393.182C281.646 397.118 285.411 404.047 285.582 411.148C285.839 421.586 286.181 432.109 286.438 442.547C286.523 446.14 289.346 449.049 292.94 449.22C296.276 449.391 299.784 449.477 303.463 449.562C309.794 449.562 315.783 449.306 321.173 448.792C321.857 450.247 323.226 452.386 325.536 454.097C329.129 456.749 333.15 456.664 341.021 456.407C351.545 456.065 354.111 453.926 354.967 453.07C356.507 451.616 357.362 449.99 357.79 448.707C358.731 432.623 359.672 416.624 360.613 400.54C357.704 401.139 349.662 402.422 340.679 398.572C337.856 397.374 329.985 393.61 324.851 384.627C323.739 382.744 320.488 376.67 320.488 368.2C320.488 364.778 320.916 356.308 326.905 348.266C327.675 347.239 332.551 340.737 341.278 337.229C345.727 335.433 350.005 334.834 357.876 333.722C361.127 333.294 363.864 333.037 365.747 332.866L365.747 153.629C347.951 157.223 330.755 149.437 323.483 135.406C323.14 134.722 315.783 119.921 323.312 104.949C330.241 90.7469 347.609 82.7048 365.575 86.127Z" stroke="#8599A7" stroke-width="1.85687" stroke-linejoin="round"/>
<path d="M323.054 380.862C322.455 403.449 321.771 426.121 321.172 448.707" stroke="#8599A7" stroke-width="1.14686" stroke-linejoin="round"/>
<path d="M300.811 168.43L350.176 168.43C353.769 168.43 356.678 171.424 356.678 175.188L356.678 326.705C356.678 328.673 355.138 330.213 353.256 330.213C351.459 330.213 349.406 330.299 347.096 330.555C343.417 330.983 335.974 332.01 328.36 336.972C321.173 341.677 316.981 348.009 314.671 352.286C313.73 354.083 312.019 355.366 309.966 355.708C307.57 356.051 304.747 356.307 301.667 356.307C297.304 356.307 293.539 355.709 290.545 355.024L287.978 352.885L252.558 340.394C251.446 322.941 250.847 304.376 250.847 284.784C250.847 274.432 250.762 269.213 251.104 265.448C252.387 248.936 253.671 233.879 270.354 202.224C271.466 200.085 272.835 197.689 274.118 195.465C280.449 184.257 283.615 178.611 287.037 175.531C289.689 173.221 293.967 170.226 300.811 168.43Z" stroke="#8599A7" stroke-width="1.23789" stroke-miterlimit="10"/>
<path d="M254.954 275.887L254.697 285.469C254.697 302.922 255.638 320.632 256.751 338.085L292.256 350.063L292.256 272.893L254.954 275.887Z" fill="#F5F5F5" stroke="#8599A7" stroke-width="1.23789" stroke-miterlimit="10"/>
<path d="M253.842 213.09C255.04 215.058 256.066 217.196 257.264 219.164C262.055 209.325 267.958 198.973 274.204 188.193C280.021 178.183 286.609 169.029 292.17 160.559L292.17 139.77C287.208 148.753 281.305 158.164 276.172 167.917C268.044 183.488 260.344 198.545 253.842 213.09Z" fill="#F5F5F5" stroke="#8599A7" stroke-width="1.23789" stroke-miterlimit="10"/>
<path d="M254.355 267.759L291.229 259.032L294.994 175.018C293.454 175.873 291.999 176.9 290.716 178.098C287.636 180.835 284.471 186.14 278.054 197.176C276.771 199.486 275.402 201.796 274.204 203.849C257.264 234.906 256.067 249.193 254.698 265.791C254.612 266.646 254.612 267.502 254.527 268.529" fill="#F5F5F5"/>
<path d="M254.355 267.759L291.229 259.032L294.994 175.018C293.454 175.873 291.999 176.9 290.716 178.098C287.636 180.835 284.471 186.14 278.054 197.176C276.771 199.486 275.402 201.796 274.204 203.849C257.264 234.906 256.067 249.193 254.698 265.791C254.612 266.646 254.612 267.502 254.527 268.529" stroke="#8599A7" stroke-width="1.23789" stroke-miterlimit="10"/>
<path d="M256.494 346.727L290.63 357.25L290.63 378.895C290.63 382.488 286.353 384.371 283.7 381.889C280.022 378.467 276.086 374.446 272.236 369.826C265.135 361.527 260.087 353.485 256.494 346.727Z" fill="#F5F5F5" stroke="#8599A7" stroke-width="1.23789" stroke-miterlimit="10"/>
<path d="M327.76 45.6602L325.706 66.1932C323.653 66.621 321.086 67.3055 318.263 68.5032C315.354 69.701 312.959 71.1554 311.162 72.4387C311.761 66.1932 312.274 60.0333 312.873 53.7878C314.584 52.5901 316.552 51.3068 318.691 50.109C321.856 48.1412 325.022 46.7724 327.76 45.6602Z" fill="#F5F5F5" stroke="#8599A7" stroke-width="1.23789" stroke-miterlimit="10"/>
<path d="M325.621 66.2773C325.963 77.3139 326.306 88.3504 326.648 99.3869" stroke="#8599A7" stroke-width="1.23789" stroke-miterlimit="10"/>
<path d="M251.787 272.807L289.859 265.963C296.96 265.022 304.489 264.252 312.445 263.824C328.786 262.968 343.673 263.567 356.762 265.022" stroke="#8599A7" stroke-width="1.23789" stroke-miterlimit="10"/>
<path d="M289.86 179.637L279.422 195.55C278.652 196.748 278.909 198.373 280.107 199.229C281.219 199.999 282.759 200.854 284.641 201.282C287.721 201.966 290.459 201.368 292.17 200.769C293.196 200.426 293.881 199.485 293.966 198.373C294.309 192.641 294.565 186.909 294.907 181.262C294.993 179.979 294.137 178.781 292.854 178.525C291.656 178.268 290.544 178.696 289.86 179.637Z" fill="white" stroke="#8599A7" stroke-width="1.73214" stroke-miterlimit="10"/>
<path d="M292.17 448.707L292.512 436.644C292.598 435.104 293.795 433.821 295.421 433.735C296.961 433.649 298.672 433.649 300.383 433.649C302.864 433.649 305.174 433.821 307.313 434.077C308.682 434.248 309.794 435.275 309.965 436.644L311.591 448.707C307.912 448.964 303.891 449.049 299.784 448.964C297.132 448.964 294.651 448.878 292.17 448.707Z" fill="#F5F5F5" stroke="#8599A7" stroke-width="1.23789" stroke-miterlimit="10"/>
<path d="M311.163 72.3535C307.912 86.8122 305.003 102.126 302.436 118.296C300.896 127.878 299.698 137.204 298.586 146.273C298.415 147.214 298.158 148.411 297.645 149.78C297.046 151.406 296.362 152.518 296.019 153.031C295.078 154.486 293.795 156.881 292.084 160.646" stroke="#8599A7" stroke-width="1.23789" stroke-miterlimit="10"/>
<path d="M305.687 245.856C305.687 251.29 304.806 255.695 303.72 255.695C302.633 255.695 301.752 251.29 301.752 245.856C301.752 240.423 302.633 236.018 303.72 236.018C304.806 236.018 305.687 240.423 305.687 245.856Z" stroke="#8599A7" stroke-width="1.54742" stroke-miterlimit="10"/>
<path d="M303.72 346.385C302.608 346.385 301.752 342.021 301.752 336.546C301.752 331.156 302.608 326.707 303.72 326.707C304.832 326.707 305.687 331.07 305.687 336.546C305.687 342.021 304.832 346.385 303.72 346.385Z" stroke="#8599A7" stroke-width="1.54742" stroke-miterlimit="10"/>
<path d="M267.957 34.709C268.213 34.709 270.694 49.8521 270.694 49.8521L234.334 49.8521L229.286 40.1844C228.003 37.7034 229.799 34.7945 232.537 34.7945L267.957 34.709Z" fill="#F5F5F5" stroke="#8599A7" stroke-width="1.23789" stroke-miterlimit="10"/>
<path d="M130.299 11.9518L130.299 11.8663C130.299 10.3263 131.582 9.04297 133.122 9.04297L248.706 9.04296C250.246 9.04296 251.53 10.3263 251.53 11.8663L251.53 11.9518C251.53 13.4918 250.246 14.7751 248.706 14.7751L133.122 14.7751C131.582 14.8606 130.299 13.5773 130.299 11.9518Z" stroke="#8599A7" stroke-width="1.23789" stroke-miterlimit="10"/>
<path d="M190.529 44.6328L222.527 44.6328C223.724 44.6328 224.409 43.1783 223.639 42.1517L222.869 41.1251C218.677 35.7351 212.517 32.3985 205.844 32.0563L205.758 32.0563C200.539 31.7996 195.491 31.6285 190.529 31.543" stroke="#8599A7" stroke-width="1.23789" stroke-miterlimit="10"/>
<path d="M190.786 208.469C179.236 208.469 166.916 208.982 153.741 210.18C145.442 210.95 137.4 211.976 129.785 213.089C124.139 193.24 118.492 173.391 112.846 153.457L113.017 153.286C126.278 142.421 147.067 137.202 159.302 135.747C167.002 134.806 182.658 134.721 190.444 134.721C198.315 134.721 214.057 134.806 221.842 135.747C234.076 137.287 254.866 142.421 268.127 153.286L268.298 153.457C262.652 173.306 257.005 193.154 251.358 213.089C243.744 211.976 235.788 210.95 227.403 210.18C214.313 208.982 201.908 208.469 190.358 208.469" fill="#F5F5F5"/>
<path d="M190.786 208.469C179.236 208.469 166.916 208.982 153.741 210.18C145.442 210.95 137.4 211.976 129.785 213.089C124.139 193.24 118.492 173.391 112.846 153.457L113.017 153.286C126.278 142.421 147.067 137.202 159.302 135.747C167.002 134.806 182.658 134.721 190.444 134.721C198.315 134.721 214.057 134.806 221.842 135.747C234.076 137.287 254.866 142.421 268.127 153.286L268.298 153.457C262.652 173.306 257.005 193.154 251.358 213.089C243.744 211.976 235.788 210.95 227.403 210.18C214.313 208.982 201.908 208.469 190.358 208.469" stroke="#8599A7" stroke-width="1.23789" stroke-miterlimit="10"/>
<path d="M111.306 34.709C111.049 34.709 108.568 49.8521 108.568 49.8521L144.929 49.8521L149.977 40.1844C151.26 37.7034 149.463 34.7945 146.726 34.7945L111.306 34.7945L111.306 34.709Z" fill="#F5F5F5" stroke="#8599A7" stroke-width="1.23789" stroke-miterlimit="10"/>
<path d="M190.787 44.6328L158.79 44.6328C157.592 44.6328 156.907 43.1783 157.677 42.1517L158.447 41.1251C162.64 35.7351 168.8 32.3985 175.473 32.0563L175.558 32.0563C180.777 31.7996 185.825 31.6285 190.787 31.543" stroke="#8599A7" stroke-width="1.23789" stroke-miterlimit="10"/>
<path d="M116.27 396.519C116.441 410.464 116.697 424.495 116.868 438.44C116.954 443.745 120.633 448.108 125.424 448.45C136.289 449.306 147.497 450.076 158.961 450.589C169.827 451.102 180.435 451.359 190.787 451.53L190.531 451.53C200.883 451.359 211.492 451.102 222.357 450.589C233.821 450.076 245.029 449.306 255.894 448.45C260.686 448.022 264.364 443.745 264.45 438.44C264.621 424.495 264.878 410.464 265.049 396.519" stroke="#8599A7" stroke-width="1.85687" stroke-miterlimit="10" stroke-linecap="round"/>
<path d="M119.177 520.658C117.979 520.914 116.867 521 116.867 521C115.498 521 114.557 521 113.958 520.572C113.274 520.059 113.102 519.289 113.017 518.947C111.99 516.294 111.049 513.386 110.108 510.391C109.338 507.825 108.654 505.258 108.055 502.862C107.456 501.066 107.199 499.184 107.199 497.301L107.199 490.371C107.199 488.575 108.568 487.12 110.365 487.12L111.391 487.12C112.161 487.12 112.76 486.522 112.76 485.666L112.76 451.872L190.444 451.615L190.187 451.615L267.871 451.872L267.871 485.58C267.871 486.35 268.469 487.035 269.239 487.035L270.266 487.035C271.977 487.035 273.432 488.489 273.432 490.286L273.432 497.216C273.432 499.098 273.175 500.98 272.576 502.777C271.977 505.172 271.293 507.653 270.523 510.306C269.582 513.3 268.641 516.209 267.614 518.861C267.528 519.203 267.357 519.973 266.673 520.487C265.988 521 265.047 520.914 263.764 520.914C263.764 520.914 262.652 520.829 261.454 520.572C258.374 519.973 255.294 519.717 252.214 519.717L128.588 519.717C125.337 519.802 122.257 520.059 119.177 520.658Z" stroke="#8599A7" stroke-width="1.85687" stroke-linejoin="round"/>
<path d="M267.786 457.348C267.7 464.449 267.7 471.635 267.614 478.736C260.941 478.736 254.268 478.651 247.68 478.651C245.37 478.651 243.659 477.025 244.429 475.571L252.129 460.085C252.899 458.545 255.038 457.519 257.519 457.519C260.941 457.433 264.363 457.348 267.786 457.348Z" fill="#F5F5F5" stroke="#8599A7" stroke-width="1.23789" stroke-miterlimit="10"/>
<path d="M245.285 473.688L241.777 480.276C240.494 482.672 237.927 484.212 235.275 484.212L190.701 484.212" stroke="#8599A7" stroke-width="1.23789" stroke-miterlimit="10"/>
<path d="M112.418 457.348C112.504 464.449 112.504 471.635 112.589 478.736C119.348 478.736 126.107 478.651 132.865 478.651C135.261 478.651 136.972 477.025 136.202 475.571L128.331 460.085C127.561 458.545 125.337 457.519 122.856 457.519C119.348 457.433 115.926 457.348 112.418 457.348Z" fill="#F5F5F5" stroke="#8599A7" stroke-width="1.23789" stroke-miterlimit="10"/>
<path d="M135.262 473.688L138.855 480.276C140.138 482.672 142.705 484.212 145.528 484.212L190.872 484.212" stroke="#8599A7" stroke-width="1.23789" stroke-miterlimit="10"/>
<path d="M55.6111 120.263C55.6111 135.714 43.3921 148.24 28.3192 148.24C13.2463 148.24 1.02735 135.714 1.02734 120.263C1.02734 104.813 13.2463 92.2871 28.3192 92.2871C43.3921 92.2871 55.6111 104.813 55.6111 120.263Z" stroke="#8599A7" stroke-width="1.85687" stroke-linejoin="round"/>
<path d="M28.319 141.482C16.8547 141.482 7.5293 131.985 7.5293 120.264C7.5293 108.543 16.8547 99.0469 28.319 99.0469C39.7833 99.0469 49.1088 108.543 49.1088 120.264C49.1088 131.985 39.7833 141.482 28.319 141.482Z" stroke="#8599A7" stroke-width="1.14686" stroke-linejoin="round"/>
<path d="M55.5252 367.687C55.5252 383.138 43.3062 395.664 28.2333 395.664C13.1604 395.664 0.941408 383.138 0.941407 367.687C0.941407 352.236 13.1604 339.711 28.2333 339.711C43.3062 339.711 55.5252 352.236 55.5252 367.687Z" stroke="#8599A7" stroke-width="1.85687" stroke-linejoin="round"/>
<path d="M49.0228 367.686C49.0228 379.404 39.715 388.904 28.2331 388.904C16.7512 388.904 7.44336 379.404 7.44336 367.686C7.44336 355.968 16.7512 346.469 28.2331 346.469C39.715 346.469 49.0228 355.968 49.0228 367.686Z" stroke="#8599A7" stroke-width="1.14686" stroke-linejoin="round"/>
<path d="M16.427 86.127L16.427 51.8196C20.1914 49.5952 26.5224 46.6008 34.8212 45.2319C43.12 43.8631 49.9643 44.7186 54.2421 45.6597C56.8942 46.6864 59.8031 48.0552 62.8831 49.7663C64.6797 50.793 66.3052 51.8196 67.8452 52.7607C69.8985 54.1296 71.353 56.0973 72.0374 58.4073C74.8607 67.7327 77.5129 77.4004 79.994 87.5814C84.6139 106.147 88.1216 123.856 90.7738 140.454C95.3938 148.068 101.725 159.019 108.826 172.451C118.579 191.102 125.167 203.422 129.787 217.795C134.236 231.655 136.802 261.856 137.144 276.742C137.401 288.806 136.545 310.622 135.262 333.208C135.006 337.229 133.722 342.962 131.156 349.806C130.471 351.688 128.076 358.019 121.573 368.029C112.419 382.231 107.714 386.851 103.179 393.182C100.356 397.118 96.5915 404.047 96.4204 411.148C96.1638 421.586 95.8216 432.109 95.5649 442.547C95.4793 446.14 92.656 449.049 89.0627 449.22C85.7261 449.391 82.2184 449.477 78.5395 449.562C72.2085 449.562 66.2197 449.306 60.8298 448.792C60.1453 450.247 58.7765 452.386 56.4665 454.097C52.8732 456.749 48.8521 456.664 40.9811 456.407C30.4579 456.065 27.8913 453.926 27.0357 453.07C25.4958 451.616 24.6402 449.99 24.2124 448.707C23.2713 432.623 22.3302 416.624 21.3891 400.54C24.298 401.139 32.3401 402.422 41.3233 398.572C44.1466 397.374 52.0176 393.61 57.1509 384.627C58.2631 382.744 61.5142 376.67 61.5142 368.2C61.5142 364.778 61.0864 356.308 55.0976 348.266C54.3276 347.239 49.451 340.737 40.7245 337.229C36.2756 335.433 31.9979 334.834 24.1269 333.722C20.8758 333.294 18.1381 333.037 16.2559 332.866L16.2559 153.629C34.0512 157.223 51.2477 149.437 58.5198 135.406C58.862 134.722 66.2197 119.921 58.6909 104.949C51.761 90.7469 34.479 82.7048 16.427 86.127Z" stroke="#8599A7" stroke-width="1.85687" stroke-linejoin="round"/>
<path d="M59.0332 380.862C59.6321 403.449 60.3165 426.121 60.9154 448.707" stroke="#8599A7" stroke-width="1.14686" stroke-linejoin="round"/>
<path d="M81.1913 168.43L31.8264 168.43C28.2331 168.43 25.3242 171.424 25.3242 175.188L25.3242 326.705C25.3242 328.673 26.8642 330.213 28.7464 330.213C30.543 330.213 32.5964 330.299 34.9063 330.555C38.5852 330.983 46.0284 332.01 53.6428 336.972C60.8293 341.677 65.0215 348.009 67.3315 352.286C68.2726 354.083 69.9837 355.366 72.037 355.708C74.4325 356.051 77.2558 356.307 80.3358 356.307C84.699 356.307 88.4634 355.709 91.4579 355.024L94.0245 352.885L129.444 340.394C130.556 322.941 131.155 304.376 131.155 284.784C131.155 274.432 131.241 269.213 130.898 265.448C129.615 248.936 128.332 233.879 111.649 202.224C110.537 200.085 109.168 197.689 107.884 195.465C101.553 184.257 98.3878 178.611 94.9656 175.531C92.3134 173.221 88.1212 170.226 81.1913 168.43Z" stroke="#8599A7" stroke-width="1.23789" stroke-miterlimit="10"/>
<path d="M127.99 275.887L127.818 285.469C127.818 302.922 127.562 320.632 126.45 338.085L91.6289 350.063L91.6289 272.893L127.99 275.887Z" fill="#F5F5F5" stroke="#8599A7" stroke-width="1.23789" stroke-miterlimit="10"/>
<path d="M128.161 213.09C126.963 215.058 125.937 217.196 124.739 219.164C119.948 209.325 114.986 198.973 108.74 188.193C102.922 178.183 97.2759 169.029 91.7148 160.559L91.7148 139.77C96.677 148.753 101.639 158.164 106.858 167.917C114.9 183.488 121.659 198.545 128.161 213.09Z" fill="#F5F5F5" stroke="#8599A7" stroke-width="1.23789" stroke-miterlimit="10"/>
<path d="M127.648 267.759L90.7742 259.032L87.0098 175.018C88.5497 175.873 90.0042 176.9 91.2875 178.098C94.3675 180.835 97.533 186.14 103.95 197.176C105.233 199.486 106.602 201.796 107.8 203.849C124.739 234.906 125.937 249.193 127.306 265.791C127.391 266.646 127.391 267.502 127.477 268.529" fill="#F5F5F5"/>
<path d="M127.648 267.759L90.7742 259.032L87.0098 175.018C88.5497 175.873 90.0042 176.9 91.2875 178.098C94.3675 180.835 97.533 186.14 103.95 197.176C105.233 199.486 106.602 201.796 107.8 203.849C124.739 234.906 125.937 249.193 127.306 265.791C127.391 266.646 127.391 267.502 127.477 268.529" stroke="#8599A7" stroke-width="1.23789" stroke-miterlimit="10"/>
<path d="M125.509 346.727L91.373 357.25L91.373 378.895C91.373 382.488 95.6508 384.371 98.303 381.889C101.982 378.467 105.917 374.446 109.767 369.826C116.868 361.527 121.916 353.485 125.509 346.727Z" fill="#F5F5F5" stroke="#8599A7" stroke-width="1.23789" stroke-miterlimit="10"/>
<path d="M54.2422 45.6602L56.2955 66.1932C58.3488 66.621 60.9154 67.3055 63.7387 68.5032C66.6476 69.701 69.0431 71.1554 70.8398 72.4387C70.2409 66.1932 69.7275 59.9478 69.1287 53.7878C67.4176 52.5901 65.4498 51.3068 63.311 50.109C60.1455 48.1412 57.0655 46.7724 54.2422 45.6602Z" fill="#F5F5F5" stroke="#8599A7" stroke-width="1.23789" stroke-miterlimit="10"/>
<path d="M56.4661 66.2773C56.1239 77.3139 55.7817 88.3504 55.4395 99.3869" stroke="#8599A7" stroke-width="1.23789" stroke-miterlimit="10"/>
<path d="M130.3 272.807L92.2278 265.963C85.1268 265.022 77.598 264.252 69.6414 263.824C53.3005 262.968 38.4141 263.567 25.3242 265.022" stroke="#8599A7" stroke-width="1.23789" stroke-miterlimit="10"/>
<path d="M92.1434 179.637L102.581 195.55C103.351 196.748 103.094 198.373 101.897 199.229C100.784 199.999 99.2445 200.854 97.3623 201.282C94.2823 201.966 91.5446 201.368 89.8335 200.769C88.8068 200.426 88.1224 199.485 88.0368 198.373C87.6946 192.641 87.4379 186.909 87.0957 181.262C87.0102 179.979 87.8657 178.781 89.149 178.525C90.3468 178.268 91.5446 178.696 92.1434 179.637Z" fill="white" stroke="#8599A7" stroke-width="1.73214" stroke-miterlimit="10"/>
<path d="M89.833 448.707L89.4908 436.644C89.4052 435.104 88.2075 433.821 86.5819 433.735C85.0419 433.649 83.3308 433.649 81.6198 433.649C79.1387 433.649 76.8287 433.821 74.6898 434.077C73.321 434.248 72.2088 435.275 72.0377 436.644L70.4121 448.707C74.091 448.964 78.112 449.049 82.2186 448.964C84.8708 448.964 87.4375 448.878 89.833 448.707Z" fill="#F5F5F5" stroke="#8599A7" stroke-width="1.23789" stroke-miterlimit="10"/>
<path d="M70.8398 72.3535C74.0909 86.8122 76.9998 102.126 79.5664 118.296C81.1064 127.878 82.3042 137.204 83.4164 146.273C83.5875 147.214 83.8441 148.411 84.3575 149.78C84.7852 150.893 85.2986 152.005 85.983 153.031C87.6085 155.598 89.2341 158.079 90.774 160.646" stroke="#8599A7" stroke-width="1.23789" stroke-miterlimit="10"/>
<path d="M80.25 245.856C80.25 251.29 79.369 255.695 78.2822 255.695C77.1954 255.695 76.3145 251.29 76.3145 245.856C76.3145 240.423 77.1954 236.018 78.2822 236.018C79.369 236.018 80.25 240.423 80.25 245.856Z" stroke="#8599A7" stroke-width="1.54742" stroke-miterlimit="10"/>
<path d="M78.2822 346.385C79.3944 346.385 80.25 342.021 80.25 336.546C80.25 331.156 79.3944 326.707 78.2822 326.707C77.17 326.707 76.3145 331.07 76.3145 336.546C76.3145 342.021 77.17 346.385 78.2822 346.385Z" stroke="#8599A7" stroke-width="1.54742" stroke-miterlimit="10"/>
<path d="M25.2383 326.107L25.2383 333.294" stroke="#8599A7" stroke-width="1.23789" stroke-miterlimit="10"/>
<path d="M356.676 174.163C356.591 167.575 356.505 160.902 356.334 154.314" stroke="#8599A7" stroke-width="1.23789" stroke-miterlimit="10"/>
<path d="M25.2383 175.189L25.2383 154.484" stroke="#8599A7" stroke-width="1.23789" stroke-miterlimit="10"/>
<path d="M356.762 326.707C356.762 329.188 356.762 331.584 356.762 334.065" stroke="#8599A7" stroke-width="1.23789" stroke-miterlimit="10"/>
</svg>
