<svg width="724" height="331" viewBox="0 0 724 331" fill="none" xmlns="http://www.w3.org/2000/svg">
<path d="M686.905 319.624C690.795 319.624 693.85 318.455 696.071 316.116C698.291 313.777 699.409 310.821 699.424 307.248V280.782H710.378L635.347 184.725C634.705 186.368 634.387 188.118 634.408 189.88V216.323H586.489L615.708 159.574L570.532 101.727L518.555 203.514C513.827 212.604 511.465 221.007 511.469 228.722V260.042L565.184 280.782H634.391V307.231C634.391 307.325 634.391 307.414 634.391 307.508L665.768 319.624H686.905Z" fill="white"/>
<path d="M523.991 291.153H565.203L511.488 270.412V278.759C511.488 287.026 515.656 291.157 523.991 291.153Z" fill="white"/>
<path d="M646.927 330.001H665.818L634.441 317.885C634.497 321.343 635.593 324.215 637.761 326.493C639.93 328.771 643.015 330.001 646.927 330.001Z" fill="white"/>
<path d="M615.699 134.178L677.316 14.4604C678.703 11.7113 679.396 9.50723 679.396 7.84817C679.396 2.61975 675.23 0.003695 666.899 0H620.639C616.749 0 613.625 0.618915 611.267 1.85674C608.908 3.09456 607.381 4.26587 606.684 5.37068C605.385 7.65787 604.204 10.0091 603.146 12.4152L570.523 76.3257L615.699 134.178Z" fill="white"/>
<path d="M711.499 190.929H699.416V164.485C699.416 160.909 698.298 157.953 696.063 155.617C693.827 153.282 690.772 152.111 686.897 152.104H646.925C643.035 152.104 639.98 153.275 637.759 155.617C636.729 156.698 635.917 157.964 635.367 159.348L710.382 255.41H711.499C719.834 255.41 724.002 251.277 724.002 243.011V203.327C724.002 195.062 719.834 190.929 711.499 190.929Z" fill="white"/>
<path d="M465.607 62.8513C462.126 57.6716 458.094 52.8776 453.58 48.5516C435.796 31.4808 412.87 22.9453 384.803 22.9453C356.735 22.9453 333.821 31.4844 316.059 48.5627C298.283 65.6484 289.395 87.6872 289.395 114.679V174.871L357.725 202.273V114.701C357.725 105.338 360.156 97.9001 365.018 92.3872C369.88 86.8743 376.475 84.1104 384.803 84.0956C392.858 84.0956 399.379 86.8503 404.364 92.3595C409.349 97.8687 411.85 105.307 411.864 114.674V184.786L465.607 62.8513Z" fill="white"/>
<path d="M499.765 224.831V109.131C499.765 89.1376 494.886 71.8653 485.128 57.3145L431.43 179.249V217.925L498.413 242.312C499.331 236.53 499.783 230.684 499.765 224.831Z" fill="white"/>
<path d="M359.409 261.001C354.162 260.087 349.378 257.447 345.828 253.508C340.965 248.132 338.544 240.762 338.562 231.399V202.888L270.227 175.486V230.983C270.227 257.986 279.115 280.025 296.891 297.1C307.317 307.18 320.1 314.541 334.097 318.521L359.409 261.001Z" fill="white"/>
<path d="M411.904 223.457V230.79C411.904 240.164 409.482 247.534 404.638 252.899C399.795 258.264 393.181 260.948 384.798 260.952C382.713 260.962 380.632 260.777 378.583 260.398L353.254 317.918C363.514 320.797 374.135 322.212 384.798 322.119C412.854 322.119 435.769 313.578 453.541 296.496C467.327 283.261 475.765 267.043 478.854 247.844L411.904 223.457Z" fill="white"/>
<path d="M200.005 207.001H187.922V180.557C187.922 176.981 186.804 174.025 184.568 171.689C182.333 169.354 179.283 168.177 175.419 168.159H135.419C131.53 168.159 128.474 169.33 126.254 171.673C124.033 174.015 122.915 176.971 122.9 180.541V206.984H75.0033L120.626 118.387L58.1079 94.2441L7.08674 194.209C2.35852 203.298 -0.00372154 211.701 4.40073e-06 219.416V259.056C4.40073e-06 267.321 4.16747 271.454 12.5024 271.454H122.923V297.898C122.923 301.482 124.04 304.438 126.276 306.765C128.512 309.093 131.567 310.265 135.442 310.279H175.442C179.332 310.279 182.387 309.108 184.607 306.765C186.828 304.423 187.946 301.467 187.961 297.898V271.465H200.044C208.375 271.465 212.543 267.333 212.546 259.067V219.399C212.52 211.133 208.34 207.001 200.005 207.001Z" fill="white"/>
<path d="M168.768 127.698L213.976 39.8721C215.368 37.1009 216.061 34.9116 216.061 33.26C216.061 28.0278 211.895 25.4099 203.564 25.4062H157.321C153.432 25.4062 150.307 26.027 147.949 27.2685C145.59 28.51 144.063 29.6814 143.366 30.7825C142.066 33.0623 140.883 35.4061 139.823 37.8048L106.289 103.555L168.768 127.698Z" fill="white"/>
<path d="M42.088 310.288C46.168 310.288 48.88 308.248 48.88 304.816V304.768C48.88 301.624 46.48 300.376 42.64 299.536C40.288 299.032 39.712 298.648 39.712 297.904V297.856C39.712 297.208 40.264 296.776 41.392 296.776C42.904 296.776 44.56 297.304 46.096 298.432L48.424 295.144C46.6 293.68 44.392 292.912 41.512 292.912C37.48 292.912 35.008 295.144 35.008 298.288V298.336C35.008 301.792 37.792 302.776 41.344 303.592C43.648 304.168 44.2 304.504 44.2 305.224V305.272C44.2 306.016 43.528 306.424 42.256 306.424C40.336 306.424 38.512 305.752 36.808 304.408L34.216 307.504C36.328 309.352 39.088 310.288 42.088 310.288ZM56.5203 296.704C53.9283 296.704 52.1523 297.736 50.9043 299.344L53.4243 301.432C54.3603 300.496 55.1763 300.088 56.3043 300.088C57.7443 300.088 58.7523 300.808 59.1123 302.224H50.4243C50.4003 302.536 50.4003 302.872 50.4003 303.16C50.4003 306.976 52.4643 310.288 56.9283 310.288C60.7683 310.288 63.4803 307.264 63.4803 303.472V303.424C63.4803 299.416 60.6003 296.704 56.5203 296.704ZM59.1843 304.576C58.9203 306.016 58.1523 306.928 56.9283 306.928C55.6803 306.928 54.8163 306.016 54.6483 304.576H59.1843ZM65.4349 310H69.9949V302.968C69.9949 301.528 70.7869 300.76 71.9149 300.76C73.0429 300.76 73.7629 301.528 73.7629 302.968V310H78.2989V301.504C78.2989 298.528 76.6669 296.728 73.8829 296.728C72.0349 296.728 70.8349 297.712 69.9949 298.792V292.48H65.4349V310ZM84.3771 310.096H88.5291L93.7131 297.016H89.0091L86.4891 304.6L83.9931 297.016H79.1931L84.3771 310.096Z" fill="white"/>
</svg>
