<svg width="20" height="20" viewBox="0 0 20 20" fill="none" xmlns="http://www.w3.org/2000/svg">
<path fill-rule="evenodd" clip-rule="evenodd" d="M10.5495 11.73H12.2624C12.6683 11.73 13.005 11.4 13.005 10.99C13.005 10.57 12.6683 10.24 12.2624 10.24H10.5495V8.51C10.5495 8.1 10.2228 7.77 9.81683 7.77C9.41089 7.77 9.07426 8.1 9.07426 8.51V10.24H7.37129C6.96535 10.24 6.62871 10.57 6.62871 10.99C6.62871 11.4 6.96535 11.73 7.37129 11.73H9.07426V13.46C9.07426 13.87 9.41089 14.2 9.81683 14.2C10.2228 14.2 10.5495 13.87 10.5495 13.46V11.73ZM17.3381 7.02561C17.5708 7.02292 17.8242 7.02 18.0545 7.02C18.302 7.02 18.5 7.22 18.5 7.47V15.51C18.5 17.99 16.5099 20 14.0446 20H6.17327C3.59901 20 1.5 17.89 1.5 15.29V4.51C1.5 2.03 3.5 0 5.96535 0H11.2525C11.5099 0 11.7079 0.21 11.7079 0.46V3.68C11.7079 5.51 13.203 7.01 15.0149 7.02C15.4381 7.02 15.8112 7.02316 16.1377 7.02593C16.3917 7.02809 16.6175 7.03 16.8168 7.03C16.9578 7.03 17.1405 7.02789 17.3381 7.02561ZM17.61 5.5662C16.7961 5.5692 15.8367 5.5662 15.1466 5.5592C14.0516 5.5592 13.1496 4.6482 13.1496 3.5422V0.9062C13.1496 0.4752 13.6674 0.2612 13.9635 0.5722C14.4995 1.1351 15.2361 1.90891 15.9693 2.67913C16.7002 3.44689 17.4277 4.21108 17.9496 4.7592C18.2387 5.0622 18.0268 5.5652 17.61 5.5662Z" fill="#E0E0E0"/>
</svg>
