<svg width="23" height="16" viewBox="0 0 23 16" fill="none" xmlns="http://www.w3.org/2000/svg">
<g clip-path="url(#clip0_928_59558)">
<path d="M0 10.2676H23V14.894C23 15.113 22.8224 15.2906 22.6034 15.2906H0.39657C0.177576 15.2906 0 15.113 0 14.894V10.2676Z" fill="#73AF00"/>
<path d="M0.39657 0.220703H22.6034C22.8224 0.220703 23 0.398279 23 0.617272V5.24368H0V0.617272C0 0.398279 0.177576 0.220703 0.39657 0.220703Z" fill="#40A9E6"/>
<path d="M23 5.24414H0V10.2668H23V5.24414Z" fill="#FF4B55"/>
<path d="M12.0409 9.40068C11.151 9.40068 10.429 8.67874 10.429 7.78807C10.429 6.89898 11.151 6.17547 12.0409 6.17547C12.372 6.17547 12.6773 6.27727 12.9318 6.44963C12.9707 6.47604 13.0152 6.42479 12.9826 6.39087C12.6023 5.99552 12.064 5.75424 11.4673 5.77464C10.442 5.80963 9.59323 6.63161 9.52769 7.65542C9.45263 8.82806 10.3812 9.80259 11.5373 9.80259C12.1067 9.80259 12.6185 9.56451 12.984 9.18389C13.0163 9.15028 12.9717 9.09984 12.9332 9.12598C12.6785 9.29875 12.3726 9.40068 12.0409 9.40068Z" fill="#F5F5F5"/>
<path d="M13.4509 6.79608L13.6182 7.26628L14.0689 7.05205C14.1029 7.03587 14.1383 7.07132 14.1222 7.10528L13.9079 7.55602L14.3781 7.72327C14.4136 7.73584 14.4136 7.78598 14.3781 7.79856L13.9079 7.9658L14.1222 8.41654C14.1383 8.4505 14.1029 8.48595 14.0689 8.46978L13.6182 8.25554L13.4509 8.72574C13.4384 8.76118 13.3882 8.76118 13.3756 8.72574L13.2084 8.25554L12.7577 8.46978C12.7237 8.48595 12.6883 8.4505 12.7044 8.41654L12.9187 7.9658L12.4485 7.79856C12.413 7.78598 12.413 7.73584 12.4485 7.72327L12.9187 7.55602L12.7044 7.10528C12.6883 7.07132 12.7237 7.03587 12.7577 7.05205L13.2084 7.26628L13.3756 6.79608C13.3883 6.76068 13.4384 6.76068 13.4509 6.79608Z" fill="#F5F5F5"/>
</g>
<defs>
<clipPath id="clip0_928_59558">
<rect width="23" height="15.5116" fill="white"/>
</clipPath>
</defs>
</svg>
