<svg width="24" height="24" viewBox="0 0 24 24" fill="none" xmlns="http://www.w3.org/2000/svg">
<circle cx="12" cy="12" r="12" fill="#19C92B"/>
<path fill-rule="evenodd" clip-rule="evenodd" d="M17.0105 7.74414L9.13672 15.6632L9.72724 16.2573L17.601 8.33816L17.0105 7.74414Z" fill="white"/>
<path d="M17.0446 7.39534C17.1742 7.41466 17.1986 7.44238 17.2583 7.49684L17.8489 8.09086C17.9754 8.23128 17.9761 8.44324 17.8489 8.58436L9.97511 16.5036C9.83441 16.6317 9.62021 16.6325 9.47867 16.5036L8.88815 15.9096C8.76159 15.7693 8.76089 15.5572 8.88815 15.4161L16.7619 7.49684C16.8792 7.39002 16.8829 7.38736 17.0446 7.39534ZM9.62987 15.6628L9.72689 15.7603L17.1071 8.33768L17.0101 8.2401C14.55 10.7143 12.09 13.1885 9.62987 15.6628Z" fill="white"/>
<path fill-rule="evenodd" clip-rule="evenodd" d="M6.40039 12.9104L9.13613 15.6618L9.72665 15.068L6.99091 12.3164L6.40039 12.9104Z" fill="white"/>
<path d="M7.01265 11.967C7.09847 11.9748 7.17673 12.0101 7.23959 12.0696L9.97533 14.821C10.0224 14.8713 10.0308 14.8895 10.0464 14.9248C10.1047 15.0547 10.0949 15.187 9.97533 15.3147L9.38481 15.9086C9.33735 15.9534 9.32615 15.9576 9.29983 15.9714C9.16641 16.0417 9.02123 16.0344 8.88837 15.9086L6.15263 13.157C6.10559 13.1069 6.09719 13.0887 6.08151 13.0534C6.02327 12.9235 6.03307 12.7912 6.15263 12.6635L6.74315 12.0696C6.81637 12.0003 6.90863 11.9638 7.01265 11.967ZM6.89435 12.9103L9.13659 15.1654L9.23361 15.0679C8.48615 14.3162 7.77061 13.5315 6.99137 12.8127C6.95763 12.7817 6.92669 12.8778 6.89435 12.9103Z" fill="white"/>
</svg>
