<svg width="14" height="14" viewBox="0 0 14 14" fill="none" xmlns="http://www.w3.org/2000/svg">
<path fill-rule="evenodd" clip-rule="evenodd" d="M12.0105 2.74341L4.13672 10.6625L4.72724 11.2565L12.601 3.33743L12.0105 2.74341Z" fill="white"/>
<path d="M12.0446 2.3951C12.1742 2.41442 12.1986 2.44214 12.2583 2.4966L12.8489 3.09062C12.9754 3.23104 12.9761 3.443 12.8489 3.58412L4.97511 11.5034C4.83441 11.6315 4.62021 11.6323 4.47867 11.5034L3.88815 10.9093C3.76159 10.7691 3.76089 10.557 3.88815 10.4158L11.7619 2.4966C11.8792 2.38978 11.8829 2.38712 12.0446 2.3951ZM4.62987 10.6625L4.72689 10.7601L12.1071 3.33744L12.0101 3.23986C9.55003 5.71408 7.08995 8.1883 4.62987 10.6625Z" fill="white"/>
<path fill-rule="evenodd" clip-rule="evenodd" d="M1.40039 7.91116L4.13613 10.6626L4.72665 10.0687L1.99091 7.31714L1.40039 7.91116Z" fill="white"/>
<path d="M2.01265 6.96773C2.09847 6.97557 2.17673 7.01085 2.23959 7.07035L4.97533 9.82176C5.02237 9.87203 5.03077 9.89023 5.04645 9.92551C5.10469 10.0554 5.09489 10.1877 4.97533 10.3154L4.38481 10.9093C4.33735 10.9541 4.32615 10.9583 4.29983 10.9721C4.16641 11.0424 4.02123 11.0351 3.88837 10.9093L1.15263 8.15773C1.10559 8.10761 1.09719 8.08941 1.08151 8.05413C1.02327 7.92421 1.03307 7.79191 1.15263 7.66423L1.74315 7.07035C1.81637 7.00105 1.90863 6.96451 2.01265 6.96773ZM1.89435 7.91105L4.13659 10.1662L4.23361 10.0686C3.48615 9.31693 2.77061 8.53223 1.99137 7.81347C1.95763 7.78239 1.92669 7.87857 1.89435 7.91105Z" fill="white"/>
</svg>
