<svg width="20" height="20" viewBox="0 0 20 20" fill="none" xmlns="http://www.w3.org/2000/svg">
<path d="M9.97121 0C4.46431 0 0 4.46448 0 9.97138C0 15.4781 4.46431 19.9429 9.97121 19.9429C15.4781 19.9429 19.9428 15.4781 19.9428 9.97138C19.9428 4.46448 15.4781 0 9.97121 0ZM13.7328 13.7719C13.3347 14.1697 12.6897 14.1697 12.2919 13.7719L10.0229 11.5029L7.65069 13.8752C7.25276 14.2729 6.60776 14.2729 6.21 13.8752C5.8119 13.4769 5.8119 12.8321 6.21 12.434L8.58207 10.0619L6.37345 7.85345C5.97569 7.45517 5.97569 6.81034 6.37345 6.41241C6.77138 6.01448 7.41655 6.01448 7.81448 6.41241L10.0229 8.62086L12.1283 6.51534C12.5262 6.11759 13.1716 6.11741 13.5691 6.51534C13.9672 6.91362 13.9672 7.55879 13.5691 7.95638L11.464 10.0617L13.7328 12.3307C14.1307 12.7284 14.1309 13.3738 13.7328 13.7719Z" fill="#E0E0E0"/>
</svg>
