<svg width="48" height="52" viewBox="0 0 48 52" fill="none" xmlns="http://www.w3.org/2000/svg">
<path d="M0.500488 28.2263C0.500488 41.0879 10.9583 51.5458 23.82 51.5458C36.6817 51.5458 47.1395 41.0879 47.1395 28.2263C47.1395 15.7859 37.3384 5.62543 25.0591 4.96872V2.47816H28.7268C29.4083 2.47816 29.9658 1.92058 29.9658 1.23908C29.9658 0.557586 29.4083 0 28.7268 0H18.9132C18.2317 0 17.6742 0.557586 17.6742 1.23908C17.6742 1.92058 18.2317 2.47816 18.9132 2.47816H22.5809V4.96872C10.3016 5.62543 0.500488 15.7859 0.500488 28.2263ZM23.82 7.38492C35.3063 7.38492 44.6613 16.7276 44.6613 28.2263C44.6613 39.7249 35.3063 49.0676 23.82 49.0676C12.3337 49.0676 2.97865 39.7126 2.97865 28.2263C2.97865 16.74 12.3337 7.38492 23.82 7.38492Z" fill="#303844"/>
<path d="M16.4598 29.4658H23.8199C24.5014 29.4658 25.059 28.9082 25.059 28.2267V15.9598C25.059 15.2783 24.5014 14.7207 23.8199 14.7207C23.1384 14.7207 22.5808 15.2783 22.5808 15.9598V26.9876H16.4598C15.7783 26.9876 15.2207 27.5452 15.2207 28.2267C15.2207 28.9082 15.7783 29.4658 16.4598 29.4658Z" fill="#303844"/>
<path d="M9.90362 42.0679C9.91601 42.0803 9.91601 42.105 9.9408 42.1174C9.96558 42.1298 9.97797 42.1422 9.99036 42.1546C13.5465 45.686 18.4285 47.8792 23.8309 47.8792C29.2333 47.8792 34.1153 45.686 37.6714 42.1546C37.6838 42.1422 37.7086 42.1422 37.721 42.1174C37.7334 42.0926 37.7458 42.0803 37.7582 42.0679C41.2896 38.5117 43.4827 33.6297 43.4827 28.2273C43.4827 22.8373 41.3019 17.943 37.7706 14.3992C37.7582 14.3868 37.7458 14.362 37.7334 14.3496C37.721 14.3372 37.6962 14.3248 37.6838 14.3124C34.1029 10.7811 29.2085 8.58789 23.8185 8.58789C18.4285 8.58789 13.5341 10.7687 9.99036 14.3001C9.97797 14.3124 9.95319 14.3248 9.9408 14.3372C9.9284 14.3496 9.91601 14.3744 9.90362 14.3868C6.37224 17.943 4.19146 22.8249 4.19146 28.2149C4.17907 33.6173 6.37224 38.5117 9.90362 42.0679ZM10.8577 17.0136L11.6631 17.819C11.9109 18.0669 12.2207 18.1784 12.5429 18.1784C12.865 18.1784 13.1748 18.0545 13.4226 17.819C13.9059 17.3358 13.9059 16.5552 13.4226 16.0719L12.6172 15.2665C15.3308 12.9123 18.7878 11.4006 22.5918 11.128V12.2804C22.5918 12.9618 23.1494 13.5194 23.8309 13.5194C24.5124 13.5194 25.07 12.9618 25.07 12.2804V11.128C28.874 11.4006 32.3186 12.9123 35.0446 15.2665L34.2392 16.0719C33.7559 16.5552 33.7559 17.3358 34.2392 17.819C34.487 18.0669 34.7968 18.1784 35.1189 18.1784C35.4411 18.1784 35.7509 18.0545 35.9987 17.819L36.8041 17.0136C39.1583 19.7272 40.67 23.1843 40.9426 26.9882H39.7903C39.1088 26.9882 38.5512 27.5458 38.5512 28.2273C38.5512 28.9088 39.1088 29.4664 39.7903 29.4664H40.9426C40.67 33.2704 39.1583 36.715 36.8041 39.441L35.9987 38.6356C35.5154 38.1524 34.7348 38.1524 34.2516 38.6356C33.7683 39.1189 33.7683 39.8995 34.2516 40.3827L35.057 41.1881C32.3434 43.5424 28.8863 45.0541 25.0824 45.3266V44.1743C25.0824 43.4928 24.5248 42.9352 23.8433 42.9352C23.1618 42.9352 22.6042 43.4928 22.6042 44.1743V45.3266C18.8002 45.0541 15.3556 43.5424 12.6296 41.1881L13.435 40.3827C13.9182 39.8995 13.9182 39.1189 13.435 38.6356C12.9518 38.1524 12.1711 38.1524 11.6879 38.6356L10.8825 39.441C8.52824 36.7274 7.01656 33.2704 6.74397 29.4664H7.89631C8.57781 29.4664 9.13539 28.9088 9.13539 28.2273C9.13539 27.5458 8.57781 26.9882 7.89631 26.9882H6.71918C6.99178 23.1843 8.50346 19.7396 10.8577 17.0136Z" fill="#303844"/>
</svg>
