<svg width="58" height="58" viewBox="0 0 58 58" fill="none" xmlns="http://www.w3.org/2000/svg">
<g clip-path="url(#clip0_2100_62766)">
<path d="M0.662109 22.2393L26.6262 48.8649L16.4399 22.2393H0.662109Z" fill="#19C92B"/>
<path d="M18.478 22.2393L29.1083 50.0158L39.7749 22.2393H18.478Z" fill="#19C92B"/>
<path d="M31.7275 48.5114L57.3472 22.2393H41.8232L31.7275 48.5114Z" fill="#19C92B"/>
<path d="M58.0002 20.3273L51.6292 8.86328L43.0742 20.3273H58.0002Z" fill="#19C92B"/>
<path d="M6.28031 8.7002L0 20.3274H15.1525L6.28031 8.7002Z" fill="#19C92B"/>
<path d="M49.8981 7.98438H30.9575L41.0622 19.8291L49.8981 7.98438Z" fill="#19C92B"/>
<path d="M38.9595 20.3273L28.8911 8.50977L19.0039 20.3273H38.9595Z" fill="#19C92B"/>
<path d="M26.8346 7.98438H8.13867L17.0652 19.675L26.8346 7.98438Z" fill="#19C92B"/>
</g>
<defs>
<clipPath id="clip0_2100_62766">
<rect width="58" height="58" fill="white"/>
</clipPath>
</defs>
</svg>
