<svg width="20" height="17" viewBox="0 0 20 17" fill="none" xmlns="http://www.w3.org/2000/svg">
<path d="M0.909091 5.27239H10.1273C10.3366 6.04273 10.7936 6.72277 11.4278 7.20761C12.062 7.69244 12.8381 7.95512 13.6364 7.95512C14.4346 7.95512 15.2107 7.69244 15.8449 7.20761C16.4791 6.72277 16.9361 6.04273 17.1455 5.27239H19.0909C19.332 5.27239 19.5632 5.17661 19.7337 5.00613C19.9042 4.83564 20 4.60441 20 4.3633C20 4.1222 19.9042 3.89097 19.7337 3.72048C19.5632 3.54999 19.332 3.45421 19.0909 3.45421H17.1455C16.9361 2.68388 16.4791 2.00383 15.8449 1.519C15.2107 1.03416 14.4346 0.771484 13.6364 0.771484C12.8381 0.771484 12.062 1.03416 11.4278 1.519C10.7936 2.00383 10.3366 2.68388 10.1273 3.45421H0.909091C0.667985 3.45421 0.436754 3.54999 0.266267 3.72048C0.0957791 3.89097 0 4.1222 0 4.3633C0 4.60441 0.0957791 4.83564 0.266267 5.00613C0.436754 5.17661 0.667985 5.27239 0.909091 5.27239ZM13.6364 2.54512C13.996 2.54512 14.3475 2.65176 14.6465 2.85154C14.9455 3.05132 15.1785 3.33529 15.3161 3.66751C15.4538 3.99974 15.4898 4.36532 15.4196 4.71801C15.3495 5.0707 15.1763 5.39467 14.922 5.64895C14.6677 5.90323 14.3438 6.07639 13.9911 6.14655C13.6384 6.2167 13.2728 6.1807 12.9406 6.04308C12.6083 5.90547 12.3244 5.67243 12.1246 5.37343C11.9248 5.07443 11.8182 4.7229 11.8182 4.3633C11.8182 3.88109 12.0097 3.41863 12.3507 3.07765C12.6917 2.73668 13.1542 2.54512 13.6364 2.54512ZM19.0909 11.636H9.87273C9.66338 10.8657 9.20636 10.1856 8.57219 9.70082C7.93801 9.21598 7.16191 8.9533 6.36364 8.9533C5.56536 8.9533 4.78927 9.21598 4.15509 9.70082C3.52091 10.1856 3.06389 10.8657 2.85455 11.636H0.909091C0.667985 11.636 0.436754 11.7318 0.266267 11.9023C0.0957791 12.0728 0 12.304 0 12.5451C0 12.7862 0.0957791 13.0175 0.266267 13.1879C0.436754 13.3584 0.667985 13.4542 0.909091 13.4542H2.85455C3.06389 14.2245 3.52091 14.9046 4.15509 15.3894C4.78927 15.8743 5.56536 16.1369 6.36364 16.1369C7.16191 16.1369 7.93801 15.8743 8.57219 15.3894C9.20636 14.9046 9.66338 14.2245 9.87273 13.4542H19.0909C19.332 13.4542 19.5632 13.3584 19.7337 13.1879C19.9042 13.0175 20 12.7862 20 12.5451C20 12.304 19.9042 12.0728 19.7337 11.9023C19.5632 11.7318 19.332 11.636 19.0909 11.636ZM6.36364 14.3633C6.00403 14.3633 5.65251 14.2567 5.35351 14.0569C5.05451 13.8571 4.82147 13.5731 4.68386 13.2409C4.54624 12.9087 4.51024 12.5431 4.58039 12.1904C4.65055 11.8377 4.82371 11.5137 5.07799 11.2595C5.33227 11.0052 5.65623 10.832 6.00893 10.7619C6.36162 10.6917 6.7272 10.7277 7.05942 10.8653C7.39165 11.003 7.67561 11.236 7.8754 11.535C8.07518 11.834 8.18182 12.1855 8.18182 12.5451C8.18182 13.0273 7.99026 13.4898 7.64928 13.8308C7.30831 14.1717 6.84585 14.3633 6.36364 14.3633Z" fill="#8599A7"/>
</svg>
