<svg width="20" height="24" viewBox="0 0 20 24" fill="none" xmlns="http://www.w3.org/2000/svg">
<path d="M14.3057 6.77567C15.5057 9.10508 14.8704 10.3757 14.8704 10.3757C12.9645 4.02273 7.45864 0.705078 7.45864 0.705078C10.0704 3.74037 8.51746 6.77567 8.51746 6.77567C7.59982 5.15214 5.83511 4.09331 5.83511 4.09331C8.16452 8.18743 5.48217 11.4345 5.48217 11.4345C4.21158 9.66978 5.34099 7.48155 5.34099 7.48155C2.51746 10.1639 2.23511 13.6227 2.23511 13.6227C1.59982 12.9168 1.6704 11.1521 1.6704 11.1521C-0.729596 19.058 2.72923 23.011 6.68217 23.2227C7.1057 22.3051 9.5057 18.9874 6.54099 16.2345C6.54099 16.2345 9.85864 15.8815 11.2704 21.1757C11.2704 21.1757 12.7528 17.858 9.71746 16.2345C9.71746 16.2345 13.6704 16.8698 13.741 20.3992C13.741 21.458 13.3881 22.4463 12.8233 23.2933C14.8704 23.2227 16.8469 21.8815 17.8351 20.3286C21.9292 14.1168 14.3057 6.77567 14.3057 6.77567Z" fill="#F23A00"/>
</svg>
