<svg width="24" height="24" viewBox="0 0 24 24" fill="none" xmlns="http://www.w3.org/2000/svg">
<path fill-rule="evenodd" clip-rule="evenodd" d="M12.0016 1.59961C6.27091 1.59961 1.60156 6.25844 1.60156 11.9996C1.60156 17.7305 6.27065 22.3996 12.0016 22.3996C17.7427 22.3996 22.4016 17.7303 22.4016 11.9996C22.4016 6.35592 17.8991 1.75786 12.2923 1.6036L12.2923 1.60357L12.2868 1.60349L12.0071 1.59965V1.59961H12.0016ZM2.40156 11.9996C2.40156 6.70169 6.71074 2.40108 11.9988 2.39961L12.273 2.40338C17.4467 2.54717 21.6016 6.79133 21.6016 11.9996C21.6016 17.289 17.3004 21.5996 12.0016 21.5996C6.71248 21.5996 2.40156 17.2887 2.40156 11.9996ZM13.9816 15.9996C14.2716 15.6996 14.2716 15.2296 13.9716 14.9396L11.0216 11.9996L13.9716 9.05961C14.2716 8.76961 14.2716 8.28961 13.9816 7.99961C13.6816 7.69961 13.2116 7.69961 12.9216 7.99961L9.43156 11.4696C9.29156 11.6096 9.21156 11.7996 9.21156 11.9996C9.21156 12.1996 9.29156 12.3896 9.43156 12.5296L12.9216 15.9996C13.0616 16.1496 13.2516 16.2196 13.4416 16.2196C13.6416 16.2196 13.8316 16.1496 13.9816 15.9996Z" fill="#19C92B"/>
</svg>
