<svg width="20" height="20" viewBox="0 0 20 20" fill="none" xmlns="http://www.w3.org/2000/svg">
<path fill-rule="evenodd" clip-rule="evenodd" d="M10.5859 1.05811L18.9193 8.74344C19.0792 8.89091 19.1693 9.09273 19.1693 9.30341V18.775C19.1693 18.9915 18.9827 19.1671 18.7526 19.1671H12.9193C12.6892 19.1671 12.5026 18.9915 12.5026 18.775V14.4627C12.5026 13.21 11.4618 12.186 10.1495 12.1144L10.0026 12.1104C8.6712 12.1104 7.58289 13.0897 7.50685 14.3245L7.5026 14.4627V18.775C7.50259 18.9915 7.31605 19.1671 7.08594 19.1671L1.2526 19.1673C1.04805 19.1673 0.877924 19.0287 0.842636 18.8458L0.835938 18.7753V9.30341C0.835937 9.09273 0.926045 8.89091 1.08595 8.74344L9.41929 1.05811C9.74332 0.759276 10.2619 0.759276 10.5859 1.05811Z" fill="white"/>
</svg>
