<svg width="58" height="58" viewBox="0 0 58 58" fill="none" xmlns="http://www.w3.org/2000/svg">
<path d="M29 0C13.0094 0 0 13.0094 0 29C0 44.9906 13.0094 58 29 58C44.9906 58 58 44.9906 58 29C58 13.0094 44.9906 0 29 0ZM29 5.54802C39.6643 5.54802 48.6826 12.7052 51.5188 22.4666C43.5632 20.4179 36.1649 19.4171 29 19.4171C21.8351 19.4171 14.4375 20.4173 6.48053 22.466C9.31738 12.7052 18.3357 5.54802 29 5.54802ZM29 36.3132C25.7965 36.3132 23.2 33.7167 23.2 30.5132C23.2 27.3096 25.7965 24.7132 29 24.7132C32.2035 24.7132 34.8 27.3096 34.8 30.5132C34.8 33.7167 32.2035 36.3132 29 36.3132ZM5.99333 33.544C15.5156 33.6477 22.948 41.3598 22.948 51.1908C22.948 51.3377 22.9448 51.4911 22.9396 51.6535C14.3718 49.3593 7.72496 42.3252 5.99333 33.544ZM35.0604 51.6535C35.0546 51.4918 35.052 51.3371 35.052 51.1908C35.052 41.3598 42.4831 33.6477 52.006 33.544C50.2757 42.3252 43.6276 49.3593 35.0604 51.6535Z" fill="#8599A7"/>
</svg>
