<svg width="58" height="44" viewBox="0 0 58 44" fill="none" xmlns="http://www.w3.org/2000/svg">
<path d="M56.8397 21.7444V21.5524L53.5757 18.4164L52.5517 16.4324L51.9757 15.8564L57.7357 15.0244L57.1597 12.8484L55.6877 11.6324L53.8317 11.0564L49.7997 10.9284L49.2237 10.4804L48.4557 8.75241L47.4957 6.96041L45.0637 3.69641L43.5277 2.48041H43.0157L42.5677 2.60841L39.4957 1.45641L28.9997 0.816406L18.5037 1.39241L15.3677 2.54441L14.9837 2.41641H14.4717L12.9997 3.63241L10.5677 6.89641L9.60767 8.68841L8.77567 10.4804L8.19967 10.9284L4.23167 11.0564L2.37567 11.6324L0.839672 12.8484L0.263672 15.0244L6.02367 15.8564L5.51167 16.3684L4.42367 18.3524L1.15967 21.4884L0.903672 40.6244V40.6884L1.15967 42.8004L1.92767 43.9524H8.58367L9.99167 42.9284V41.0724L15.9437 41.2004L18.2477 40.2404L18.6957 41.0084H39.3677L39.8157 40.2404L42.1197 41.2004L48.0717 41.0724V42.9284L49.4797 43.9524H56.1357L56.8397 42.8644L57.1597 40.7524V40.6884L56.9037 23.2164V21.7444H56.8397ZM47.6237 34.2884L55.1757 33.9044L55.4317 35.8884L46.0877 37.0404L47.6237 34.2884ZM27.7197 25.6484V28.1444C27.6557 28.2084 27.5917 28.3364 27.4637 28.4644L23.8797 28.6564L19.2077 28.1444L18.5677 27.6324L17.6077 26.3524L17.4797 25.0084L22.5357 24.5604L26.9517 24.8804L27.7197 25.6484ZM47.2397 13.8084L28.9997 13.9364L10.7597 13.8084L10.2477 13.8724L11.0157 11.3764L14.1517 5.74441L22.5997 5.23241L28.9997 5.16841L35.3997 5.23241L41.4157 5.61641L43.9757 5.80841L47.1117 11.3764L47.8797 13.9364L47.2397 13.8084ZM30.2797 25.6484L30.9837 24.9444L35.3997 24.6244L40.5197 25.0724L40.3917 26.4164L39.4317 27.6964L38.7917 28.2084L34.1197 28.6564L30.5357 28.4644C30.4077 28.3364 30.3437 28.2084 30.2797 28.1444V25.6484ZM2.75967 33.9044L10.3117 34.2884L11.7837 37.1044L2.50367 35.9524L2.75967 33.9044ZM54.0877 23.0884L54.2157 24.8164L54.0237 25.5204L53.9597 25.6484L52.4237 26.2884L46.6637 27.3764L42.8877 26.4804L43.0797 26.0324C43.0797 25.9684 43.0797 25.9044 43.0797 25.8404V25.0084L44.5517 24.7524L45.3197 24.3684L46.7917 24.1124L51.1437 22.8964L51.9757 22.8324L54.0877 23.0884ZM6.02367 22.7044L6.79167 22.7684L11.1437 24.0484L12.6157 24.3044L13.3197 24.6884L14.8557 25.0084V25.8404C14.8557 25.9044 14.8557 25.9684 14.8557 26.0324L15.0477 26.4804L11.2717 27.3764L5.51167 26.3524L3.91167 25.7124L3.65567 24.8804L3.78367 23.1524L6.02367 22.7044ZM32.3917 38.9604H25.6077C24.5197 38.9604 20.2317 38.7044 18.5037 38.2564C17.2877 37.8724 16.1357 35.7604 15.6877 34.8644L16.3917 34.4804L28.8717 34.2884L41.6717 34.4804L42.3757 34.8644C41.9277 35.7604 40.7757 37.8724 39.5597 38.2564C37.7677 38.7044 33.4797 38.9604 32.3917 38.9604Z" fill="#8599A7"/>
</svg>
