<svg width="80" height="34" viewBox="0 0 80 34" fill="none" xmlns="http://www.w3.org/2000/svg">
<path d="M17.4447 20.4512C16.1048 20.4512 14.795 20.8485 13.6809 21.5929C12.5667 22.3374 11.6984 23.3954 11.1856 24.6334C10.6729 25.8713 10.5387 27.2335 10.8001 28.5477C11.0615 29.8619 11.7067 31.069 12.6542 32.0165C13.6017 32.964 14.8089 33.6092 16.123 33.8706C17.4372 34.132 18.7994 33.9979 20.0373 33.4851C21.2753 32.9723 22.3334 32.104 23.0778 30.9899C23.8222 29.8758 24.2196 28.5659 24.2196 27.226C24.2196 25.4292 23.5058 23.706 22.2353 22.4355C20.9647 21.1649 19.2415 20.4512 17.4447 20.4512ZM17.4447 30.3539C16.8261 30.3539 16.2213 30.1705 15.707 29.8268C15.1926 29.4831 14.7917 28.9945 14.5549 28.423C14.3182 27.8514 14.2562 27.2225 14.3769 26.6158C14.4976 26.009 14.7955 25.4517 15.233 25.0142C15.6704 24.5768 16.2278 24.2789 16.8345 24.1582C17.4413 24.0375 18.0702 24.0994 18.6417 24.3362C19.2133 24.5729 19.7018 24.9738 20.0455 25.4882C20.3892 26.0026 20.5727 26.6073 20.5727 27.226C20.5727 28.0556 20.2431 28.8512 19.6565 29.4378C19.0699 30.0244 18.2743 30.3539 17.4447 30.3539Z" fill="#8599A7"/>
<path d="M61.0395 20.4512C59.6995 20.4512 58.3897 20.8485 57.2756 21.5929C56.1615 22.3374 55.2931 23.3954 54.7804 24.6334C54.2676 25.8713 54.1334 27.2335 54.3948 28.5477C54.6562 29.8619 55.3015 31.069 56.249 32.0165C57.1964 32.964 58.4036 33.6092 59.7178 33.8706C61.0319 34.132 62.3941 33.9979 63.6321 33.4851C64.87 32.9723 65.9281 32.104 66.6725 30.9899C67.4169 29.8758 67.8143 28.5659 67.8143 27.226C67.8143 25.4292 67.1005 23.706 65.83 22.4355C64.5595 21.1649 62.8363 20.4512 61.0395 20.4512ZM61.0395 30.3539C60.4208 30.3539 59.8161 30.1705 59.3017 29.8268C58.7873 29.4831 58.3864 28.9945 58.1496 28.423C57.9129 27.8514 57.851 27.2225 57.9717 26.6158C58.0923 26.009 58.3903 25.4517 58.8277 25.0142C59.2651 24.5768 59.8225 24.2789 60.4292 24.1582C61.036 24.0375 61.6649 24.0994 62.2365 24.3362C62.808 24.5729 63.2965 24.9738 63.6402 25.4882C63.9839 26.0026 64.1674 26.6073 64.1674 27.226C64.1674 28.0556 63.8378 28.8512 63.2512 29.4378C62.6646 30.0244 61.869 30.3539 61.0395 30.3539Z" fill="#8599A7"/>
<path d="M68.7812 14.5312L69.5527 15.8918L73.929 17.6592L73.2838 15.9479L68.7812 14.5312Z" fill="#8599A7"/>
<path d="M4.93416 14.4471L5.24274 13.7177C5.26265 13.6761 5.27299 13.6306 5.27299 13.5845C5.27299 13.5383 5.26265 13.4928 5.24274 13.4512C5.219 13.4098 5.184 13.3759 5.14179 13.3536C5.09958 13.3312 5.0519 13.3213 5.00429 13.325H3.09668V14.7276L4.72376 14.5874C4.7677 14.5832 4.80993 14.5682 4.84665 14.5438C4.88337 14.5193 4.91344 14.4861 4.93416 14.4471Z" fill="#8599A7"/>
<path d="M79.0498 19.5533L77.3386 17.9543V16.2711C77.3415 15.5555 77.1253 14.8561 76.7191 14.2669C76.3129 13.6776 75.7362 13.2268 75.0663 12.9749L66.5662 9.9592C65.2166 9.47342 63.7926 9.2266 62.3583 9.22982H59.6371L49.6502 2.94593C46.7766 1.12246 43.4454 0.149853 40.0421 0.140625H28.7787C25.4852 0.141801 22.2547 1.04401 19.4371 2.74956L9.70266 8.66876L5.11599 9.1176C4.32294 9.19873 3.58031 9.54452 3.00777 10.0992C2.43524 10.654 2.06616 11.3853 1.96002 12.1754C2.07141 12.0685 2.21384 11.9998 2.36679 11.979H5.04586C5.32475 11.9757 5.5999 12.0435 5.84533 12.176C6.09075 12.3085 6.29834 12.5014 6.44851 12.7364C6.59605 12.9629 6.68484 13.2226 6.70688 13.4919C6.72892 13.7613 6.68351 14.0319 6.57475 14.2794L6.3363 14.9807C6.21439 15.2592 6.0199 15.4999 5.77316 15.6776C5.52641 15.8552 5.23647 15.9633 4.93364 15.9906L2.60524 16.187C2.44463 16.1857 2.29002 16.1259 2.17042 16.0187V16.9164L0.908029 19.2868C0.817009 19.3742 0.753612 19.4864 0.725684 19.6094V23.2283C0.720103 23.9591 0.952479 24.6718 1.38771 25.2589C1.82294 25.8459 2.43739 26.2754 3.13825 26.4825L7.73895 27.8851H7.94935H9.1416C9.32389 27.8851 9.4987 27.8127 9.6276 27.6838C9.75649 27.5549 9.8289 27.3801 9.8289 27.1978C9.8289 25.1666 10.6358 23.2187 12.072 21.7824C13.5083 20.3462 15.4562 19.5393 17.4874 19.5393C19.5185 19.5393 21.4665 20.3462 22.9028 21.7824C24.339 23.2187 25.1459 25.1666 25.1459 27.1978C25.1459 27.3801 25.2183 27.5549 25.3472 27.6838C25.4761 27.8127 25.6509 27.8851 25.8332 27.8851H52.6239C52.8061 27.8851 52.9809 27.8127 53.1098 27.6838C53.2387 27.5549 53.3112 27.3801 53.3112 27.1978C53.3112 25.1666 54.118 23.2187 55.5543 21.7824C56.9905 20.3462 58.9385 19.5393 60.9696 19.5393C63.0008 19.5393 64.9488 20.3462 66.385 21.7824C67.8213 23.2187 68.6281 25.1666 68.6281 27.1978C68.6281 27.3801 68.7005 27.5549 68.8294 27.6838C68.9583 27.8127 69.1331 27.8851 69.3154 27.8851H70.0448L76.5251 26.3001C77.3032 26.1254 77.999 25.6916 78.4984 25.0698C78.9979 24.4481 79.2714 23.6751 79.2743 22.8776V20.0723C79.2767 19.9747 79.2579 19.8778 79.2192 19.7881C79.1804 19.6985 79.1226 19.6184 79.0498 19.5533ZM36.1707 12.6102H39.495C39.681 12.6102 39.8594 12.6841 39.9909 12.8156C40.1225 12.9471 40.1963 13.1255 40.1963 13.3115C40.1963 13.4975 40.1225 13.6759 39.9909 13.8075C39.8594 13.939 39.681 14.0129 39.495 14.0129H36.1707C35.9847 14.0129 35.8063 13.939 35.6748 13.8075C35.5433 13.6759 35.4694 13.4975 35.4694 13.3115C35.4694 13.1255 35.5433 12.9471 35.6748 12.8156C35.8063 12.6841 35.9847 12.6102 36.1707 12.6102ZM22.8315 13.7043H19.0443C18.8583 13.7043 18.6799 13.6304 18.5484 13.4989C18.4169 13.3673 18.343 13.189 18.343 13.003C18.343 12.817 18.4169 12.6386 18.5484 12.507C18.6799 12.3755 18.8583 12.3016 19.0443 12.3016H22.8315C23.0175 12.3016 23.1959 12.3755 23.3274 12.507C23.4589 12.6386 23.5328 12.817 23.5328 13.003C23.5328 13.189 23.4589 13.3673 23.3274 13.4989C23.1959 13.6304 23.0175 13.7043 22.8315 13.7043ZM18.5254 10.5904C18.4054 10.5876 18.2882 10.5535 18.1855 10.4914C18.0829 10.4292 17.9982 10.3413 17.9401 10.2364C17.8819 10.1314 17.8523 10.013 17.854 9.89304C17.8558 9.77305 17.889 9.65562 17.9503 9.55243C18.0765 9.34203 20.9519 4.65717 23.2102 3.45089C24.9635 2.49708 30.2235 2.38487 33.1691 2.38487C33.2605 2.383 33.3514 2.3994 33.4364 2.43311C33.5214 2.46681 33.5988 2.51714 33.6641 2.58115C33.7295 2.64516 33.7813 2.72156 33.8168 2.80587C33.8522 2.89019 33.8704 2.98072 33.8704 3.07217V10.1976C33.867 10.3866 33.7917 10.5671 33.66 10.7026C33.5282 10.8296 33.352 10.9001 33.1691 10.899L18.5254 10.5904ZM49.8185 24.5468H28.0774C27.8914 24.5468 27.713 24.4729 27.5815 24.3414C27.45 24.2099 27.3761 24.0315 27.3761 23.8455C27.3761 23.6595 27.45 23.4811 27.5815 23.3495C27.713 23.218 27.8914 23.1441 28.0774 23.1441H49.8185C50.0045 23.1441 50.1829 23.218 50.3145 23.3495C50.446 23.4811 50.5199 23.6595 50.5199 23.8455C50.5199 24.0315 50.446 24.2099 50.3145 24.3414C50.1829 24.4729 50.0045 24.5468 49.8185 24.5468ZM56.2006 11.5863C56.1462 11.708 56.0576 11.8113 55.9455 11.8835C55.8334 11.9557 55.7027 11.9938 55.5694 11.993L42.1601 11.0813L36.3811 10.9551C36.2915 10.9551 36.2028 10.9372 36.1202 10.9025C36.0376 10.8678 35.9627 10.817 35.9 10.753C35.8373 10.6889 35.788 10.6131 35.755 10.5297C35.722 10.4464 35.706 10.3574 35.7079 10.2678V3.12827C35.7065 3.03419 35.7245 2.94082 35.7607 2.85396C35.7968 2.7671 35.8505 2.6886 35.9183 2.62332C35.9823 2.55956 36.0592 2.51029 36.1439 2.47883C36.2286 2.44737 36.3191 2.43446 36.4092 2.44098C38.2747 2.44098 40.0561 2.6093 41.6972 2.74956C48.7104 3.38075 55.8079 10.5203 56.1024 10.8148C56.204 10.9122 56.2733 11.0383 56.3009 11.1763C56.3285 11.3142 56.3131 11.4574 56.2567 11.5863H56.2006ZM74.8419 18.5995C74.6496 18.7832 74.409 18.9084 74.1482 18.9606C73.8875 19.0127 73.6173 18.9897 73.3691 18.8941L69.0349 17.1688C68.7412 17.0562 68.4974 16.8423 68.3476 16.5657L66.7205 13.6903C66.6415 13.5657 66.6055 13.4186 66.6182 13.2716C66.6308 13.1247 66.6914 12.9859 66.7906 12.8767C66.8775 12.7687 66.9949 12.6895 67.1276 12.6495C67.2603 12.6094 67.402 12.6104 67.5341 12.6523L73.6637 14.63C73.8634 14.6932 74.0464 14.8004 74.1994 14.9436C74.3523 15.0868 74.4712 15.2624 74.5473 15.4576L75.1785 17.1829C75.273 17.4279 75.2968 17.6945 75.2472 17.9524C75.1976 18.2103 75.0766 18.4491 74.898 18.6416L74.8419 18.5995Z" fill="#8599A7"/>
</svg>
