<svg width="36" height="36" viewBox="0 0 36 36" fill="none" xmlns="http://www.w3.org/2000/svg">
<path d="M18.744 7.95132C18.8958 7.39505 19.225 6.90351 19.6815 6.55134C20.1381 6.19917 20.6971 6.00561 21.2737 6.00005C22.4351 6.00642 23.1856 6.89033 22.95 7.97436C22.7982 8.53063 22.469 9.02217 22.0125 9.37434C21.5559 9.72652 20.9969 9.92008 20.4203 9.92564C19.2589 9.91926 18.5083 9.03535 18.744 7.95132ZM22.7136 25.6717C20.6361 26.8678 18.8005 27.0642 19.2455 25.017L21.5842 14.2587C22.0514 12.1097 19.5303 11.5661 17.2706 12.714C15.6483 13.5722 14.2063 14.7346 13.0233 16.1377C12.9918 16.175 12.9744 16.2222 12.9741 16.2711C12.9738 16.3199 12.9907 16.3673 13.0217 16.405C13.0528 16.4427 13.0961 16.4684 13.1441 16.4774C13.1922 16.4865 13.2418 16.4784 13.2845 16.4546C15.362 15.2586 17.1976 15.0622 16.7525 17.1093L14.4138 27.8677C13.9467 30.0166 16.4678 30.5603 18.7274 29.4123C20.3497 28.5541 21.7917 27.3918 22.9748 25.9887C23.0063 25.9514 23.0237 25.9041 23.024 25.8553C23.0243 25.8064 23.0074 25.759 22.9764 25.7213C22.9453 25.6836 22.902 25.658 22.8539 25.6489C22.8059 25.6399 22.7563 25.6479 22.7136 25.6717V25.6717ZM35.999 18C35.999 21.5601 34.9433 25.0402 32.9655 28.0003C30.9876 30.9603 28.1764 33.2675 24.8873 34.6298C21.5983 35.9922 17.9791 36.3487 14.4874 35.6541C10.9957 34.9596 7.78845 33.2453 5.27111 30.7279C2.75376 28.2106 1.03943 25.0033 0.344896 21.5116C-0.349637 18.02 0.00682259 14.4008 1.3692 11.1117C2.73158 7.82263 5.03868 5.01141 7.99877 3.03355C10.9589 1.05568 14.439 0 17.999 0C22.7729 0 27.3513 1.89642 30.727 5.27208C34.1026 8.64773 35.999 13.2261 35.999 18ZM33.999 18C33.999 14.8355 33.0606 11.7421 31.3025 9.11088C29.5444 6.47969 27.0456 4.42893 24.122 3.21793C21.1983 2.00693 17.9813 1.69007 14.8776 2.30744C11.7739 2.9248 8.92296 4.44865 6.68532 6.68629C4.44768 8.92393 2.92383 11.7749 2.30647 14.8786C1.6891 17.9823 2.00596 21.1993 3.21696 24.1229C4.42796 27.0466 6.47872 29.5454 9.10991 31.3035C11.7411 33.0616 14.8345 34 17.999 34C22.241 33.9952 26.3079 32.308 29.3074 29.3084C32.307 26.3089 33.9942 22.242 33.999 18Z" fill="white"/>
</svg>
