<svg width="12" height="12" viewBox="0 0 12 12" fill="none" xmlns="http://www.w3.org/2000/svg">
<path d="M7.00818 11.7504C7.02133 11.7504 7.03449 11.7504 7.04764 11.7504C7.25812 11.7504 7.44229 11.6189 7.53437 11.4347L11.7176 1.66071C11.7965 1.46338 11.757 1.23975 11.6123 1.0819C11.4545 0.924038 11.2309 0.884574 11.0335 0.976657L1.24639 5.15987C1.03592 5.25196 0.917524 5.46243 0.930679 5.67291C0.943834 5.89654 1.10169 6.08071 1.31217 6.14648L5.39014 7.29094L6.53461 11.3689C6.60038 11.5794 6.78455 11.7373 7.00818 11.7504ZM5.74532 6.56743L2.24616 5.58082L10.731 1.95011L7.10026 10.4349L6.11366 6.93576C6.06104 6.7516 5.92949 6.62005 5.74532 6.56743Z" fill="#303844" stroke="#303844" stroke-width="0.3"/>
</svg>
