<svg width="990" height="189" xmlns="http://www.w3.org/2000/svg" version="1.2">
	<title>treo logo 5-svg</title>

	<g>
		<title>Layer 1</title>
		<g id="Layer">
			<path fill="#05db99" d="m68.4,5.7c-2.5,-4.7 -9.1,-5 -12,-0.5l-25.6,39.6l-25.7,39.6c-2.9,4.5 0.1,10.4 5.4,10.8l48.8,3.3l48.1,3.2c5.5,0.4 9.3,-5.4 6.7,-10.3l-22.7,-42.5l-23,-43.2z" class="s1" id="Layer"/>
			<path fill="#46a3f7" d="m58.1,43.6c0.1,-5.6 6,-9 10.8,-6.2l42.2,24.2l42.3,24.1c4.7,2.8 4.8,9.6 0.1,12.5l-43.2,26.1l-42.6,25.7c-4.8,2.9 -11,-0.6 -10.9,-6.3l0.6,-49.7l0.7,-50.4z" class="s2" id="Layer"/>
			<path fill="#db4426" d="m106.2,90.9c0.4,-4.9 -4.7,-8.5 -9.3,-6.5l-40.3,18.4l-40.2,18.3c-4.6,2.1 -5.3,8.3 -1.2,11.3l36.9,27.2l36.3,26.9c4.2,3 10.1,0.4 10.5,-4.8l3.6,-45l3.7,-45.8z" class="s3" id="Layer"/>
		</g>
		<g id="Layer">
			<path fill="#04af51" d="m297.1,71.5l-37.5,0l0,115.5l-27.3,0l0,-115.5l-37.3,0l0,-24.3l102.1,0l0,24.3z" class="s4" id="Layer"/>
			<path fill="#04af51" d="m429,187l-31.6,0l-27.3,-51.9l-19.6,0l0,51.9l-27.3,0l0,-109.8q0,-15.7 7.3,-22.8q7.2,-7.2 24.3,-7.2l23.2,0q20.8,0 33.1,12.6q12.2,12.7 12.2,32.2q0,14.1 -7.3,24.4q-7.4,10.3 -18.2,14.2l31.2,56.4zm-38.6,-80.6q5.6,-6 5.6,-14.9q0,-8.9 -5.3,-14.4q-5.5,-5.5 -14.5,-5.5l-13.5,0q-12.2,0 -12.2,12.3l0,28.5l25.7,0q8.6,0 14.2,-6z" class="s4" fill-rule="evenodd" id="Layer"/>
			<path fill="#04af51" d="m548.6,187l-49.5,0q-23.5,0 -33.1,-8.2q-9.5,-8.1 -9.5,-28.7l0,-102.9l92.1,0l0,24.3l-64.8,0l0,32.8l45.4,0l-2,24.4l-43.4,0l0,19.4q0,8.2 3.7,11.4q3.8,3.1 13.6,3.1l47.5,0l0,24.4z" class="s4" id="Layer"/>
			<path fill="#04af51" d="m682.7,110.6l0,10.6q0,35.1 -13.3,51q-13.2,16 -42.5,16q-29.2,0 -42.3,-16q-13.1,-15.9 -13.1,-51.6l0,-10.2q0,-32.6 13.3,-48.5q13.3,-15.9 42,-15.9q28.8,0 42.3,16.1q13.6,16.1 13.6,48.5zm-27.3,10l0,-7.3q0,-18.8 -4.7,-30q-5.5,-13 -23.6,-13q-18.2,0 -23.7,13q-4.5,10.6 -4.5,30l0,7.3q0,25.3 7,34.2q2.8,3.7 8.2,6.4q5.4,2.6 13,2.6q7.5,0 12.8,-2.5q5.3,-2.6 8.2,-6.3q3,-3.8 4.6,-9.8q2.7,-9.7 2.7,-24.6z" class="s4" fill-rule="evenodd" id="Layer"/>
			<path fill="#04af51" d="m736.6,160.6q3,3 3,12.8q0,9.8 -3,13q-3.1,3.1 -12.9,3.1q-9.8,0 -12.9,-3.1q-3.2,-3.2 -3.2,-13q0,-9.8 3.2,-12.8q3.1,-3.1 12.9,-3.1q9.8,0 12.9,3.1z" class="s4" id="Layer"/>
			<path fill="#04af51" d="m880.4,187l-28.5,0l-7.8,-24.2l-46.9,0l-7.7,24.2l-28.5,0l44.8,-128q3,-6.7 6.6,-9.3q3.6,-2.5 8.9,-2.5q5.3,0 8.6,2.3q3.2,2.4 5.7,9.5l44.8,128zm-42.6,-47.2l-16.4,-55.3l-17.3,55.3l33.7,0z" class="s4" fill-rule="evenodd" id="Layer"/>
			<path fill="#04af51" d="m988,187l-71.1,0q-10.8,0 -16.5,-5.1q-5.7,-5.1 -5.7,-13.4q0,-8.2 6.1,-17.3l55,-79.7l-57.1,0l0,-24.3l89.3,0l0,21.6l-63.8,93.8l63.8,0l0,24.4z" class="s4" id="Layer"/>
		</g>
	</g>
</svg>