<svg width="23" height="23" viewBox="0 0 23 23" fill="none" xmlns="http://www.w3.org/2000/svg">
<path d="M11.4992 0.574219C5.47322 0.574219 0.574219 5.47322 0.574219 11.4992C0.574219 17.5252 5.47322 22.4242 11.4992 22.4242C17.5252 22.4242 22.4242 17.5252 22.4242 11.4992C22.4242 5.47322 17.5252 0.574219 11.4992 0.574219ZM11.4992 20.4462C6.55422 20.4462 2.55222 16.4212 2.55222 11.4992C2.55222 6.57722 6.55422 2.55222 11.4992 2.55222C16.4442 2.55222 20.4462 6.55422 20.4462 11.4992C20.4462 16.4442 16.4442 20.4462 11.4992 20.4462Z" fill="white"/>
<path d="M16.971 11.4994C16.971 10.9474 16.534 10.5104 15.982 10.5104H12.486V7.01439C12.486 6.46239 12.049 6.02539 11.497 6.02539C10.945 6.02539 10.508 6.46239 10.508 7.01439V10.5334H6.989C6.437 10.5334 6 10.9704 6 11.5224C6 11.7984 6.115 12.0514 6.299 12.2124C6.483 12.3964 6.713 12.5114 6.989 12.5114H10.508V16.0304C10.508 16.3064 10.623 16.5594 10.807 16.7204C10.991 16.8814 11.221 17.0194 11.497 17.0194C12.049 17.0194 12.486 16.5824 12.486 16.0304V12.5114H16.005C16.534 12.4884 16.971 12.0514 16.971 11.4994Z" fill="white"/>
</svg>
