<svg width="21" height="21" viewBox="0 0 21 21" fill="none" xmlns="http://www.w3.org/2000/svg">
<path d="M15.1883 0.655958L15.1883 0.655975L16.4045 4.11718C17.1247 3.93397 17.888 4.02329 18.5472 4.36913C19.222 4.72314 19.7376 5.31967 19.9902 6.03859C20.2428 6.75752 20.2137 7.54546 19.9087 8.24376C19.6107 8.92593 19.071 9.47307 18.3945 9.78066L19.6838 13.4499L19.6849 13.453L19.6848 13.4531C19.7171 13.5659 19.7201 13.685 19.6933 13.7993C19.6666 13.9135 19.6111 14.019 19.5321 14.1058M15.1883 0.655958L19.1774 14.2732L19.1957 14.3268C19.1958 14.3268 19.1959 14.3268 19.1959 14.3267C19.3248 14.2826 19.4405 14.2066 19.5321 14.1058M15.1883 0.655958L15.1875 0.653787L15.1883 0.655958ZM19.5321 14.1058L19.4903 14.0677L19.5322 14.1058C19.5322 14.1058 19.5322 14.1058 19.5321 14.1058ZM14.0494 0.325426L14.0497 0.325861C14.1397 0.266727 14.2406 0.226187 14.3466 0.206621C14.4525 0.187058 14.5613 0.18886 14.6665 0.21192L14.0494 0.325426ZM14.0494 0.325426L14.0436 0.330472M14.0494 0.325426L14.0436 0.330472M14.0436 0.330472L7.03634 6.42696L3.06324 7.82302L3.06324 7.82301M14.0436 0.330472L3.06324 7.82301M3.06324 7.82301L3.06214 7.82342M3.06324 7.82301L3.06214 7.82342M3.06214 7.82342C2.6602 7.97402 2.30386 8.22568 2.02751 8.55413M3.06214 7.82342L2.02751 8.55413M2.02751 8.55413C1.75542 8.87751 1.56992 9.26458 1.48825 9.67902M2.02751 8.55413L1.48825 9.67902M1.48825 9.67902L1.25152 9.88424C0.807182 10.2379 0.484048 10.7212 0.32705 11.267C0.169966 11.813 0.187016 12.3945 0.375823 12.9304M1.48825 9.67902L3.11169 14.7486L2.94451 14.7403C2.38045 14.7481 1.82833 14.5775 1.36707 14.2527C0.905383 13.9276 0.558406 13.4648 0.375823 12.9304M0.375823 12.9304C0.375794 12.9304 0.375764 12.9303 0.375735 12.9302L0.429339 12.9119L0.375914 12.9307C0.375884 12.9306 0.375853 12.9305 0.375823 12.9304ZM9.66951 13.9214L9.67992 13.9177L9.66114 13.8643L9.65849 13.9209L9.66951 13.9214ZM9.30443 14.0497L9.27108 14.0013L9.32648 13.9819L9.35982 14.0302L9.30443 14.0497ZM6.91647 18.969L6.91659 18.9692L6.9631 18.9369L6.91636 18.9689C6.9164 18.9689 6.91643 18.969 6.91647 18.969ZM4.5083 15.5052C4.51614 15.5066 4.52399 15.508 4.53186 15.5093L4.54131 15.4535L4.4948 15.4858L4.5083 15.5052ZM17.8381 5.59425L17.8382 5.59429C18.1083 5.72368 18.3367 5.92617 18.4975 6.17879C18.6584 6.43142 18.7452 6.72406 18.7481 7.02352C18.751 7.32297 18.67 7.61726 18.5141 7.87297C18.3695 8.11027 18.1658 8.30555 17.9234 8.44004L16.8755 5.45762C17.1138 5.41627 17.3587 5.43016 17.5913 5.49857C17.676 5.52392 17.7585 5.55591 17.8381 5.59425ZM3.53697 9.15238L7.02835 7.92558L8.72603 12.7571L5.23349 13.9843L5.23345 13.9842L5.23032 13.9855C5.11741 14.033 4.99625 14.0577 4.87378 14.0582C4.7513 14.0587 4.62993 14.0351 4.51661 13.9886C4.4033 13.9421 4.30027 13.8738 4.21344 13.7874C4.12698 13.7014 4.05827 13.5992 4.01121 13.4868L4.01118 13.4867L4.01114 13.4865L4.01109 13.4864L4.01105 13.4863L4.011 13.4862L4.01096 13.486L4.01092 13.4859L4.01087 13.4858L4.01083 13.4857L4.01078 13.4855L4.01074 13.4854L4.01069 13.4853L4.01065 13.4852L4.01061 13.485L4.01056 13.4849L4.01052 13.4848L4.01047 13.4846L4.01043 13.4845L4.01038 13.4844L4.01034 13.4843L4.0103 13.4841L4.01025 13.484L4.01021 13.4839L4.01016 13.4838L4.01012 13.4836L4.01007 13.4835L4.01003 13.4834L4.00998 13.4833L4.00994 13.4831L4.00989 13.483L4.00985 13.4829L4.00981 13.4827L4.00976 13.4826L4.00972 13.4825L4.00967 13.4824L4.00963 13.4822L4.00958 13.4821L4.00954 13.482L4.00949 13.4819L4.00945 13.4817L4.0094 13.4816L4.00936 13.4815L4.00931 13.4813L4.00927 13.4812L4.00922 13.4811L4.00918 13.481L4.00913 13.4808L4.00909 13.4807L4.00904 13.4806L4.009 13.4805L4.00895 13.4803L4.00891 13.4802L4.00886 13.4801L4.00882 13.4799L4.00877 13.4798L4.00873 13.4797L4.00868 13.4796L4.00864 13.4794L4.00859 13.4793L4.00855 13.4792L4.0085 13.479L4.00846 13.4789L4.00841 13.4788L4.00836 13.4786L4.00832 13.4785L4.00827 13.4784L4.00823 13.4783L4.00818 13.4781L4.00814 13.478L4.00809 13.4779L4.00805 13.4777L4.008 13.4776L4.00796 13.4775L4.00791 13.4774L4.00786 13.4772L4.00782 13.4771L4.00777 13.477L4.00773 13.4768L4.00768 13.4767L4.00764 13.4766L4.00759 13.4764L4.00754 13.4763L4.0075 13.4762L4.00745 13.4761L4.00741 13.4759L4.00736 13.4758L4.00732 13.4757L4.00727 13.4755L4.00722 13.4754L4.00718 13.4753L4.00713 13.4751L4.00709 13.475L4.00704 13.4749L4.00699 13.4747L4.00695 13.4746L4.0069 13.4745L4.00686 13.4744L4.00681 13.4742L4.00676 13.4741L4.00672 13.474L4.00667 13.4738L4.00663 13.4737L4.00658 13.4736L4.00653 13.4734L4.00649 13.4733L4.00644 13.4732L4.00639 13.473L4.00635 13.4729L4.0063 13.4728L4.00625 13.4726L4.00621 13.4725L4.00616 13.4724L4.00612 13.4722L4.00607 13.4721L4.00602 13.472L4.00598 13.4719L4.00593 13.4717L4.00588 13.4716L4.00584 13.4715L4.00579 13.4713L4.00574 13.4712L4.0057 13.4711L4.00565 13.4709L4.0056 13.4708L4.00556 13.4707L4.00551 13.4705L4.00546 13.4704L4.00542 13.4703L4.00537 13.4701L4.00532 13.47L4.00528 13.4699L4.00523 13.4697L4.00518 13.4696L4.00513 13.4695L4.00509 13.4693L4.00504 13.4692L4.00499 13.4691L4.00495 13.4689L4.0049 13.4688L4.00485 13.4687L4.0048 13.4685L4.00476 13.4684L4.00471 13.4682L4.00466 13.4681L4.00462 13.468L4.00457 13.4678L4.00452 13.4677L4.00447 13.4676L4.00443 13.4674L4.00438 13.4673L4.00433 13.4672L4.00428 13.467L4.00424 13.4669L4.00419 13.4668L4.00414 13.4666L4.00409 13.4665L4.00405 13.4664L4.004 13.4662L4.00395 13.4661L4.0039 13.466L4.00386 13.4658L4.00381 13.4657L4.00376 13.4655L4.00371 13.4654L4.00367 13.4653L4.00362 13.4651L4.00357 13.465L4.00352 13.4649L4.00348 13.4647L4.00343 13.4646L4.00338 13.4645L4.00333 13.4643L4.00328 13.4642L4.00324 13.4641L4.00319 13.4639L4.00314 13.4638L4.00309 13.4636L4.00304 13.4635L4.003 13.4634L4.00295 13.4632L4.0029 13.4631L4.00285 13.463L4.0028 13.4628L4.00275 13.4627L4.00271 13.4625L4.00266 13.4624L4.00261 13.4623L4.00256 13.4621L4.00251 13.462L4.00246 13.4619L4.00242 13.4617L4.00237 13.4616L4.00232 13.4614L4.00227 13.4613L4.00222 13.4612L4.00217 13.461L4.00212 13.4609L4.00208 13.4608L4.00203 13.4606L4.00198 13.4605L4.00193 13.4603L4.00188 13.4602L4.00183 13.4601L4.00178 13.4599L4.00174 13.4598L4.00169 13.4596L4.00164 13.4595L4.00159 13.4594L4.00154 13.4592L4.00149 13.4591L4.00144 13.4589L4.00139 13.4588L4.00134 13.4587L4.00129 13.4585L4.00125 13.4584L4.0012 13.4582L4.00115 13.4581L4.0011 13.458L4.00105 13.4578L4.001 13.4577L4.00095 13.4575L4.0009 13.4574L4.00085 13.4573L4.0008 13.4571L4.00075 13.457L4.0007 13.4568L4.00065 13.4567L4.00061 13.4566L4.00056 13.4564L4.00051 13.4563L4.00046 13.4561L4.00041 13.456L4.00036 13.4559L4.00031 13.4557L4.00026 13.4556L4.00021 13.4554L4.00016 13.4553L4.00011 13.4552L4.00006 13.455L4.00001 13.4549L3.99996 13.4547L3.99991 13.4546L3.99986 13.4544L3.99981 13.4543L3.99976 13.4542L3.99971 13.454L3.99966 13.4539L3.99961 13.4537L3.99956 13.4536L3.99951 13.4535L3.99946 13.4533L3.99941 13.4532L3.99936 13.453L3.99931 13.4529L3.99926 13.4527L3.99921 13.4526L3.99916 13.4525L3.99911 13.4523L3.99906 13.4522L3.99901 13.452L3.99896 13.4519L3.99891 13.4517L3.99886 13.4516L3.99881 13.4514L3.99876 13.4513L3.99871 13.4512L3.99866 13.451L3.99861 13.4509L3.99855 13.4507L3.9985 13.4506L3.99845 13.4504L3.9984 13.4503L3.99835 13.4502L3.9983 13.45L3.99825 13.4499L3.9982 13.4497L3.99815 13.4496L3.9981 13.4494L3.99805 13.4493L3.998 13.4491L3.99795 13.449L3.99789 13.4489L3.99784 13.4487L3.99779 13.4486L3.99774 13.4484L3.99769 13.4483L3.99764 13.4481L3.99759 13.448L3.99754 13.4478L3.99749 13.4477L3.99743 13.4475L3.99738 13.4474L3.99733 13.4472L3.99728 13.4471L3.99723 13.447L3.99718 13.4468L3.99713 13.4467L3.99707 13.4465L3.99702 13.4464L3.99697 13.4462L3.99692 13.4461L3.99687 13.4459L3.99682 13.4458L3.99677 13.4456L3.99671 13.4455L3.99666 13.4453L3.99661 13.4452L3.99656 13.445L3.99651 13.4449L3.99645 13.4448L3.9964 13.4446L3.99635 13.4445L3.9963 13.4443L3.99625 13.4442L3.99619 13.444L3.99614 13.4439L3.99609 13.4437L3.99604 13.4436L3.99599 13.4434L3.99593 13.4433L3.99588 13.4431L3.99583 13.443L3.99578 13.4428L3.99573 13.4427L3.99567 13.4425L3.99562 13.4424L3.99557 13.4422L3.99552 13.4421L3.99546 13.4419L3.99541 13.4418L3.99536 13.4416L3.99531 13.4415L3.99525 13.4413L3.9952 13.4412L3.99515 13.441L3.9951 13.4409L3.99504 13.4407L3.99499 13.4406L3.99494 13.4404L3.99488 13.4403L3.99483 13.4401L3.99478 13.44L3.99473 13.4398L3.99467 13.4397L3.99462 13.4395L3.99457 13.4394L3.99451 13.4392L3.99446 13.4391L3.99441 13.4389L3.99436 13.4388L3.9943 13.4386L3.99425 13.4385L3.9942 13.4383L3.99414 13.4382L3.99409 13.438L3.99404 13.4379L3.99398 13.4377L3.99393 13.4376L3.99388 13.4374L3.99382 13.4373L3.99377 13.4371L3.99372 13.437L3.99366 13.4368L3.99361 13.4367L3.99355 13.4365L3.9935 13.4363L3.99345 13.4362L3.99339 13.436L3.99334 13.4359L3.99329 13.4357L3.99323 13.4356L3.99318 13.4354L3.99312 13.4353L3.99307 13.4351L3.99302 13.435L3.99296 13.4348L3.99291 13.4347L3.99285 13.4345L3.9928 13.4344L3.99275 13.4342L3.99269 13.434L3.99264 13.4339L3.99258 13.4337L3.99253 13.4336L3.99248 13.4334L3.99242 13.4333L3.99237 13.4331L3.99231 13.433L3.99226 13.4328L3.9922 13.4327L3.99215 13.4325L3.9921 13.4323L3.99204 13.4322L3.99199 13.432L3.99193 13.4319L3.99188 13.4317L3.99182 13.4316L3.99177 13.4314L3.99171 13.4313L3.99166 13.4311L3.9916 13.4309L3.99155 13.4308L3.99149 13.4306L3.99144 13.4305L3.99138 13.4303L3.99133 13.4302L3.99127 13.43L3.99122 13.4299L3.99116 13.4297L3.99111 13.4295L3.99105 13.4294L3.991 13.4292L3.99094 13.4291L3.99089 13.4289L3.99083 13.4288L3.99078 13.4286L3.99072 13.4284L3.99067 13.4283L3.99061 13.4281L3.99056 13.428L3.9905 13.4278L3.99044 13.4276L3.99039 13.4275L3.99033 13.4273L3.99028 13.4272L3.99022 13.427L3.99017 13.4269L3.99011 13.4267L3.99005 13.4265L3.99 13.4264L3.98994 13.4262L3.98989 13.4261L3.98983 13.4259L3.98977 13.4257L3.98972 13.4256L3.98966 13.4254L3.98961 13.4253L3.98955 13.4251L3.98949 13.4249L3.98944 13.4248L3.98938 13.4246L3.98933 13.4245L3.98927 13.4243L3.98921 13.4241L3.98916 13.424L3.9891 13.4238L3.98904 13.4237L3.98899 13.4235L3.98893 13.4233L3.98887 13.4232L3.98882 13.423L3.98876 13.4229L3.98871 13.4227L3.98865 13.4225L3.98859 13.4224L3.98853 13.4222L3.98848 13.4221L3.98842 13.4219L3.98836 13.4217L3.98831 13.4216L3.98825 13.4214L3.98819 13.4212L3.98814 13.4211L3.98808 13.4209L3.98802 13.4208L3.98797 13.4206L3.98791 13.4204L3.98785 13.4203L3.98779 13.4201L3.98774 13.4199L3.98768 13.4198L3.98762 13.4196L3.98756 13.4195L3.98751 13.4193L3.98745 13.4191L3.98739 13.419L3.98733 13.4188L3.98728 13.4186L3.98722 13.4185L3.98716 13.4183L3.9871 13.4181L3.98705 13.418L3.98699 13.4178L3.98693 13.4176L3.98687 13.4175L3.98682 13.4173L3.98676 13.4172L3.9867 13.417L3.98664 13.4168L3.98658 13.4167L3.98653 13.4165L3.98647 13.4163L3.98641 13.4162L3.98635 13.416L3.98629 13.4158L3.98623 13.4157L3.98618 13.4155L3.98612 13.4153L3.98606 13.4152L3.986 13.415L2.95931 10.4931L2.95934 10.4931L2.95861 10.4912C2.85894 10.2367 2.86392 9.9531 2.97247 9.70222C3.08085 9.45171 3.28372 9.25413 3.53697 9.15238ZM9.67851 16.9811L9.67849 16.9812L9.67943 16.9824C9.70383 17.016 9.7262 17.051 9.74642 17.0872C9.81269 17.2079 9.85445 17.3406 9.8693 17.4776C9.88413 17.6143 9.87184 17.7526 9.83314 17.8846C9.82033 17.9235 9.80834 17.9598 9.79362 17.9943C9.73838 18.1174 9.65796 18.2275 9.55754 18.3176C9.45701 18.4078 9.33867 18.4759 9.21017 18.5175C8.99966 18.5852 8.77295 18.5835 8.56352 18.5125C8.35407 18.4415 8.17302 18.305 8.04709 18.1232C8.04708 18.1232 8.04707 18.1231 8.04707 18.1231L6.03024 15.1895L7.98085 14.5041L9.67851 16.9811ZM1.74336 12.4369L1.74343 12.4368L1.74232 12.4341C1.66817 12.2535 1.63994 12.0574 1.66016 11.8632C1.67635 11.7078 1.72316 11.5575 1.79748 11.4209L2.42938 13.2193C2.28597 13.1592 2.15545 13.0713 2.04562 12.9602C1.90837 12.8213 1.80769 12.6506 1.75257 12.4633L1.75264 12.4633L1.75167 12.4605L1.74336 12.4369ZM8.2904 7.29808L14.2085 2.1247L17.9998 12.9145L10.1464 12.5801L8.2904 7.29808Z" fill="white" stroke="white" stroke-width="0.11329"/>
</svg>
