<?xml version="1.0" encoding="utf-8"?>
<svg viewBox="0 0 500 500" xmlns="http://www.w3.org/2000/svg">
  <path d="M 184.177 71.281 C 180.156 96.776 178.53 120.389 178.359 141.607 C 198.384 127.642 257.528 108.092 333.897 141.607 C 333.726 120.389 332.1 96.776 328.079 71.281 C 327.48 67.773 326.882 64.18 326.283 60.757 C 324.315 49.721 315.332 41.508 304.552 40.909 C 292.489 40.139 268.362 38 256.299 38 C 244.065 38 207.704 40.909 207.704 40.909 C 196.924 41.508 187.941 49.721 185.973 60.757 C 185.374 64.18 184.776 67.687 184.177 71.281 Z" fill="#19C92B"/>
  <path d="M 195.119 202.945 C 189.473 182.754 183.912 162.649 178.265 142.458 C 178.436 121.241 180.062 97.628 184.083 72.132 C 184.682 68.539 185.281 65.031 185.88 61.609 C 187.847 50.573 196.831 42.359 207.61 41.76 C 207.61 41.76 243.971 38.852 256.205 38.852 C 268.269 38.852 292.395 40.99 304.458 41.76 C 315.238 42.359 324.221 50.573 326.189 61.609 C 326.788 65.031 327.387 68.624 327.986 72.132 C 332.007 97.628 333.632 121.241 333.803 142.458 C 328.157 162.649 322.596 182.754 316.949 202.945" stroke="#8599A7" stroke-width="1.85687" stroke-linejoin="round" style="fill: rgb(25, 201, 43);"/>
  <path d="M 251.757 38.852 C 237.897 38.852 224.123 38.852 210.263 38.852 L 215.396 29.868 C 216.936 27.131 215.054 23.708 212.06 23.708 L 171.336 23.708 C 171.421 18.147 172.106 11.132 173.902 3.432 C 174.758 -0.247 175.784 -3.498 176.897 -6.492 C 177.667 -8.631 179.634 -10 181.773 -10 L 256.12 -10 L 255.863 -10 L 330.21 -10 C 332.349 -10 334.317 -8.631 335.087 -6.492 C 336.199 -3.498 337.226 -0.161 338.081 3.432 C 339.963 11.132 340.562 18.147 340.648 23.708 L 299.924 23.708 C 296.93 23.708 295.047 27.131 296.587 29.868 L 301.721 38.852 C 287.861 38.852 274.087 38.852 260.227 38.852" style="fill: rgb(25, 201, 43); stroke: rgb(133, 153, 167);"/>
  <path d="M 419.101 137.24 C 434.158 137.24 446.392 124.663 446.392 109.263 C 446.392 93.778 434.158 81.287 419.101 81.287 C 404.043 81.287 391.809 93.864 391.809 109.263 C 391.723 124.663 403.957 137.24 419.101 137.24 Z" stroke="#8599A7" stroke-width="1.85687" stroke-linejoin="round" style="fill: none;"/>
  <path d="M 439.892 109.263 C 439.892 120.982 430.584 130.481 419.102 130.481 C 407.62 130.481 398.312 120.982 398.312 109.263 C 398.312 97.545 407.62 88.046 419.102 88.046 C 430.584 88.046 439.892 97.545 439.892 109.263 Z" stroke="#8599A7" stroke-width="1.14686" stroke-linejoin="round" style="fill: none; fill-opacity: 0;"/>
  <path d="M 446.478 356.686 C 446.478 372.137 434.259 384.663 419.186 384.663 C 404.113 384.663 391.894 372.137 391.894 356.686 C 391.894 341.235 404.113 328.71 419.186 328.71 C 434.259 328.71 446.478 341.235 446.478 356.686 Z" stroke="#8599A7" stroke-width="1.85687" stroke-linejoin="round" style="fill: none;"/>
  <path d="M 439.978 356.686 C 439.978 368.404 430.67 377.904 419.188 377.904 C 407.706 377.904 398.398 368.404 398.398 356.686 C 398.398 344.968 407.706 335.469 419.188 335.469 C 430.67 335.469 439.978 344.968 439.978 356.686 Z" stroke="#8599A7" stroke-width="1.14686" stroke-linejoin="round" style="fill: none;"/>
  <path d="M 431.121 75.609 L 431.121 41.302 C 427.357 39.078 421.026 36.083 412.727 34.714 C 404.428 33.345 397.584 34.201 393.306 35.142 C 390.654 36.169 387.745 37.538 384.665 39.249 C 382.869 40.275 381.243 41.302 379.703 42.243 C 377.65 43.612 376.195 45.58 375.511 47.89 C 372.688 57.215 370.036 66.883 367.554 77.064 C 362.935 95.629 359.427 113.339 356.775 129.936 C 352.155 137.551 345.824 148.502 338.723 161.934 C 328.969 180.585 322.382 192.905 317.762 207.278 C 313.313 221.138 310.746 251.338 310.404 266.225 C 310.147 278.288 311.003 300.104 312.286 322.691 C 312.543 326.712 313.826 332.444 316.393 339.288 C 317.077 341.17 319.473 347.502 325.975 357.511 C 335.129 371.713 339.835 376.333 344.369 382.664 C 347.193 386.6 350.957 393.53 351.128 400.631 C 351.385 411.069 351.727 421.592 351.984 432.029 C 352.069 435.623 354.892 438.532 358.486 438.703 C 361.822 438.874 365.33 438.959 369.009 439.045 C 375.34 439.045 381.329 438.788 386.719 438.275 C 387.403 439.729 388.772 441.868 391.082 443.579 C 394.675 446.231 398.696 446.146 406.567 445.889 C 417.091 445.547 419.657 443.408 420.513 442.553 C 422.053 441.098 422.908 439.473 423.336 438.189 C 424.277 422.105 425.218 406.106 426.159 390.022 C 423.25 390.621 415.208 391.904 406.225 388.054 C 403.402 386.857 395.531 383.092 390.398 374.109 C 389.285 372.227 386.034 366.152 386.034 357.683 C 386.034 354.26 386.462 345.79 392.451 337.748 C 393.221 336.722 398.097 330.22 406.824 326.712 C 411.273 324.915 415.551 324.316 423.422 323.204 C 426.673 322.776 429.41 322.52 431.293 322.349 L 431.293 143.112 C 413.497 146.705 396.301 138.92 389.029 124.889 C 388.686 124.204 381.329 109.403 388.858 94.431 C 395.787 80.229 413.069 72.187 431.121 75.609 Z" stroke="#8599A7" stroke-width="1.85687" stroke-linejoin="round" style="fill: none;"/>
  <path d="M 431.121 41.302 L 431.121 75.609 C 413.069 72.187 395.787 80.229 388.858 94.431 C 381.329 109.403 388.686 124.204 389.029 124.889 C 396.005 138.349 412.115 146.062 429.125 143.494 C 429.868 143.368 430.592 143.24 431.293 143.112 C 430.569 143.258 429.846 143.385 429.125 143.494 C 405.228 147.55 360.492 150.073 356.775 129.936 C 359.427 113.339 362.935 95.629 367.554 77.064 C 370.036 66.883 372.688 57.215 375.511 47.89 C 376.195 45.58 377.65 43.612 379.703 42.243 C 381.243 41.302 382.869 40.275 384.665 39.249 C 387.745 37.538 390.654 36.169 393.306 35.142 C 397.584 34.201 404.428 33.345 412.727 34.714 C 421.026 36.083 427.357 39.078 431.121 41.302 Z" stroke="#8599A7" stroke-width="1.85687" stroke-linejoin="round" style="fill: rgb(25, 201, 43);"/>
  <path d="M 351.128 400.631 C 350.957 393.53 347.193 386.6 344.37 382.664 C 362.181 372.81 382.477 372.855 390.398 374.109 C 395.531 383.092 403.402 386.856 406.226 388.054 C 415.209 391.904 423.251 390.621 426.16 390.022 C 425.219 406.106 424.278 422.105 423.336 438.189 C 422.909 439.473 422.053 441.098 420.513 442.552 C 419.658 443.408 417.091 445.547 406.568 445.889 C 398.697 446.146 394.676 446.231 391.082 443.579 C 388.772 441.868 387.404 439.729 386.719 438.275 C 381.329 438.788 375.34 439.045 369.009 439.045 C 365.331 438.959 361.823 438.874 358.486 438.703 C 354.893 438.531 352.07 435.623 351.984 432.029 C 351.727 421.592 351.385 411.068 351.128 400.631 Z" fill="#19C92B" stroke="#8599A7" stroke-width="1.85687" stroke-linejoin="round"/>
  <path d="M 388.472 369.861 C 387.873 392.448 387.188 415.12 386.589 437.706" stroke="#8599A7" stroke-width="1.14686" stroke-linejoin="round"/>
  <path d="M 366.227 157.43 L 415.592 157.43 C 419.185 157.43 422.094 160.424 422.094 164.188 L 422.094 315.705 C 422.094 317.673 420.554 319.213 418.672 319.213 C 416.875 319.213 414.822 319.299 412.512 319.555 C 408.833 319.983 401.39 321.01 393.775 325.972 C 386.589 330.677 382.397 337.009 380.087 341.286 C 379.146 343.083 377.435 344.366 375.381 344.708 C 372.986 345.051 370.162 345.307 367.082 345.307 C 362.719 345.307 358.955 344.709 355.96 344.024 L 353.394 341.885 L 317.974 329.394 C 316.862 311.941 316.263 293.376 316.263 273.784 C 316.263 263.432 316.177 258.213 316.52 254.448 C 317.803 237.936 319.086 222.879 335.769 191.224 C 336.882 189.085 338.251 186.689 339.534 184.465 C 345.865 173.257 349.03 167.611 352.453 164.531 C 355.105 162.221 359.383 159.226 366.227 157.43 Z" stroke="#8599A7" stroke-width="1.23789" stroke-miterlimit="10"/>
  <path d="M 316.369 262.215 C 316.348 265.285 316.369 269.178 316.369 274.354 C 316.369 293.946 316.968 312.511 318.08 329.964 L 353.5 342.456 L 356.066 344.594 C 359.061 345.279 362.825 345.878 367.188 345.878 C 370.268 345.878 373.092 345.621 375.487 345.279 C 377.54 344.937 379.251 343.653 380.193 341.857 C 382.503 337.579 386.695 331.248 393.881 326.542 C 401.496 321.58 408.939 320.553 412.618 320.126 C 414.928 319.869 416.981 319.784 418.778 319.784 C 420.66 319.784 422.2 318.244 422.2 316.276 L 422.2 255.019 M 316.369 262.215 C 316.39 259.146 316.454 256.901 316.626 255.019 C 317.909 238.507 319.192 223.449 335.875 191.794 C 336.988 189.655 338.356 187.26 339.64 185.035 C 345.971 173.828 349.136 168.181 352.558 165.101 C 355.211 162.791 359.403 159.797 366.333 158 L 415.698 158 C 419.291 158 422.2 160.994 422.2 164.759 L 422.2 255.019 M 316.369 262.215 C 341.352 257.418 397.494 249.261 422.2 255.019" stroke="#8599A7" stroke-width="1.23789" stroke-miterlimit="10"/>
  <path d="M 418.778 319.215 C 420.66 319.215 422.2 317.675 422.2 315.707 L 422.2 254.45 C 397.494 248.693 341.352 256.849 316.369 261.646 C 316.348 264.716 316.369 268.609 316.369 273.785 C 316.369 293.377 316.968 311.943 318.08 329.396 L 353.5 341.887 L 356.066 344.026 C 359.061 344.71 362.825 345.309 367.188 345.309 C 370.268 345.309 373.092 345.052 375.487 344.71 C 377.54 344.368 379.251 343.084 380.193 341.288 C 382.503 337.01 386.695 330.679 393.881 325.973 C 401.496 321.011 408.939 319.985 412.618 319.557 C 414.928 319.3 416.981 319.215 418.778 319.215 Z" fill="#F23A00"/>
  <path d="M 316.626 254.45 C 316.454 256.332 316.39 258.578 316.369 261.646 M 316.369 261.646 C 316.348 264.716 316.369 268.609 316.369 273.785 C 316.369 293.377 316.968 311.943 318.08 329.396 L 353.5 341.887 L 356.066 344.026 C 359.061 344.71 362.825 345.309 367.188 345.309 C 370.268 345.309 373.092 345.052 375.487 344.71 C 377.54 344.368 379.251 343.084 380.193 341.288 C 382.503 337.01 386.695 330.679 393.881 325.973 C 401.496 321.011 408.939 319.985 412.618 319.557 C 414.928 319.3 416.981 319.215 418.778 319.215 C 420.66 319.215 422.2 317.675 422.2 315.707 L 422.2 254.45 C 397.494 248.693 341.352 256.849 316.369 261.646 Z" stroke="#8599A7" stroke-width="1.24" stroke-miterlimit="10" style="fill: rgb(25, 201, 43);"/>
  <path d="M 415.698 157.431 L 366.333 157.431 C 359.403 159.227 355.211 162.222 352.558 164.532 C 349.184 167.568 346.06 173.1 339.905 183.996 L 339.64 184.466 C 338.356 186.69 336.988 189.086 335.875 191.225 C 319.192 222.88 317.909 237.937 316.626 254.449 C 316.454 256.331 316.39 258.577 316.369 261.646 C 341.352 256.848 397.494 248.692 422.2 254.449 L 422.2 164.189 C 422.2 160.425 419.291 157.431 415.698 157.431 Z" stroke-width="1.23789" stroke-miterlimit="10" stroke="#8599A7" style="fill: rgb(25, 201, 43);"/>
  <path d="M 320.37 264.886 L 320.113 274.468 C 320.113 291.921 321.054 309.631 322.166 327.084 L 357.671 339.062 L 357.671 261.892 L 320.37 264.886 Z" fill="#F5F5F5" stroke="#8599A7" stroke-width="1.23789" stroke-miterlimit="10"/>
  <path d="M 319.257 202.09 C 320.455 204.058 321.482 206.196 322.68 208.164 C 327.471 198.325 333.374 187.973 339.619 177.193 C 345.437 167.183 352.025 158.029 357.586 149.559 L 357.586 128.77 C 352.624 137.753 346.72 147.164 341.587 156.917 C 333.459 172.488 325.76 187.545 319.257 202.09 Z" fill="#F5F5F5" stroke="#8599A7" stroke-width="1.23789" stroke-miterlimit="10"/>
  <path d="M 319.773 256.759 L 356.647 248.032 L 360.411 164.018 C 358.871 164.873 357.417 165.9 356.134 167.098 C 353.054 169.835 349.888 175.14 343.472 186.176 C 342.188 188.486 340.819 190.796 339.622 192.849 C 322.682 223.906 321.484 238.193 320.115 254.791 C 320.03 255.646 320.03 256.502 319.944 257.529" fill="#F5F5F5"/>
  <path d="M 319.773 256.759 L 356.647 248.032 L 360.411 164.018 C 358.871 164.873 357.417 165.9 356.134 167.098 C 353.054 169.835 349.888 175.14 343.472 186.176 C 342.188 188.486 340.819 190.796 339.622 192.849 C 322.682 223.906 321.484 238.193 320.115 254.791 C 320.03 255.646 320.03 256.502 319.944 257.529" stroke="#8599A7" stroke-width="1.23789" stroke-miterlimit="10" style="fill: none;"/>
  <path d="M 321.91 335.726 L 356.046 346.249 L 356.046 367.894 C 356.046 371.487 351.768 373.37 349.116 370.888 C 345.437 367.466 341.502 363.445 337.652 358.825 C 330.551 350.527 325.503 342.484 321.91 335.726 Z" fill="#F5F5F5" stroke="#8599A7" stroke-width="1.23789" stroke-miterlimit="10"/>
  <path d="M 393.179 34.659 L 391.126 55.192 C 389.073 55.62 386.506 56.304 383.683 57.502 C 380.774 58.7 378.378 60.154 376.582 61.438 C 377.181 55.192 377.694 49.032 378.293 42.787 C 380.004 41.589 381.972 40.306 384.11 39.108 C 387.276 37.14 390.442 35.771 393.179 34.659 Z" fill="#F5F5F5" stroke="#8599A7" stroke-width="1.23789" stroke-miterlimit="10"/>
  <path d="M 391.039 55.277 C 391.381 66.314 391.723 77.35 392.065 88.387" stroke="#8599A7" stroke-width="1.23789" stroke-miterlimit="10"/>
  <path d="M 317.207 261.806 L 355.278 254.962 C 362.379 254.021 369.908 253.251 377.865 252.823 C 394.206 251.967 409.092 252.566 422.182 254.021" stroke="#8599A7" stroke-width="1.23789" stroke-miterlimit="10" style="fill: none;"/>
  <path d="M 355.277 168.638 L 344.84 184.551 C 344.07 185.749 344.326 187.374 345.524 188.23 C 346.636 189 348.176 189.855 350.059 190.283 C 353.138 190.967 355.876 190.369 357.587 189.77 C 358.614 189.427 359.298 188.486 359.384 187.374 C 359.726 181.642 359.983 175.91 360.325 170.263 C 360.411 168.98 359.555 167.782 358.272 167.526 C 357.074 167.269 355.962 167.697 355.277 168.638 Z" fill="white" stroke="#8599A7" stroke-width="1.73214" stroke-miterlimit="10"/>
  <path d="M 357.586 437.706 L 357.928 425.643 C 358.013 424.103 359.211 422.82 360.837 422.734 C 362.377 422.649 364.088 422.648 365.799 422.648 C 368.28 422.648 370.59 422.82 372.729 423.076 C 374.098 423.247 375.21 424.274 375.381 425.643 L 377.006 437.706 C 373.328 437.963 369.307 438.048 365.2 437.963 C 362.548 437.963 360.067 437.877 357.586 437.706 Z" fill="#F5F5F5" stroke="#8599A7" stroke-width="1.23789" stroke-miterlimit="10"/>
  <path d="M 376.582 61.352 C 373.331 75.811 370.422 91.125 367.856 107.295 C 366.661 114.731 365.672 122.014 364.769 129.141 C 364.508 131.198 364.255 133.241 364.006 135.272 C 363.835 136.213 363.578 137.41 363.065 138.779 C 362.466 140.405 361.781 141.517 361.439 142.03 C 360.498 143.485 359.215 145.88 357.504 149.645" stroke="#8599A7" stroke-width="1.23789" stroke-miterlimit="10" style="fill: none;"/>
  <path d="M 371.103 234.856 C 371.103 240.29 370.222 244.695 369.135 244.695 C 368.049 244.695 367.168 240.29 367.168 234.856 C 367.168 229.423 368.049 225.018 369.135 225.018 C 370.222 225.018 371.103 229.423 371.103 234.856 Z" stroke="white" stroke-width="1.54742" stroke-miterlimit="10" style="fill: none;"/>
  <path d="M 369.135 335.384 C 368.023 335.384 367.168 331.02 367.168 325.545 C 367.168 320.155 368.023 315.706 369.135 315.706 C 370.248 315.706 371.103 320.069 371.103 325.545 C 371.103 331.02 370.248 335.384 369.135 335.384 Z" stroke="white" stroke-width="1.54742" stroke-miterlimit="10" style="fill: none;"/>
  <path d="M 333.374 23.709 C 333.631 23.709 336.112 38.852 336.112 38.852 L 299.751 38.852 L 294.704 29.184 C 293.42 26.703 295.217 23.794 297.955 23.794 L 333.374 23.709 Z" fill="#F5F5F5" stroke="#8599A7" stroke-width="1.23789" stroke-miterlimit="10"/>
  <path d="M 195.718 0.952 L 195.718 0.866 C 195.718 -0.674 197.002 -1.957 198.542 -1.957 L 314.126 -1.957 C 315.666 -1.957 316.949 -0.674 316.949 0.866 L 316.949 0.952 C 316.949 2.492 315.666 3.775 314.126 3.775 L 198.542 3.775 C 197.002 3.861 195.718 2.577 195.718 0.952 Z" stroke="#8599A7" stroke-width="1.23789" stroke-miterlimit="10" style="fill: rgb(25, 201, 43);"/>
  <path d="M 255.949 33.633 L 287.946 33.633 C 289.144 33.633 289.828 32.178 289.058 31.152 L 288.288 30.125 C 284.096 24.735 277.936 21.398 271.263 21.056 L 271.178 21.056 C 265.959 20.8 260.911 20.628 255.949 20.543" stroke="#8599A7" stroke-width="1.23789" stroke-miterlimit="10" style="fill: rgb(25, 201, 43);"/>
  <path d="M 256.205 197.47 C 244.656 197.47 232.336 197.983 219.16 199.181 C 210.862 199.951 202.819 200.977 195.205 202.09 C 189.558 182.241 183.912 162.392 178.265 142.458 L 178.436 142.287 C 191.697 131.422 212.487 126.203 224.721 124.748 C 232.421 123.807 248.078 123.722 255.863 123.722 C 263.734 123.722 279.476 123.807 287.262 124.748 C 299.496 126.288 320.286 131.422 333.547 142.287 L 333.718 142.458 C 328.071 162.307 322.425 182.155 316.778 202.09 C 309.164 200.977 301.207 199.951 292.823 199.181 C 279.733 197.983 267.327 197.47 255.778 197.47" fill="#F5F5F5"/>
  <path d="M 256.205 197.47 C 244.656 197.47 232.336 197.983 219.16 199.181 C 210.862 199.951 202.819 200.977 195.205 202.09 C 189.558 182.241 183.912 162.392 178.265 142.458 L 178.436 142.287 C 191.697 131.422 212.487 126.203 224.721 124.748 C 232.421 123.807 248.078 123.722 255.863 123.722 C 263.734 123.722 279.476 123.807 287.262 124.748 C 299.496 126.288 320.286 131.422 333.547 142.287 L 333.718 142.458 C 328.071 162.307 322.425 182.155 316.778 202.09 C 309.164 200.977 301.207 199.951 292.823 199.181 C 279.733 197.983 267.327 197.47 255.778 197.47" stroke="#8599A7" stroke-width="1.23789" stroke-miterlimit="10" style="fill: none;"/>
  <path d="M 176.726 23.709 C 176.469 23.709 173.988 38.852 173.988 38.852 L 210.349 38.852 L 215.396 29.184 C 216.68 26.703 214.883 23.794 212.145 23.794 L 176.726 23.794 L 176.726 23.709 Z" fill="#F5F5F5" stroke="#8599A7" stroke-width="1.23789" stroke-miterlimit="10"/>
  <path d="M 256.205 33.633 L 224.207 33.633 C 223.01 33.633 222.325 32.178 223.095 31.152 L 223.865 30.125 C 228.057 24.735 234.217 21.398 240.89 21.056 L 240.976 21.056 C 246.195 20.8 251.243 20.628 256.205 20.543" stroke="#8599A7" stroke-width="1.23789" stroke-miterlimit="10" style="fill: rgb(25, 201, 43);"/>
  <path d="M 182.959 385.849 C 182.318 385.686 181.695 386.173 181.704 386.835 C 181.874 400.346 182.12 413.933 182.286 427.44 C 182.372 432.745 186.05 437.108 190.841 437.45 C 201.707 438.306 212.915 439.076 224.379 439.589 C 235.244 440.102 245.853 440.359 256.205 440.53 L 255.948 440.53 C 266.301 440.359 276.909 440.102 287.775 439.589 C 299.239 439.076 310.447 438.306 321.312 437.45 C 326.103 437.022 329.782 432.745 329.868 427.44 C 330.032 414.053 330.275 400.588 330.445 387.195" fill="#19C92B"/>
  <path d="M 182.286 427.44 C 182.12 413.933 181.874 400.346 181.704 386.835 C 181.695 386.173 182.318 385.686 182.959 385.849 C 196.282 389.254 226.809 395.275 252.359 394.5 C 275.152 394.198 320.331 392.194 329.227 386.622 C 329.648 386.359 330.452 386.698 330.445 387.195 C 330.275 400.588 330.032 414.053 329.868 427.44 C 329.782 432.745 326.103 437.022 321.312 437.45 C 310.447 438.306 299.239 439.076 287.775 439.589 C 276.909 440.102 266.301 440.359 255.948 440.53 L 256.205 440.53 C 245.853 440.359 235.244 440.102 224.379 439.589 C 212.915 439.076 201.707 438.306 190.841 437.45 C 186.05 437.108 182.372 432.745 182.286 427.44 Z" stroke="#8599A7" stroke-width="1.85687" stroke-miterlimit="10" stroke-linecap="round" style="fill: rgb(25, 201, 43);"/>
  <path d="M 319.858 345.992 L 330.758 385.368 C 330.833 385.638 330.672 385.917 330.4 385.985 C 318.356 389.01 304.158 391.527 288.545 392.962 C 276.824 393.988 265.873 394.074 256.034 393.817 C 247.992 393.646 235.586 393.988 223.865 392.962 C 208.264 391.528 194.241 389.013 182.208 385.992 C 181.926 385.921 181.766 385.625 181.858 385.349 L 194.777 346.762 C 194.948 350.355 241.062 354.633 256.376 354.804 C 272.204 354.89 308.65 351.211 319.772 345.907 C 319.858 345.821 319.858 345.907 319.858 345.992 Z" fill="#F5F5F5" stroke="#8599A7" stroke-width="1.23789" stroke-miterlimit="10"/>
  <path d="M 184.594 509.658 C 183.397 509.914 182.284 510 182.284 510 C 180.916 510 179.975 510 179.376 509.572 C 178.691 509.059 178.52 508.289 178.435 507.947 C 177.408 505.294 176.467 502.386 175.526 499.391 C 174.756 496.825 174.071 494.258 173.472 491.862 C 172.873 490.066 172.617 488.184 172.617 486.301 L 172.617 479.371 C 172.617 477.575 173.986 476.12 175.782 476.12 L 176.809 476.12 C 177.579 476.12 178.178 475.522 178.178 474.666 L 178.178 440.872 L 255.861 440.615 L 255.605 440.615 L 333.288 440.872 L 333.288 474.58 C 333.288 475.35 333.887 476.035 334.657 476.035 L 335.684 476.035 C 337.395 476.035 338.849 477.489 338.849 479.286 L 338.849 486.216 C 338.849 488.098 338.593 489.98 337.994 491.777 C 337.395 494.172 336.71 496.654 335.94 499.306 C 334.999 502.3 334.058 505.209 333.031 507.861 C 332.946 508.203 332.775 508.973 332.09 509.487 C 331.406 510 330.465 509.914 329.182 509.914 C 329.182 509.914 328.069 509.829 326.872 509.572 C 323.792 508.973 320.712 508.717 317.632 508.717 L 194.005 508.717 C 190.754 508.802 187.674 509.059 184.594 509.658 Z" fill="#19C92B" stroke="#8599A7" stroke-width="1.85687" stroke-linejoin="round"/>
  <path d="M 333.203 446.348 C 333.118 453.449 333.118 460.635 333.032 467.736 C 326.359 467.736 319.686 467.651 313.098 467.651 C 310.788 467.651 309.077 466.025 309.847 464.571 L 317.547 449.085 C 318.317 447.545 320.456 446.519 322.937 446.519 C 326.359 446.433 329.781 446.348 333.203 446.348 Z" fill="#F5F5F5" stroke="#8599A7" stroke-width="1.23789" stroke-miterlimit="10"/>
  <path d="M 310.701 462.688 L 307.193 469.276 C 305.91 471.672 303.343 473.212 300.691 473.212 L 256.117 473.212" stroke="#8599A7" stroke-width="1.23789" stroke-miterlimit="10" style="fill: rgb(25, 201, 43);"/>
  <path d="M 177.836 446.348 C 177.921 453.449 177.921 460.635 178.007 467.736 C 184.765 467.736 191.524 467.651 198.283 467.651 C 200.679 467.651 202.39 466.025 201.62 464.571 L 193.749 449.085 C 192.979 447.545 190.754 446.519 188.273 446.519 C 184.765 446.433 181.343 446.348 177.836 446.348 Z" fill="#F5F5F5" stroke="#8599A7" stroke-width="1.23789" stroke-miterlimit="10"/>
  <path d="M 200.679 462.688 L 204.273 469.276 C 205.556 471.672 208.123 473.212 210.946 473.212 L 256.29 473.212" stroke="#8599A7" stroke-width="1.23789" stroke-miterlimit="10" style="fill: rgb(25, 201, 43);"/>
  <path d="M 121.029 109.263 C 121.029 124.714 108.81 137.24 93.737 137.24 C 78.664 137.24 66.445 124.714 66.445 109.263 C 66.445 93.813 78.664 81.287 93.737 81.287 C 108.81 81.287 121.029 93.813 121.029 109.263 Z" stroke="#8599A7" stroke-width="1.85687" stroke-linejoin="round" style="fill: none;"/>
  <path d="M 93.739 130.481 C 82.274 130.481 72.949 120.984 72.949 109.263 C 72.949 97.542 82.274 88.046 93.739 88.046 C 105.203 88.046 114.528 97.542 114.528 109.263 C 114.528 120.984 105.203 130.481 93.739 130.481 Z" stroke="#8599A7" stroke-width="1.14686" stroke-linejoin="round" style="fill: none;"/>
  <path d="M 120.943 356.687 C 120.943 372.138 108.724 384.664 93.651 384.664 C 78.578 384.664 66.359 372.138 66.359 356.687 C 66.359 341.236 78.578 328.711 93.651 328.711 C 108.724 328.711 120.943 341.236 120.943 356.687 Z" stroke="#8599A7" stroke-width="1.85687" stroke-linejoin="round" style="fill: none;"/>
  <path d="M 114.443 356.687 C 114.443 368.405 105.135 377.905 93.653 377.905 C 82.171 377.905 72.863 368.405 72.863 356.687 C 72.863 344.969 82.171 335.47 93.653 335.47 C 105.135 335.47 114.443 344.969 114.443 356.687 Z" stroke="#8599A7" stroke-width="1.14686" stroke-linejoin="round" style="fill: none;"/>
  <path d="M 81.843 75.127 L 81.843 40.82 C 85.607 38.595 91.938 35.601 100.237 34.232 C 108.536 32.863 115.38 33.719 119.658 34.66 C 122.31 35.686 125.219 37.055 128.299 38.766 C 130.095 39.793 131.721 40.82 133.261 41.761 C 135.314 43.13 136.769 45.097 137.453 47.407 C 140.276 56.733 142.929 66.4 145.41 76.581 C 150.03 95.147 153.537 112.856 156.19 129.454 C 160.81 137.068 167.14 148.019 174.241 161.451 C 183.995 180.102 190.582 192.422 195.202 206.795 C 199.651 220.655 202.218 250.856 202.56 265.742 C 202.817 277.806 201.961 299.622 200.678 322.208 C 200.421 326.229 199.138 331.962 196.571 338.806 C 195.887 340.688 193.491 347.019 186.989 357.029 C 177.835 371.231 173.129 375.851 168.595 382.182 C 165.772 386.118 162.007 393.047 161.836 400.148 C 161.58 410.586 161.237 421.109 160.981 431.547 C 160.895 435.14 158.072 438.049 154.479 438.22 C 151.142 438.391 147.634 438.477 143.955 438.562 C 137.624 438.562 131.635 438.306 126.246 437.792 C 125.561 439.247 124.192 441.386 121.882 443.097 C 118.289 445.749 114.268 445.664 106.397 445.407 C 95.874 445.065 93.307 442.926 92.452 442.07 C 90.912 440.616 90.056 438.99 89.628 437.707 C 88.687 421.623 87.746 405.624 86.805 389.54 C 89.714 390.139 97.756 391.422 106.739 387.572 C 109.562 386.374 117.433 382.61 122.567 373.627 C 123.679 371.744 126.93 365.67 126.93 357.2 C 126.93 353.778 126.502 345.308 120.513 337.266 C 119.743 336.239 114.867 329.737 106.14 326.229 C 101.691 324.433 97.414 323.834 89.543 322.722 C 86.292 322.294 83.554 322.037 81.672 321.866 L 81.672 142.629 C 99.467 146.223 116.663 138.437 123.936 124.406 C 124.278 123.722 131.635 108.921 124.107 93.949 C 117.177 79.747 99.895 71.705 81.843 75.127 Z" stroke="#8599A7" stroke-width="1.85687" stroke-linejoin="round" style="fill: none;"/>
  <path d="M 81.843 40.82 L 81.843 75.127 C 99.895 71.705 117.177 79.747 124.107 93.949 C 131.635 108.921 124.278 123.722 123.936 124.406 C 116.959 137.867 100.849 145.579 83.839 143.012 C 83.096 142.886 82.373 142.758 81.672 142.629 C 82.395 142.776 83.118 142.903 83.839 143.012 C 107.736 147.068 152.472 149.591 156.19 129.454 C 153.537 112.856 150.03 95.147 145.41 76.581 C 142.929 66.4 140.276 56.733 137.453 47.407 C 136.769 45.097 135.314 43.13 133.261 41.761 C 131.721 40.82 130.096 39.793 128.299 38.766 C 125.219 37.055 122.31 35.686 119.658 34.66 C 115.38 33.719 108.536 32.863 100.237 34.232 C 91.938 35.601 85.607 38.595 81.843 40.82 Z" stroke="#8599A7" stroke-width="1.85687" stroke-linejoin="round" style="fill: rgb(25, 201, 43);"/>
  <path d="M 161.836 400.148 C 162.007 393.047 165.771 386.117 168.594 382.182 C 150.783 372.327 130.488 372.372 122.566 373.626 C 117.433 382.61 109.562 386.374 106.739 387.572 C 97.755 391.422 89.713 390.138 86.804 389.54 C 87.746 405.624 88.687 421.623 89.628 437.707 C 90.056 438.99 90.911 440.616 92.451 442.07 C 93.307 442.926 95.873 445.065 106.396 445.407 C 114.267 445.663 118.289 445.749 121.882 443.097 C 124.192 441.386 125.561 439.247 126.245 437.792 C 131.635 438.306 137.624 438.562 143.955 438.562 C 147.634 438.477 151.141 438.391 154.478 438.22 C 158.071 438.049 160.895 435.14 160.98 431.547 C 161.237 421.109 161.579 410.586 161.836 400.148 Z" fill="#19C92B" stroke="#8599A7" stroke-width="1.85687" stroke-linejoin="round"/>
  <path d="M 124.449 369.862 C 125.048 392.449 125.732 415.121 126.331 437.707" stroke="#8599A7" stroke-width="1.14686" stroke-linejoin="round"/>
  <path d="M 94.164 319.214 C 92.282 319.214 90.742 317.674 90.742 315.706 L 90.742 254.449 C 115.448 248.692 171.59 256.848 196.573 261.646 C 196.594 264.715 196.573 268.608 196.573 273.784 C 196.573 293.376 195.974 311.942 194.862 329.395 L 159.442 341.886 L 156.876 344.025 C 153.881 344.709 150.117 345.308 145.754 345.308 C 142.674 345.308 139.85 345.051 137.455 344.709 C 135.401 344.367 133.69 343.083 132.749 341.287 C 130.439 337.009 126.247 330.678 119.061 325.972 C 111.446 321.01 104.003 319.984 100.324 319.556 C 98.014 319.299 95.961 319.214 94.164 319.214 Z" fill="#FDB724"/>
  <path d="M 196.316 254.449 C 196.487 256.331 196.551 258.577 196.573 261.646 M 196.573 261.646 C 196.594 264.715 196.573 268.608 196.573 273.784 C 196.573 293.376 195.974 311.942 194.862 329.395 L 159.442 341.886 L 156.876 344.025 C 153.881 344.709 150.117 345.308 145.754 345.308 C 142.674 345.308 139.85 345.051 137.455 344.709 C 135.401 344.367 133.69 343.083 132.749 341.287 C 130.439 337.009 126.247 330.678 119.061 325.972 C 111.446 321.01 104.003 319.984 100.324 319.556 C 98.014 319.299 95.961 319.214 94.164 319.214 C 92.282 319.214 90.742 317.674 90.742 315.706 L 90.742 254.449 C 115.448 248.692 171.59 256.848 196.573 261.646 Z" stroke="#8599A7" stroke-width="1.24" stroke-miterlimit="10"/>
  <path d="M 196.573 261.646 C 196.594 264.715 196.573 268.608 196.573 273.785 C 196.573 293.377 195.974 311.942 194.862 329.395 L 159.442 341.886 L 156.876 344.025 C 153.881 344.709 150.117 345.308 145.754 345.308 C 142.674 345.308 139.85 345.052 137.455 344.709 C 135.401 344.367 133.69 343.084 132.749 341.287 C 130.439 337.01 126.247 330.678 119.061 325.973 C 111.446 321.011 104.003 319.984 100.324 319.556 C 98.014 319.3 95.961 319.214 94.164 319.214 C 92.282 319.214 90.742 317.674 90.742 315.706 L 90.742 254.449 M 196.573 261.646 C 196.551 258.577 196.487 256.331 196.316 254.449 C 195.033 237.937 193.749 222.88 177.066 191.225 C 175.954 189.086 174.585 186.69 173.302 184.466 C 166.971 173.258 163.806 167.612 160.383 164.532 C 157.731 162.222 153.539 159.227 146.609 157.431 L 97.244 157.431 C 93.651 157.431 90.742 160.425 90.742 164.189 L 90.742 254.449 M 196.573 261.646 C 171.59 256.848 115.448 248.692 90.742 254.449" stroke="#8599A7" stroke-width="1.23789" stroke-miterlimit="10" style="fill: rgb(25, 201, 43);"/>
  <path d="M 97.244 157.431 L 146.609 157.431 C 153.539 159.227 157.731 162.222 160.383 164.532 C 163.757 167.568 166.882 173.1 173.037 183.996 L 173.302 184.466 C 174.585 186.69 175.954 189.086 177.066 191.225 C 193.749 222.88 195.033 237.937 196.316 254.449 C 196.487 256.331 196.551 258.577 196.573 261.646 C 171.59 256.848 115.448 248.692 90.742 254.449 L 90.742 164.189 C 90.742 160.425 93.651 157.431 97.244 157.431 Z" fill="#19C92B" stroke="#8599A7" stroke-width="1.23789" stroke-miterlimit="10"/>
  <path d="M 193.407 264.886 L 193.236 274.468 C 193.236 291.921 192.979 309.631 191.867 327.084 L 157.047 339.062 L 157.047 261.892 L 193.407 264.886 Z" fill="#F5F5F5" stroke="#8599A7" stroke-width="1.23789" stroke-miterlimit="10"/>
  <path d="M 193.579 202.09 C 192.381 204.058 191.354 206.196 190.156 208.164 C 185.365 198.325 180.403 187.973 174.158 177.193 C 168.34 167.183 162.694 158.029 157.133 149.559 L 157.133 128.77 C 162.095 137.753 167.057 147.164 172.276 156.917 C 180.318 172.488 187.077 187.545 193.579 202.09 Z" fill="#F5F5F5" stroke="#8599A7" stroke-width="1.23789" stroke-miterlimit="10"/>
  <path d="M 193.064 256.76 L 156.19 248.033 L 152.426 164.019 C 153.966 164.874 155.42 165.901 156.703 167.098 C 159.783 169.836 162.949 175.141 169.365 186.177 C 170.649 188.487 172.017 190.797 173.215 192.85 C 190.155 223.907 191.353 238.194 192.722 254.792 C 192.807 255.647 192.807 256.503 192.893 257.53" fill="#F5F5F5"/>
  <path d="M 193.064 256.76 L 156.19 248.033 L 152.426 164.019 C 153.966 164.874 155.42 165.901 156.703 167.098 C 159.783 169.836 162.949 175.141 169.365 186.177 C 170.649 188.487 172.017 190.797 173.215 192.85 C 190.155 223.907 191.353 238.194 192.722 254.792 C 192.807 255.647 192.807 256.503 192.893 257.53" stroke="#8599A7" stroke-width="1.23789" stroke-miterlimit="10" style="fill: none;"/>
  <path d="M 190.925 335.727 L 156.789 346.25 L 156.789 367.895 C 156.789 371.488 161.067 373.371 163.719 370.889 C 167.397 367.467 171.333 363.446 175.183 358.826 C 182.284 350.527 187.332 342.485 190.925 335.727 Z" fill="#F5F5F5" stroke="#8599A7" stroke-width="1.23789" stroke-miterlimit="10"/>
  <path d="M 119.66 34.659 L 121.713 55.192 C 123.767 55.62 126.333 56.304 129.156 57.502 C 132.065 58.7 134.461 60.154 136.257 61.438 C 135.659 55.192 135.145 48.947 134.546 42.787 C 132.835 41.589 130.868 40.306 128.729 39.108 C 125.563 37.14 122.483 35.771 119.66 34.659 Z" fill="#F5F5F5" stroke="#8599A7" stroke-width="1.23789" stroke-miterlimit="10"/>
  <path d="M 121.886 55.277 C 121.544 66.314 121.201 77.35 120.859 88.387" stroke="#8599A7" stroke-width="1.23789" stroke-miterlimit="10"/>
  <path d="M 195.717 261.806 L 157.646 254.962 C 150.545 254.021 143.016 253.251 135.059 252.823 C 118.718 251.967 103.832 252.566 90.742 254.021" stroke="#8599A7" stroke-width="1.23789" stroke-miterlimit="10" style="fill: none;"/>
  <path d="M 157.561 168.638 L 167.999 184.551 C 168.769 185.749 168.512 187.374 167.314 188.23 C 166.202 189 164.662 189.855 162.78 190.283 C 159.7 190.967 156.962 190.369 155.251 189.77 C 154.225 189.427 153.54 188.486 153.455 187.374 C 153.112 181.642 152.856 175.91 152.513 170.263 C 152.428 168.98 153.283 167.782 154.567 167.526 C 155.765 167.269 156.962 167.697 157.561 168.638 Z" fill="white" stroke="#8599A7" stroke-width="1.73214" stroke-miterlimit="10"/>
  <path d="M 155.249 437.707 L 154.907 425.644 C 154.821 424.104 153.623 422.821 151.998 422.735 C 150.458 422.649 148.747 422.649 147.036 422.649 C 144.554 422.649 142.244 422.821 140.106 423.077 C 138.737 423.248 137.625 424.275 137.453 425.644 L 135.828 437.707 C 139.507 437.964 143.528 438.049 147.634 437.964 C 150.287 437.964 152.853 437.878 155.249 437.707 Z" fill="#F5F5F5" stroke="#8599A7" stroke-width="1.23789" stroke-miterlimit="10"/>
  <path d="M 136.258 61.352 C 139.509 75.811 142.418 91.125 144.984 107.295 C 146.524 116.877 147.722 126.203 148.834 135.272 C 149.005 136.213 149.262 137.41 149.775 138.779 C 150.203 139.892 150.716 141.004 151.401 142.03 C 153.026 144.597 154.652 147.078 156.192 149.645" stroke="#8599A7" stroke-width="1.23789" stroke-miterlimit="10" style="fill: none;"/>
  <path d="M 145.67 234.857 C 145.67 240.291 144.789 244.696 143.702 244.696 C 142.615 244.696 141.734 240.291 141.734 234.857 C 141.734 229.424 142.615 225.019 143.702 225.019 C 144.789 225.019 145.67 229.424 145.67 234.857 Z" stroke="white" stroke-width="1.54742" stroke-miterlimit="10" style="fill: none;"/>
  <path d="M 143.702 335.384 C 144.814 335.384 145.67 331.02 145.67 325.545 C 145.67 320.155 144.814 315.706 143.702 315.706 C 142.59 315.706 141.734 320.069 141.734 325.545 C 141.734 331.02 142.59 335.384 143.702 335.384 Z" stroke="white" stroke-width="1.54742" stroke-miterlimit="10" style="fill: none;"/>
  <path d="M 90.656 315.107 L 90.656 322.294" stroke="#8599A7" stroke-width="1.23789" stroke-miterlimit="10"/>
  <path d="M 422.096 163.162 C 422.01 156.574 421.925 149.901 421.754 143.313" stroke="#8599A7" stroke-width="1.23789" stroke-miterlimit="10"/>
  <path d="M 90.656 164.189 L 90.656 143.485" stroke="#8599A7" stroke-width="1.23789" stroke-miterlimit="10"/>
  <path d="M 422.179 315.706 C 422.179 318.187 422.179 320.583 422.179 323.064" stroke="#8599A7" stroke-width="1.23789" stroke-miterlimit="10"/>
  <path style="stroke: rgb(0, 0, 0); fill: rgb(25, 201, 43); stroke-opacity: 0;" d="M 194.79 203.11 L 195.966 207.344 C 195.966 207.344 197.26 211.342 197.26 211.46 C 197.26 211.578 198.436 216.87 198.436 216.87 L 199.024 221.222 L 199.965 227.102 C 199.965 227.102 200.671 232.042 200.671 232.16 C 200.671 232.278 201.494 238.863 201.494 238.863 L 202.082 247.096 L 202.67 254.27 L 203.141 261.445 L 203.141 268.854 L 203.141 274.617 L 203.141 280.145 L 202.905 286.47 L 202.67 293.879 L 202.435 300.701 L 202.082 307.587 L 201.494 315.742 L 201.141 320.917 L 201.024 324.327 C 201.024 324.327 200.553 328.561 200.436 328.561 C 200.319 328.561 199.259 333.501 199.259 333.501 L 197.613 338.205 L 196.437 341.734 L 195.143 344.086 L 195.025 346.909 L 197.142 347.732 C 197.142 347.732 199.965 348.438 200.083 348.438 C 200.201 348.438 204.434 349.378 204.434 349.378 L 209.609 350.437 L 214.078 350.907 L 219.136 351.378 L 224.781 352.083 L 229.203 352.483 L 234.19 352.752 L 238.234 353.157 C 238.234 353.157 242.413 353.426 242.548 353.426 C 242.683 353.426 246.861 353.831 246.861 353.831 L 251.444 354.1 C 251.444 354.1 254.814 354.1 254.949 354.1 C 255.084 354.1 259.128 354.1 259.128 354.1 L 262.559 354.145 L 266.291 354.037 L 269.59 353.82 C 269.59 353.82 273.052 353.442 273.106 353.496 C 273.16 353.55 277.271 353.117 277.271 353.117 L 280.786 352.901 C 280.786 352.901 283.869 352.577 283.977 352.577 C 284.085 352.577 287.871 352.144 287.871 352.144 C 287.871 352.144 291.441 351.657 291.495 351.657 C 291.549 351.657 295.498 351.062 295.498 351.062 L 299.23 350.521 L 302.475 350.034 L 305.828 349.385 L 309.452 348.628 C 309.452 348.628 312.318 347.979 312.318 347.925 C 312.318 347.871 314.969 347.114 314.969 347.114 C 314.969 347.114 317.186 346.302 317.24 346.302 C 317.294 346.302 318.376 345.978 318.376 345.978 L 317.727 344.626 L 316.808 342.408 L 316.05 340.299 L 315.239 338.406 L 314.482 335.93 C 314.482 335.93 313.4 332.901 313.454 332.847 C 313.508 332.793 312.589 329.277 312.589 329.223 C 312.589 329.169 311.994 326.627 311.994 326.627 C 311.994 326.627 311.778 324.68 311.778 324.626 C 311.778 324.572 311.507 321.489 311.507 321.164 C 311.507 320.839 311.291 319.001 311.291 318.893 C 311.291 318.785 311.129 315.756 311.129 315.701 C 311.129 315.646 311.075 312.997 311.075 312.997 L 310.804 309.535 L 310.642 305.154 L 310.317 298.898 L 310.155 293.508 L 309.939 286.626 L 309.614 277.828 L 309.614 272.383 L 309.56 268.765 L 309.776 266.277 L 309.831 261.451 L 310.101 257.449 C 310.101 257.449 310.263 254.691 310.263 254.637 C 310.263 254.583 310.534 249.769 310.534 249.769 L 310.858 246.307 C 310.858 246.307 311.075 243.062 311.129 243.062 C 311.183 243.062 311.507 238.717 311.507 238.717 L 311.994 234.444 L 312.535 230.514 L 313.184 225.874 L 313.671 222.323 L 314.32 218.765 L 315.023 215.213 L 315.78 211.824 L 316.699 208.272 C 316.699 208.272 317.889 204.834 317.889 204.78 C 317.889 204.726 318.214 203.29 318.214 203.29 L 316.429 202.749 L 315.239 202.425 L 311.994 201.938 C 311.994 201.938 308.641 201.451 308.587 201.451 C 308.533 201.451 305.233 201.072 305.233 201.072 C 305.233 201.072 301.718 200.478 301.663 200.478 C 301.608 200.478 298.04 200.099 298.04 200.099 L 295.728 199.889 L 292.646 199.665 L 290.18 199.441 L 287.434 199.161 L 284.631 198.936 L 281.997 198.824 L 279.139 198.6 L 276.841 198.544 L 274.207 198.32 L 272.189 198.264 C 272.189 198.264 269.611 198.152 269.555 198.152 C 269.499 198.152 266.136 197.984 266.136 197.984 L 263.11 198.04 C 263.11 198.04 258.348 198.028 258.281 198.028 C 258.214 198.028 254.785 197.894 254.785 197.894 L 250.483 197.894 L 245.575 198.096 L 241.744 198.23 L 238.651 198.432 L 233.274 198.701 L 229.679 198.761 C 229.679 198.761 224.381 199.293 224.297 199.293 C 224.213 199.293 218.643 199.799 218.643 199.799 L 213.412 200.221 L 209.614 200.643 L 205.142 201.065 L 201.176 201.74 C 201.176 201.74 198.729 202.078 198.561 202.078 C 198.393 202.078 196.282 202.415 196.282 202.415 L 194.79 203.11 Z"/>
</svg>