<svg width="383" height="521" viewBox="0 0 383 521" fill="none" xmlns="http://www.w3.org/2000/svg">
<path d="M118.818 81.2807C114.797 106.776 113.171 130.389 113 151.607C133.025 137.642 192.169 118.092 268.538 151.607C268.367 130.389 266.741 106.776 262.72 81.2807C262.121 77.773 261.523 74.1797 260.924 70.7575C258.956 59.721 249.973 51.5077 239.193 50.9089C227.13 50.1389 203.003 48 190.94 48C178.706 48 142.345 50.9089 142.345 50.9089C131.565 51.5078 122.582 59.721 120.614 70.7575C120.015 74.1797 119.417 77.6874 118.818 81.2807Z" fill="#19C92B"/>
<path d="M129.76 212.945C124.114 192.754 118.553 172.649 112.906 152.458C113.077 131.241 114.703 107.628 118.724 82.1323C119.323 78.539 119.922 75.0313 120.521 71.6091C122.488 60.5726 131.472 52.3593 142.251 51.7604C142.251 51.7604 178.612 48.8516 190.846 48.8516C202.91 48.8516 227.036 50.9904 239.099 51.7604C249.879 52.3593 258.862 60.5726 260.83 71.6091C261.429 75.0313 262.028 78.6245 262.627 82.1323C266.648 107.628 268.273 131.241 268.444 152.458C262.798 172.649 257.237 192.754 251.59 212.945" stroke="#8599A7" stroke-width="1.85687" stroke-linejoin="round"/>
<path d="M186.398 48.8516C172.538 48.8516 158.764 48.8516 144.904 48.8516L150.037 39.8684C151.577 37.1306 149.695 33.7085 146.701 33.7085L105.977 33.7085C106.062 28.1474 106.747 21.132 108.543 13.4321C109.399 9.75322 110.425 6.50212 111.538 3.50771C112.308 1.36885 114.275 -3.62752e-07 116.414 -4.56245e-07L190.761 -3.70605e-06L190.504 -3.69483e-06L264.851 -6.94463e-06C266.99 -7.03813e-06 268.958 1.36884 269.728 3.50771C270.84 6.50211 271.867 9.83877 272.722 13.4321C274.604 21.132 275.203 28.1474 275.289 33.7085L234.565 33.7085C231.571 33.7085 229.688 37.1306 231.228 39.8684L236.362 48.8516C222.502 48.8516 208.728 48.8516 194.868 48.8516" fill="#F23A00"/>
<path d="M353.742 147.24C368.799 147.24 381.033 134.663 381.033 119.263C381.033 103.778 368.799 91.2871 353.742 91.2871C338.684 91.2871 326.45 103.864 326.45 119.263C326.364 134.663 338.598 147.24 353.742 147.24Z" stroke="#8599A7" stroke-width="1.85687" stroke-linejoin="round"/>
<path d="M374.533 119.263C374.533 130.982 365.225 140.481 353.743 140.481C342.261 140.481 332.953 130.982 332.953 119.263C332.953 107.545 342.261 98.0459 353.743 98.0459C365.225 98.0459 374.533 107.545 374.533 119.263Z" stroke="#8599A7" stroke-width="1.14686" stroke-linejoin="round"/>
<path d="M381.119 366.686C381.119 382.137 368.9 394.663 353.827 394.663C338.754 394.663 326.535 382.137 326.535 366.686C326.535 351.235 338.754 338.71 353.827 338.71C368.9 338.71 381.119 351.235 381.119 366.686Z" stroke="#8599A7" stroke-width="1.85687" stroke-linejoin="round"/>
<path d="M374.619 366.686C374.619 378.404 365.311 387.904 353.829 387.904C342.347 387.904 333.039 378.404 333.039 366.686C333.039 354.968 342.347 345.469 353.829 345.469C365.311 345.469 374.619 354.968 374.619 366.686Z" stroke="#8599A7" stroke-width="1.14686" stroke-linejoin="round"/>
<path d="M365.762 85.6094L365.762 51.3021C361.998 49.0776 355.667 46.0832 347.368 44.7143C339.069 43.3455 332.225 44.201 327.947 45.1421C325.295 46.1688 322.386 47.5376 319.306 49.2487C317.51 50.2754 315.884 51.302 314.344 52.2431C312.291 53.612 310.836 55.5797 310.152 57.8897C307.329 67.2151 304.677 76.8828 302.195 87.0638C297.576 105.629 294.068 123.339 291.416 139.936C286.796 147.551 280.465 158.502 273.364 171.934C263.61 190.585 257.023 202.905 252.403 217.278C247.954 231.138 245.387 261.338 245.045 276.225C244.788 288.288 245.644 310.104 246.927 332.691C247.184 336.712 248.467 342.444 251.034 349.288C251.718 351.17 254.114 357.502 260.616 367.511C269.77 381.713 274.476 386.333 279.01 392.664C281.834 396.6 285.598 403.53 285.769 410.631C286.026 421.069 286.368 431.592 286.625 442.029C286.71 445.623 289.533 448.532 293.127 448.703C296.463 448.874 299.971 448.959 303.65 449.045C309.981 449.045 315.97 448.788 321.36 448.275C322.044 449.729 323.413 451.868 325.723 453.579C329.316 456.231 333.337 456.146 341.208 455.889C351.732 455.547 354.298 453.408 355.154 452.553C356.694 451.098 357.549 449.473 357.977 448.189C358.918 432.105 359.859 416.106 360.8 400.022C357.891 400.621 349.849 401.904 340.866 398.054C338.043 396.857 330.172 393.092 325.039 384.109C323.926 382.227 320.675 376.152 320.675 367.683C320.675 364.26 321.103 355.79 327.092 347.748C327.862 346.722 332.738 340.22 341.465 336.712C345.914 334.915 350.192 334.316 358.063 333.204C361.314 332.776 364.051 332.52 365.934 332.349L365.934 153.112C348.138 156.705 330.942 148.92 323.67 134.889C323.327 134.204 315.97 119.403 323.499 104.431C330.428 90.2293 347.71 82.1872 365.762 85.6094Z" stroke="#8599A7" stroke-width="1.85687" stroke-linejoin="round"/>
<path d="M365.762 51.3021L365.762 85.6094C347.71 82.1872 330.428 90.2293 323.499 104.431C315.97 119.403 323.327 134.204 323.67 134.889C330.646 148.349 346.756 156.062 363.766 153.494C364.509 153.368 365.233 153.24 365.934 153.112C365.21 153.258 364.487 153.385 363.766 153.494C339.869 157.55 295.133 160.073 291.416 139.936C294.068 123.339 297.576 105.629 302.195 87.0638C304.677 76.8828 307.329 67.2151 310.152 57.8897C310.836 55.5797 312.291 53.612 314.344 52.2431C315.884 51.302 317.51 50.2754 319.306 49.2487C322.386 47.5376 325.295 46.1688 327.947 45.1421C332.225 44.201 339.069 43.3455 347.368 44.7143C355.667 46.0832 361.998 49.0776 365.762 51.3021Z" fill="#FDB724" stroke="#8599A7" stroke-width="1.85687" stroke-linejoin="round"/>
<path d="M285.769 410.631C285.598 403.53 281.834 396.6 279.011 392.664C296.822 382.81 317.118 382.855 325.039 384.109C330.172 393.092 338.043 396.856 340.867 398.054C349.85 401.904 357.892 400.621 360.801 400.022C359.86 416.106 358.919 432.105 357.977 448.189C357.55 449.473 356.694 451.098 355.154 452.552C354.299 453.408 351.732 455.547 341.209 455.889C333.338 456.146 329.317 456.231 325.723 453.579C323.413 451.868 322.045 449.729 321.36 448.275C315.97 448.788 309.981 449.045 303.65 449.045C299.972 448.959 296.464 448.874 293.127 448.703C289.534 448.531 286.711 445.623 286.625 442.029C286.368 431.592 286.026 421.068 285.769 410.631Z" fill="#19C92B" stroke="#8599A7" stroke-width="1.85687" stroke-linejoin="round"/>
<path d="M323.113 379.861C322.514 402.448 321.829 425.12 321.23 447.706" stroke="#8599A7" stroke-width="1.14686" stroke-linejoin="round"/>
<path d="M300.868 167.43L350.233 167.43C353.826 167.43 356.735 170.424 356.735 174.188L356.735 325.705C356.735 327.673 355.195 329.213 353.313 329.213C351.516 329.213 349.463 329.299 347.153 329.555C343.474 329.983 336.031 331.01 328.416 335.972C321.23 340.677 317.038 347.009 314.728 351.286C313.787 353.083 312.076 354.366 310.022 354.708C307.627 355.051 304.803 355.307 301.723 355.307C297.36 355.307 293.596 354.709 290.601 354.024L288.035 351.885L252.615 339.394C251.503 321.941 250.904 303.376 250.904 283.784C250.904 273.432 250.818 268.213 251.161 264.448C252.444 247.936 253.727 232.879 270.41 201.224C271.523 199.085 272.892 196.689 274.175 194.465C280.506 183.257 283.671 177.611 287.094 174.531C289.746 172.221 294.024 169.226 300.868 167.43Z" stroke="#8599A7" stroke-width="1.23789" stroke-miterlimit="10"/>
<path d="M251.01 272.215C250.989 275.285 251.01 279.178 251.01 284.354C251.01 303.946 251.609 322.511 252.721 339.964L288.141 352.456L290.707 354.594C293.702 355.279 297.466 355.878 301.829 355.878C304.909 355.878 307.733 355.621 310.128 355.279C312.181 354.937 313.892 353.653 314.834 351.857C317.144 347.579 321.336 341.248 328.522 336.542C336.137 331.58 343.58 330.553 347.259 330.126C349.569 329.869 351.622 329.784 353.419 329.784C355.301 329.784 356.841 328.244 356.841 326.276L356.841 265.019M251.01 272.215C251.031 269.146 251.095 266.901 251.267 265.019C252.55 248.507 253.833 233.449 270.516 201.794C271.629 199.655 272.997 197.26 274.281 195.035C280.612 183.828 283.777 178.181 287.199 175.101C289.852 172.791 294.044 169.797 300.974 168L350.339 168C353.932 168 356.841 170.994 356.841 174.759L356.841 265.019M251.01 272.215C275.993 267.418 332.135 259.261 356.841 265.019" stroke="#8599A7" stroke-width="1.23789" stroke-miterlimit="10"/>
<path d="M353.419 329.215C355.301 329.215 356.841 327.675 356.841 325.707L356.841 264.45C332.135 258.693 275.993 266.849 251.01 271.646C250.989 274.716 251.01 278.609 251.01 283.785C251.01 303.377 251.609 321.943 252.721 339.396L288.141 351.887L290.707 354.026C293.702 354.71 297.466 355.309 301.829 355.309C304.909 355.309 307.733 355.052 310.128 354.71C312.181 354.368 313.892 353.084 314.834 351.288C317.144 347.01 321.336 340.679 328.522 335.973C336.137 331.011 343.58 329.985 347.259 329.557C349.569 329.3 351.622 329.215 353.419 329.215Z" fill="#F23A00"/>
<path d="M251.267 264.45C251.095 266.332 251.031 268.578 251.01 271.646M251.01 271.646C250.989 274.716 251.01 278.609 251.01 283.785C251.01 303.377 251.609 321.943 252.721 339.396L288.141 351.887L290.707 354.026C293.702 354.71 297.466 355.309 301.829 355.309C304.909 355.309 307.733 355.052 310.128 354.71C312.181 354.368 313.892 353.084 314.834 351.288C317.144 347.01 321.336 340.679 328.522 335.973C336.137 331.011 343.58 329.985 347.259 329.557C349.569 329.3 351.622 329.215 353.419 329.215C355.301 329.215 356.841 327.675 356.841 325.707L356.841 264.45C332.135 258.693 275.993 266.849 251.01 271.646Z" stroke="#8599A7" stroke-width="1.24" stroke-miterlimit="10"/>
<path d="M350.339 167.431L300.974 167.431C294.044 169.227 289.852 172.222 287.199 174.532C283.825 177.568 280.701 183.1 274.546 193.996L274.281 194.466C272.997 196.69 271.629 199.086 270.516 201.225C253.833 232.88 252.55 247.937 251.267 264.449C251.095 266.331 251.031 268.577 251.01 271.646C275.993 266.848 332.135 258.692 356.841 264.449L356.841 174.189C356.841 170.425 353.932 167.431 350.339 167.431Z" fill="#FDB724" stroke="#8599A7" stroke-width="1.23789" stroke-miterlimit="10"/>
<path d="M255.011 274.886L254.754 284.468C254.754 301.921 255.695 319.631 256.807 337.084L292.312 349.062L292.312 271.892L255.011 274.886Z" fill="#F5F5F5" stroke="#8599A7" stroke-width="1.23789" stroke-miterlimit="10"/>
<path d="M253.898 212.09C255.096 214.058 256.123 216.196 257.321 218.164C262.112 208.325 268.015 197.973 274.26 187.193C280.078 177.183 286.666 168.029 292.227 159.559L292.227 138.77C287.265 147.753 281.361 157.164 276.228 166.917C268.1 182.488 260.401 197.545 253.898 212.09Z" fill="#F5F5F5" stroke="#8599A7" stroke-width="1.23789" stroke-miterlimit="10"/>
<path d="M254.414 266.759L291.288 258.032L295.052 174.018C293.512 174.873 292.058 175.9 290.775 177.098C287.695 179.835 284.529 185.14 278.113 196.176C276.829 198.486 275.46 200.796 274.263 202.849C257.323 233.906 256.125 248.193 254.756 264.791C254.671 265.646 254.671 266.502 254.585 267.529" fill="#F5F5F5"/>
<path d="M254.414 266.759L291.288 258.032L295.052 174.018C293.512 174.873 292.058 175.9 290.775 177.098C287.695 179.835 284.529 185.14 278.113 196.176C276.829 198.486 275.46 200.796 274.263 202.849C257.323 233.906 256.125 248.193 254.756 264.791C254.671 265.646 254.671 266.502 254.585 267.529" stroke="#8599A7" stroke-width="1.23789" stroke-miterlimit="10"/>
<path d="M256.551 345.726L290.687 356.249L290.687 377.894C290.687 381.487 286.409 383.37 283.757 380.888C280.078 377.466 276.143 373.445 272.293 368.825C265.192 360.527 260.144 352.484 256.551 345.726Z" fill="#F5F5F5" stroke="#8599A7" stroke-width="1.23789" stroke-miterlimit="10"/>
<path d="M327.82 44.6592L325.767 65.1923C323.714 65.62 321.147 66.3045 318.324 67.5022C315.415 68.7 313.019 70.1544 311.223 71.4377C311.822 65.1922 312.335 59.0323 312.934 52.7869C314.645 51.5891 316.613 50.3058 318.751 49.108C321.917 47.1403 325.083 45.7714 327.82 44.6592Z" fill="#F5F5F5" stroke="#8599A7" stroke-width="1.23789" stroke-miterlimit="10"/>
<path d="M325.68 65.2773C326.022 76.3139 326.364 87.3504 326.706 98.3869" stroke="#8599A7" stroke-width="1.23789" stroke-miterlimit="10"/>
<path d="M251.848 271.806L289.919 264.962C297.02 264.021 304.549 263.251 312.506 262.823C328.847 261.967 343.733 262.566 356.823 264.021" stroke="#8599A7" stroke-width="1.23789" stroke-miterlimit="10"/>
<path d="M289.918 178.638L279.481 194.551C278.711 195.749 278.967 197.374 280.165 198.23C281.277 199 282.817 199.855 284.7 200.283C287.779 200.967 290.517 200.369 292.228 199.77C293.255 199.427 293.939 198.486 294.025 197.374C294.367 191.642 294.624 185.91 294.966 180.263C295.052 178.98 294.196 177.782 292.913 177.526C291.715 177.269 290.603 177.697 289.918 178.638Z" fill="white" stroke="#8599A7" stroke-width="1.73214" stroke-miterlimit="10"/>
<path d="M292.227 447.706L292.569 435.643C292.654 434.103 293.852 432.82 295.478 432.734C297.018 432.649 298.729 432.648 300.44 432.648C302.921 432.648 305.231 432.82 307.37 433.076C308.739 433.247 309.851 434.274 310.022 435.643L311.647 447.706C307.969 447.963 303.948 448.048 299.841 447.963C297.189 447.963 294.708 447.877 292.227 447.706Z" fill="#F5F5F5" stroke="#8599A7" stroke-width="1.23789" stroke-miterlimit="10"/>
<path d="M311.223 71.3525C307.972 85.8112 305.063 101.125 302.497 117.295C300.957 126.877 299.759 136.203 298.647 145.272C298.476 146.213 298.219 147.41 297.706 148.779C297.107 150.405 296.422 151.517 296.08 152.03C295.139 153.485 293.856 155.88 292.145 159.645" stroke="#8599A7" stroke-width="1.23789" stroke-miterlimit="10"/>
<path d="M305.744 244.856C305.744 250.29 304.863 254.695 303.776 254.695C302.69 254.695 301.809 250.29 301.809 244.856C301.809 239.423 302.69 235.018 303.776 235.018C304.863 235.018 305.744 239.423 305.744 244.856Z" stroke="white" stroke-width="1.54742" stroke-miterlimit="10"/>
<path d="M303.776 345.384C302.664 345.384 301.809 341.02 301.809 335.545C301.809 330.155 302.664 325.706 303.776 325.706C304.889 325.706 305.744 330.069 305.744 335.545C305.744 341.02 304.889 345.384 303.776 345.384Z" stroke="white" stroke-width="1.54742" stroke-miterlimit="10"/>
<path d="M268.015 33.709C268.272 33.709 270.753 48.8521 270.753 48.8521L234.392 48.8521L229.345 39.1844C228.061 36.7034 229.858 33.7945 232.596 33.7945L268.015 33.709Z" fill="#F5F5F5" stroke="#8599A7" stroke-width="1.23789" stroke-miterlimit="10"/>
<path d="M130.359 10.9518L130.359 10.8663C130.359 9.32628 131.643 8.04297 133.183 8.04297L248.767 8.04296C250.307 8.04296 251.59 9.32627 251.59 10.8663L251.59 10.9518C251.59 12.4918 250.307 13.7751 248.767 13.7751L133.183 13.7751C131.643 13.8606 130.359 12.5773 130.359 10.9518Z" stroke="#8599A7" stroke-width="1.23789" stroke-miterlimit="10"/>
<path d="M190.59 43.6328L222.587 43.6328C223.785 43.6328 224.469 42.1783 223.699 41.1517L222.929 40.1251C218.737 34.7351 212.577 31.3985 205.904 31.0563L205.819 31.0563C200.6 30.7996 195.552 30.6285 190.59 30.543" stroke="#8599A7" stroke-width="1.23789" stroke-miterlimit="10"/>
<path d="M190.846 207.47C179.297 207.47 166.977 207.983 153.801 209.181C145.503 209.951 137.46 210.977 129.846 212.09C124.199 192.241 118.553 172.392 112.906 152.458L113.077 152.287C126.338 141.422 147.128 136.203 159.362 134.748C167.062 133.807 182.719 133.722 190.504 133.722C198.375 133.722 214.117 133.807 221.903 134.748C234.137 136.288 254.927 141.422 268.188 152.287L268.359 152.458C262.712 172.307 257.066 192.155 251.419 212.09C243.805 210.977 235.848 209.951 227.464 209.181C214.374 207.983 201.968 207.47 190.419 207.47" fill="#F5F5F5"/>
<path d="M190.846 207.47C179.297 207.47 166.977 207.983 153.801 209.181C145.503 209.951 137.46 210.977 129.846 212.09C124.199 192.241 118.553 172.392 112.906 152.458L113.077 152.287C126.338 141.422 147.128 136.203 159.362 134.748C167.062 133.807 182.719 133.722 190.504 133.722C198.375 133.722 214.117 133.807 221.903 134.748C234.137 136.288 254.927 141.422 268.188 152.287L268.359 152.458C262.712 172.307 257.066 192.155 251.419 212.09C243.805 210.977 235.848 209.951 227.464 209.181C214.374 207.983 201.968 207.47 190.419 207.47" stroke="#8599A7" stroke-width="1.23789" stroke-miterlimit="10"/>
<path d="M111.367 33.709C111.11 33.709 108.629 48.8521 108.629 48.8521L144.99 48.8521L150.037 39.1844C151.321 36.7034 149.524 33.7945 146.786 33.7945L111.367 33.7945L111.367 33.709Z" fill="#F5F5F5" stroke="#8599A7" stroke-width="1.23789" stroke-miterlimit="10"/>
<path d="M190.846 43.6328L158.848 43.6328C157.651 43.6328 156.966 42.1783 157.736 41.1517L158.506 40.1251C162.698 34.7351 168.858 31.3985 175.531 31.0563L175.617 31.0563C180.836 30.7996 185.884 30.6285 190.846 30.543" stroke="#8599A7" stroke-width="1.23789" stroke-miterlimit="10"/>
<path d="M117.6 395.849C116.959 395.686 116.336 396.173 116.345 396.835C116.515 410.346 116.761 423.933 116.927 437.44C117.013 442.745 120.691 447.108 125.482 447.45C136.348 448.306 147.556 449.076 159.02 449.589C169.885 450.102 180.494 450.359 190.846 450.53L190.589 450.53C200.942 450.359 211.55 450.102 222.416 449.589C233.88 449.076 245.088 448.306 255.953 447.45C260.744 447.022 264.423 442.745 264.509 437.44C264.673 424.053 264.916 410.588 265.086 397.195" fill="#19C92B"/>
<path d="M116.927 437.44C116.761 423.933 116.515 410.346 116.345 396.835C116.336 396.173 116.959 395.686 117.6 395.849C130.923 399.254 161.45 405.275 187 404.5C209.793 404.198 254.972 402.194 263.868 396.622C264.289 396.359 265.093 396.698 265.086 397.195C264.916 410.588 264.673 424.053 264.509 437.44C264.423 442.745 260.744 447.022 255.953 447.45C245.088 448.306 233.88 449.076 222.416 449.589C211.55 450.102 200.942 450.359 190.589 450.53L190.846 450.53C180.494 450.359 169.885 450.102 159.02 449.589C147.556 449.076 136.348 448.306 125.482 447.45C120.691 447.108 117.013 442.745 116.927 437.44Z" stroke="#8599A7" stroke-width="1.85687" stroke-miterlimit="10" stroke-linecap="round"/>
<path d="M254.499 355.992L265.399 395.368C265.474 395.638 265.313 395.917 265.041 395.985C252.997 399.01 238.799 401.527 223.186 402.962C211.465 403.988 200.514 404.074 190.675 403.817C182.633 403.646 170.227 403.988 158.506 402.962C142.905 401.528 128.882 399.013 116.849 395.992C116.567 395.921 116.407 395.625 116.499 395.349L129.418 356.762C129.589 360.355 175.703 364.633 191.017 364.804C206.845 364.89 243.291 361.211 254.413 355.907C254.499 355.821 254.499 355.907 254.499 355.992Z" fill="#F5F5F5" stroke="#8599A7" stroke-width="1.23789" stroke-miterlimit="10"/>
<path d="M119.235 519.658C118.038 519.914 116.925 520 116.925 520C115.557 520 114.616 520 114.017 519.572C113.332 519.059 113.161 518.289 113.076 517.947C112.049 515.294 111.108 512.386 110.167 509.391C109.397 506.825 108.712 504.258 108.113 501.862C107.514 500.066 107.258 498.184 107.258 496.301L107.258 489.371C107.258 487.575 108.627 486.12 110.423 486.12L111.45 486.12C112.22 486.12 112.819 485.522 112.819 484.666L112.819 450.872L190.502 450.615L190.246 450.615L267.929 450.872L267.929 484.58C267.929 485.35 268.528 486.035 269.298 486.035L270.325 486.035C272.036 486.035 273.49 487.489 273.49 489.286L273.49 496.216C273.49 498.098 273.234 499.98 272.635 501.777C272.036 504.172 271.351 506.654 270.581 509.306C269.64 512.3 268.699 515.209 267.672 517.861C267.587 518.203 267.416 518.973 266.731 519.487C266.047 520 265.106 519.914 263.823 519.914C263.823 519.914 262.71 519.829 261.513 519.572C258.433 518.973 255.353 518.717 252.273 518.717L128.646 518.717C125.395 518.802 122.315 519.059 119.235 519.658Z" fill="#19C92B" stroke="#8599A7" stroke-width="1.85687" stroke-linejoin="round"/>
<path d="M267.844 456.348C267.759 463.449 267.759 470.635 267.673 477.736C261 477.736 254.327 477.651 247.739 477.651C245.429 477.651 243.718 476.025 244.488 474.571L252.188 459.085C252.958 457.545 255.097 456.519 257.578 456.519C261 456.433 264.422 456.348 267.844 456.348Z" fill="#F5F5F5" stroke="#8599A7" stroke-width="1.23789" stroke-miterlimit="10"/>
<path d="M245.342 472.688L241.834 479.276C240.551 481.672 237.984 483.212 235.332 483.212L190.758 483.212" stroke="#8599A7" stroke-width="1.23789" stroke-miterlimit="10"/>
<path d="M112.477 456.348C112.562 463.449 112.562 470.635 112.648 477.736C119.406 477.736 126.165 477.651 132.924 477.651C135.32 477.651 137.031 476.025 136.261 474.571L128.39 459.085C127.62 457.545 125.395 456.519 122.914 456.519C119.406 456.433 115.984 456.348 112.477 456.348Z" fill="#F5F5F5" stroke="#8599A7" stroke-width="1.23789" stroke-miterlimit="10"/>
<path d="M135.32 472.688L138.914 479.276C140.197 481.672 142.764 483.212 145.587 483.212L190.931 483.212" stroke="#8599A7" stroke-width="1.23789" stroke-miterlimit="10"/>
<path d="M55.6697 119.263C55.6697 134.714 43.4507 147.24 28.3778 147.24C13.3049 147.24 1.08594 134.714 1.08594 119.263C1.08594 103.813 13.3049 91.2871 28.3778 91.2871C43.4507 91.2871 55.6697 103.813 55.6697 119.263Z" stroke="#8599A7" stroke-width="1.85687" stroke-linejoin="round"/>
<path d="M28.3796 140.481C16.9153 140.481 7.58985 130.984 7.58984 119.263C7.58984 107.542 16.9153 98.0459 28.3796 98.0459C39.8439 98.0459 49.1693 107.542 49.1693 119.263C49.1693 130.984 39.8439 140.481 28.3796 140.481Z" stroke="#8599A7" stroke-width="1.14686" stroke-linejoin="round"/>
<path d="M55.5838 366.687C55.5838 382.138 43.3648 394.664 28.2919 394.664C13.219 394.664 1 382.138 1 366.687C1 351.236 13.219 338.711 28.2919 338.711C43.3648 338.711 55.5838 351.236 55.5838 366.687Z" stroke="#8599A7" stroke-width="1.85687" stroke-linejoin="round"/>
<path d="M49.0834 366.687C49.0834 378.405 39.7755 387.905 28.2936 387.905C16.8118 387.905 7.50391 378.405 7.50391 366.687C7.50391 354.969 16.8118 345.47 28.2936 345.47C39.7755 345.47 49.0834 354.969 49.0834 366.687Z" stroke="#8599A7" stroke-width="1.14686" stroke-linejoin="round"/>
<path d="M16.4836 85.127L16.4836 50.8196C20.248 48.5952 26.579 45.6008 34.8778 44.2319C43.1766 42.8631 50.021 43.7186 54.2987 44.6597C56.9509 45.6864 59.8597 47.0552 62.9397 48.7663C64.7363 49.793 66.3619 50.8196 67.9019 51.7607C69.9552 53.1296 71.4096 55.0973 72.094 57.4073C74.9173 66.7327 77.5695 76.4004 80.0506 86.5814C84.6705 105.147 88.1783 122.856 90.8305 139.454C95.4504 147.068 101.781 158.019 108.882 171.451C118.636 190.102 125.223 202.422 129.843 216.795C134.292 230.655 136.859 260.856 137.201 275.742C137.458 287.806 136.602 309.622 135.319 332.208C135.062 336.229 133.779 341.962 131.212 348.806C130.528 350.688 128.132 357.019 121.63 367.029C112.476 381.231 107.77 385.851 103.236 392.182C100.413 396.118 96.6482 403.047 96.4771 410.148C96.2204 420.586 95.8782 431.109 95.6215 441.547C95.536 445.14 92.7127 448.049 89.1194 448.22C85.7828 448.391 82.275 448.477 78.5962 448.562C72.2652 448.562 66.2763 448.306 60.8864 447.792C60.202 449.247 58.8331 451.386 56.5231 453.097C52.9298 455.749 48.9088 455.664 41.0378 455.407C30.5146 455.065 27.9479 452.926 27.0924 452.07C25.5524 450.616 24.6969 448.99 24.2691 447.707C23.328 431.623 22.3869 415.624 21.4458 399.54C24.3546 400.139 32.3968 401.422 41.38 397.572C44.2033 396.374 52.0743 392.61 57.2076 383.627C58.3198 381.744 61.5708 375.67 61.5708 367.2C61.5708 363.778 61.1431 355.308 55.1543 347.266C54.3843 346.239 49.5077 339.737 40.7811 336.229C36.3323 334.433 32.0545 333.834 24.1835 332.722C20.9325 332.294 18.1947 332.037 16.3125 331.866L16.3125 152.629C34.1078 156.223 51.3043 148.437 58.5764 134.406C58.9186 133.722 66.2763 118.921 58.7475 103.949C51.8176 89.7469 34.5356 81.7048 16.4836 85.127Z" stroke="#8599A7" stroke-width="1.85687" stroke-linejoin="round"/>
<path d="M16.4836 50.8196L16.4836 85.127C34.5356 81.7048 51.8176 89.7469 58.7475 103.949C66.2763 118.921 58.9186 133.722 58.5764 134.406C51.6 147.867 35.4901 155.579 18.4799 153.012C17.7367 152.886 17.0136 152.758 16.3125 152.629C17.0362 152.776 17.7588 152.903 18.4799 153.012C42.3772 157.068 87.1132 159.591 90.8305 139.454C88.1783 122.856 84.6706 105.147 80.0506 86.5814C77.5695 76.4004 74.9173 66.7327 72.094 57.4073C71.4096 55.0973 69.9552 53.1296 67.9019 51.7607C66.3619 50.8196 64.7364 49.793 62.9397 48.7663C59.8597 47.0552 56.9509 45.6864 54.2987 44.6597C50.021 43.7186 43.1766 42.8631 34.8778 44.2319C26.579 45.6008 20.248 48.5952 16.4836 50.8196Z" fill="#FDB724" stroke="#8599A7" stroke-width="1.85687" stroke-linejoin="round"/>
<path d="M96.4766 410.148C96.6477 403.047 100.412 396.117 103.235 392.182C85.4241 382.327 65.1285 382.372 57.2071 383.626C52.0738 392.61 44.2028 396.374 41.3795 397.572C32.3963 401.422 24.3542 400.138 21.4453 399.54C22.3864 415.624 23.3275 431.623 24.2686 447.707C24.6964 448.99 25.5519 450.616 27.0919 452.07C27.9475 452.926 30.5141 455.065 41.0373 455.407C48.9083 455.663 52.9294 455.749 56.5227 453.097C58.8326 451.386 60.2015 449.247 60.8859 447.792C66.2759 448.306 72.2647 448.562 78.5957 448.562C82.2746 448.477 85.7823 448.391 89.1189 448.22C92.7122 448.049 95.5355 445.14 95.6211 441.547C95.8777 431.109 96.2199 420.586 96.4766 410.148Z" fill="#19C92B" stroke="#8599A7" stroke-width="1.85687" stroke-linejoin="round"/>
<path d="M59.0898 379.862C59.6887 402.449 60.3732 425.121 60.972 447.707" stroke="#8599A7" stroke-width="1.14686" stroke-linejoin="round"/>
<path d="M28.805 329.214C26.9228 329.214 25.3828 327.674 25.3828 325.706L25.3828 264.449C50.0891 258.692 106.231 266.848 131.214 271.646C131.235 274.715 131.214 278.608 131.214 283.784C131.214 303.376 130.615 321.942 129.503 339.395L94.0831 351.886L91.5164 354.025C88.522 354.709 84.7576 355.308 80.3944 355.308C77.3144 355.308 74.4911 355.051 72.0956 354.709C70.0423 354.367 68.3312 353.083 67.3901 351.287C65.0801 347.009 60.8879 340.678 53.7014 335.972C46.087 331.01 38.6438 329.984 34.9649 329.556C32.655 329.299 30.6016 329.214 28.805 329.214Z" fill="#FDB724"/>
<path d="M130.957 264.449C131.128 266.331 131.192 268.577 131.214 271.646M131.214 271.646C131.235 274.715 131.214 278.608 131.214 283.784C131.214 303.376 130.615 321.942 129.503 339.395L94.0831 351.886L91.5164 354.025C88.522 354.709 84.7576 355.308 80.3944 355.308C77.3144 355.308 74.4911 355.051 72.0956 354.709C70.0423 354.367 68.3312 353.083 67.3901 351.287C65.0801 347.009 60.8879 340.678 53.7014 335.972C46.087 331.01 38.6438 329.984 34.9649 329.556C32.655 329.299 30.6016 329.214 28.805 329.214C26.9228 329.214 25.3828 327.674 25.3828 325.706L25.3828 264.449C50.0891 258.692 106.231 266.848 131.214 271.646Z" stroke="#8599A7" stroke-width="1.24" stroke-miterlimit="10"/>
<path d="M131.214 271.646C131.235 274.715 131.214 278.608 131.214 283.785C131.214 303.377 130.615 321.942 129.503 339.395L94.0831 351.886L91.5164 354.025C88.522 354.709 84.7576 355.308 80.3944 355.308C77.3144 355.308 74.4911 355.052 72.0956 354.709C70.0423 354.367 68.3312 353.084 67.3901 351.287C65.0801 347.01 60.8879 340.678 53.7014 335.973C46.087 331.011 38.6438 329.984 34.9649 329.556C32.655 329.3 30.6016 329.214 28.805 329.214C26.9228 329.214 25.3828 327.674 25.3828 325.706L25.3828 264.449M131.214 271.646C131.192 268.577 131.128 266.331 130.957 264.449C129.674 247.937 128.39 232.88 111.707 201.225C110.595 199.086 109.226 196.69 107.943 194.466C101.612 183.258 98.4464 177.612 95.0242 174.532C92.372 172.222 88.1798 169.227 81.2499 167.431L31.885 167.431C28.2917 167.431 25.3828 170.425 25.3828 174.189L25.3828 264.449M131.214 271.646C106.231 266.848 50.0891 258.692 25.3828 264.449" stroke="#8599A7" stroke-width="1.23789" stroke-miterlimit="10"/>
<path d="M31.885 167.431L81.2499 167.431C88.1798 169.227 92.372 172.222 95.0242 174.532C98.3982 177.568 101.523 183.1 107.678 193.996L107.943 194.466C109.226 196.69 110.595 199.086 111.707 201.225C128.39 232.88 129.674 247.937 130.957 264.449C131.128 266.331 131.192 268.577 131.214 271.646C106.231 266.848 50.0891 258.692 25.3828 264.449L25.3828 174.189C25.3828 170.425 28.2917 167.431 31.885 167.431Z" fill="#19C92B" stroke="#8599A7" stroke-width="1.23789" stroke-miterlimit="10"/>
<path d="M128.048 274.886L127.877 284.468C127.877 301.921 127.62 319.631 126.508 337.084L91.6875 349.062L91.6875 271.892L128.048 274.886Z" fill="#F5F5F5" stroke="#8599A7" stroke-width="1.23789" stroke-miterlimit="10"/>
<path d="M128.22 212.09C127.022 214.058 125.995 216.196 124.797 218.164C120.006 208.325 115.044 197.973 108.799 187.193C102.981 177.183 97.3345 168.029 91.7734 159.559L91.7734 138.77C96.7356 147.753 101.698 157.164 106.917 166.917C114.959 182.488 121.718 197.545 128.22 212.09Z" fill="#F5F5F5" stroke="#8599A7" stroke-width="1.23789" stroke-miterlimit="10"/>
<path d="M127.705 266.76L90.8308 258.033L87.0664 174.019C88.6064 174.874 90.0608 175.901 91.3441 177.098C94.4241 179.836 97.5896 185.141 104.006 196.177C105.29 198.487 106.658 200.797 107.856 202.85C124.796 233.907 125.994 248.194 127.363 264.792C127.448 265.647 127.448 266.503 127.534 267.53" fill="#F5F5F5"/>
<path d="M127.705 266.76L90.8308 258.033L87.0664 174.019C88.6064 174.874 90.0608 175.901 91.3441 177.098C94.4241 179.836 97.5896 185.141 104.006 196.177C105.29 198.487 106.658 200.797 107.856 202.85C124.796 233.907 125.994 248.194 127.363 264.792C127.448 265.647 127.448 266.503 127.534 267.53" stroke="#8599A7" stroke-width="1.23789" stroke-miterlimit="10"/>
<path d="M125.566 345.727L91.4297 356.25L91.4297 377.895C91.4297 381.488 95.7074 383.371 98.3596 380.889C102.038 377.467 105.974 373.446 109.824 368.826C116.925 360.527 121.973 352.485 125.566 345.727Z" fill="#F5F5F5" stroke="#8599A7" stroke-width="1.23789" stroke-miterlimit="10"/>
<path d="M54.3008 44.6592L56.3541 65.1923C58.4074 65.62 60.974 66.3045 63.7973 67.5022C66.7062 68.7 69.1017 70.1544 70.8983 71.4377C70.2995 65.1922 69.7861 58.9468 69.1873 52.7869C67.4762 51.5891 65.5084 50.3058 63.3696 49.108C60.204 47.1403 57.1241 45.7714 54.3008 44.6592Z" fill="#F5F5F5" stroke="#8599A7" stroke-width="1.23789" stroke-miterlimit="10"/>
<path d="M56.5267 65.2773C56.1844 76.3139 55.8422 87.3504 55.5 98.3869" stroke="#8599A7" stroke-width="1.23789" stroke-miterlimit="10"/>
<path d="M130.358 271.806L92.2864 264.962C85.1854 264.021 77.6566 263.251 69.7 262.823C53.3591 261.967 38.4727 262.566 25.3828 264.021" stroke="#8599A7" stroke-width="1.23789" stroke-miterlimit="10"/>
<path d="M92.202 178.638L102.64 194.551C103.41 195.749 103.153 197.374 101.955 198.23C100.843 199 99.3031 199.855 97.4209 200.283C94.3409 200.967 91.6032 200.369 89.8921 199.77C88.8654 199.427 88.181 198.486 88.0954 197.374C87.7532 191.642 87.4965 185.91 87.1543 180.263C87.0688 178.98 87.9243 177.782 89.2076 177.526C90.4054 177.269 91.6032 177.697 92.202 178.638Z" fill="white" stroke="#8599A7" stroke-width="1.73214" stroke-miterlimit="10"/>
<path d="M89.8896 447.707L89.5474 435.644C89.4618 434.104 88.2641 432.821 86.6386 432.735C85.0986 432.649 83.3875 432.649 81.6764 432.649C79.1953 432.649 76.8853 432.821 74.7465 433.077C73.3776 433.248 72.2654 434.275 72.0943 435.644L70.4688 447.707C74.1476 447.964 78.1687 448.049 82.2753 447.964C84.9275 447.964 87.4941 447.878 89.8896 447.707Z" fill="#F5F5F5" stroke="#8599A7" stroke-width="1.23789" stroke-miterlimit="10"/>
<path d="M70.8984 71.3525C74.1495 85.8112 77.0584 101.125 79.625 117.295C81.165 126.877 82.3628 136.203 83.475 145.272C83.6461 146.213 83.9027 147.41 84.4161 148.779C84.8438 149.892 85.3572 151.004 86.0416 152.03C87.6671 154.597 89.2927 157.078 90.8326 159.645" stroke="#8599A7" stroke-width="1.23789" stroke-miterlimit="10"/>
<path d="M80.3105 244.857C80.3105 250.291 79.4295 254.696 78.3428 254.696C77.256 254.696 76.375 250.291 76.375 244.857C76.375 239.424 77.256 235.019 78.3428 235.019C79.4295 235.019 80.3105 239.424 80.3105 244.857Z" stroke="white" stroke-width="1.54742" stroke-miterlimit="10"/>
<path d="M78.3428 345.384C79.455 345.384 80.3105 341.02 80.3105 335.545C80.3105 330.155 79.455 325.706 78.3428 325.706C77.2305 325.706 76.375 330.069 76.375 335.545C76.375 341.02 77.2305 345.384 78.3428 345.384Z" stroke="white" stroke-width="1.54742" stroke-miterlimit="10"/>
<path d="M25.2969 325.107L25.2969 332.294" stroke="#8599A7" stroke-width="1.23789" stroke-miterlimit="10"/>
<path d="M356.737 173.162C356.651 166.574 356.566 159.901 356.395 153.313" stroke="#8599A7" stroke-width="1.23789" stroke-miterlimit="10"/>
<path d="M25.2969 174.189L25.2969 153.485" stroke="#8599A7" stroke-width="1.23789" stroke-miterlimit="10"/>
<path d="M356.82 325.706C356.82 328.187 356.82 330.583 356.82 333.064" stroke="#8599A7" stroke-width="1.23789" stroke-miterlimit="10"/>
</svg>
