<svg width="16" height="16" viewBox="0 0 16 16" fill="none" xmlns="http://www.w3.org/2000/svg">
<path d="M9.06203 7.97945L14.9719 2.06961C15.1071 1.93445 15.1816 1.75469 15.1816 1.56352C15.1816 1.37227 15.1071 1.1925 14.9719 1.05734C14.8367 0.922109 14.657 0.847656 14.4657 0.847656C14.2745 0.847656 14.0948 0.922109 13.9596 1.05734L8.04976 6.96719L2.13992 1.05734C1.86086 0.778281 1.40672 0.778281 1.12766 1.05734C0.992422 1.1925 0.917969 1.37227 0.917969 1.56352C0.917969 1.75469 0.992422 1.93445 1.12766 2.06961L7.0375 7.97945L1.12766 13.8893C0.992422 14.0245 0.917969 14.2042 0.917969 14.3954C0.917969 14.5866 0.992422 14.7664 1.12766 14.9016C1.40672 15.1806 1.86086 15.1806 2.13992 14.9016L8.04976 8.99172L13.9596 14.9016C14.0948 15.0368 14.2745 15.1112 14.4657 15.1112C14.657 15.1112 14.8367 15.0368 14.9719 14.9016C15.1071 14.7664 15.1816 14.5866 15.1816 14.3954C15.1816 14.2042 15.1071 14.0245 14.9719 13.8893L9.06203 7.97945Z" fill="#8599A7"/>
</svg>
