<svg width="14" height="14" viewBox="0 0 14 14" fill="none" xmlns="http://www.w3.org/2000/svg">
<path d="M7 14C3.13126 14 0 10.8567 0 7C0 3.13126 3.14335 0 7 0C10.8567 0 14 3.13126 14 7C14 10.8567 10.8687 14 7 14ZM7 0.979275C3.6753 0.979275 0.979275 3.6753 0.979275 7C0.979275 10.3126 3.6753 13.0207 7 13.0207C10.3247 13.0207 13.0207 10.3247 13.0207 7C13.0207 3.6753 10.3247 0.979275 7 0.979275ZM6.67358 7.82211C6.39551 7.82211 6.17789 7.60449 6.17789 7.32643V3.95337C6.17789 3.6753 6.39551 3.45769 6.67358 3.45769C6.95164 3.45769 7.16926 3.6753 7.16926 3.95337V6.83074H9.00691C9.28497 6.83074 9.50259 7.04836 9.50259 7.32643C9.50259 7.60449 9.28497 7.82211 9.00691 7.82211H6.67358Z" fill="#8599A7"/>
</svg>
