<svg width="16" height="11" viewBox="0 0 16 11" fill="none" xmlns="http://www.w3.org/2000/svg">
<path d="M15.9633 5.69241C16.0191 5.525 16.0191 5.30179 15.9075 5.13439C15.0984 3.65562 13.9545 2.45587 12.5873 1.64674C11.2201 0.8097 9.62978 0.363281 8.01151 0.363281C6.36533 0.363281 4.80287 0.8097 3.43571 1.64674C2.06855 2.45587 0.896701 3.65562 0.0875662 5.13439C0.0875662 5.16229 0.059665 5.19019 0.059665 5.24599C-0.0240386 5.4134 -0.0240386 5.60871 0.0875662 5.80401C0.896701 7.25488 2.06855 8.45463 3.43571 9.26376C4.80287 10.1008 6.36533 10.5472 7.9836 10.5472C9.62978 10.5472 11.1922 10.1008 12.5594 9.26376C13.9266 8.45463 15.0984 7.25488 15.9075 5.80401C15.9354 5.74821 15.9354 5.72031 15.9633 5.69241ZM11.8898 2.79068C12.95 3.43241 13.8708 4.32525 14.5683 5.4413C13.8708 6.58525 12.95 7.47809 11.8898 8.14771C10.7179 8.84524 9.37866 9.23586 7.9836 9.23586C6.61645 9.23586 5.27719 8.84524 4.10534 8.14771C3.04509 7.47809 2.12435 6.58525 1.42682 5.4692C2.12435 4.35315 3.04509 3.43241 4.13324 2.79068C5.27719 2.09316 6.61645 1.70254 8.01151 1.70254C9.40656 1.70254 10.7179 2.09316 11.8898 2.79068Z" fill="#8599A7"/>
<path d="M8.01152 2.5957C7.20238 2.5957 6.50485 2.93052 5.97473 3.43274C5.47251 3.96286 5.1377 4.66039 5.1377 5.46953C5.1377 6.25076 5.47251 6.94829 5.97473 7.47841C6.50485 7.98063 7.20238 8.31545 8.01152 8.31545C8.79275 8.31545 9.49028 7.98063 10.0204 7.47841C10.5226 6.94829 10.8574 6.25076 10.8574 5.46953C10.8574 4.68829 10.5226 3.96286 10.0204 3.43274C9.49028 2.93052 8.79275 2.5957 8.01152 2.5957ZM6.92337 4.38138C7.20238 4.10237 7.593 3.93496 8.01152 3.93496C8.43004 3.93496 8.79275 4.10237 9.07176 4.38138C9.35078 4.66039 9.51818 5.05101 9.51818 5.46953C9.51818 5.88804 9.35078 6.25076 9.07176 6.52977C8.79275 6.80878 8.43004 6.97619 8.01152 6.97619C7.593 6.97619 7.20238 6.80878 6.92337 6.52977C6.64436 6.25076 6.47695 5.88804 6.47695 5.46953C6.47695 5.05101 6.64436 4.66039 6.92337 4.38138Z" fill="#8599A7"/>
</svg>
