<svg width="16" height="20" viewBox="0 0 16 20" fill="none" xmlns="http://www.w3.org/2000/svg">
<path d="M11.6458 5.76669C12.644 7.70444 12.1156 8.7614 12.1156 8.7614C10.5301 3.47662 5.94999 0.716797 5.94999 0.716797C8.12262 3.24174 6.83079 5.76669 6.83079 5.76669C6.06743 4.41614 4.59944 3.53534 4.59944 3.53534C6.53719 6.94109 4.30584 9.64219 4.30584 9.64219C3.24889 8.1742 4.1884 6.35389 4.1884 6.35389C1.83962 8.58524 1.60474 11.4625 1.60474 11.4625C1.07626 10.8753 1.13498 9.40731 1.13498 9.40731C-0.86149 15.9839 2.01578 19.2722 5.30408 19.4484C5.6564 18.685 7.65287 15.9252 5.18664 13.6351C5.18664 13.6351 7.94646 13.3415 9.12086 17.7455C9.12086 17.7455 10.354 14.9857 7.82903 13.6351C7.82903 13.6351 11.1173 14.1636 11.176 17.0996C11.176 17.9804 10.8824 18.8025 10.4127 19.5071C12.1156 19.4484 13.7597 18.3327 14.5818 17.0409C17.9875 11.8735 11.6458 5.76669 11.6458 5.76669Z" fill="white"/>
</svg>
