<svg width="68" height="68" viewBox="0 0 68 68" fill="none" xmlns="http://www.w3.org/2000/svg">
<path d="M33.9992 0.699219C15.5732 0.699219 0.699219 15.5732 0.699219 33.9992C0.699219 52.4252 15.5732 67.2992 33.9992 67.2992C52.4252 67.2992 67.2992 52.4252 67.2992 33.9992C67.2992 15.5732 52.4252 0.699219 33.9992 0.699219ZM45.9132 43.1752C46.6532 43.9152 46.6532 45.1732 45.9132 45.9132C45.5432 46.2832 45.0252 46.5052 44.5072 46.5052C43.9892 46.5052 43.5452 46.2832 43.1012 45.9132L33.9992 36.7372L24.8232 45.9132C24.4532 46.2832 23.9352 46.5052 23.4172 46.5052C22.8992 46.5052 22.4552 46.2832 22.0112 45.9132C21.2712 45.1732 21.2712 43.9152 22.0112 43.1752L31.2612 33.9992L22.0852 24.8232C21.3452 24.0832 21.3452 22.8252 22.0852 22.0852C22.8252 21.3452 24.0832 21.3452 24.8232 22.0852L33.9992 31.2612L43.1752 22.0852C43.9152 21.3452 45.1732 21.3452 45.9132 22.0852C46.6532 22.8252 46.6532 24.0832 45.9132 24.8232L36.7372 33.9992L45.9132 43.1752Z" fill="#F5F5F5"/>
</svg>
