<svg width="18" height="18" viewBox="0 0 18 18" fill="none" xmlns="http://www.w3.org/2000/svg">
<path d="M5.55073 1.67194C5.93684 2.05783 6.32427 2.44262 6.70863 2.83027C7.38641 3.51398 7.38772 4.31146 6.71258 4.9899C6.22829 5.4766 5.74686 5.96616 5.25313 6.44298C5.12267 6.56883 5.11235 6.67249 5.17846 6.83107C5.50263 7.60966 5.97133 8.29908 6.49866 8.94743C7.5586 10.2505 8.75734 11.4071 10.1869 12.3045C10.4931 12.4967 10.8318 12.6366 11.1507 12.8096C11.3147 12.8986 11.4272 12.8703 11.5585 12.7345C12.0415 12.2353 12.5361 11.7471 13.0296 11.2579C13.676 10.6175 14.4873 10.6162 15.1365 11.2593C15.9298 12.0451 16.7196 12.8347 17.5061 13.6271C18.1659 14.2917 18.1606 15.1039 17.4971 15.7733C17.0488 16.2258 16.5751 16.6552 16.1512 17.1291C15.5343 17.819 14.7603 18.0423 13.875 17.9936C12.5881 17.9229 11.401 17.4959 10.2579 16.9402C7.71673 15.7052 5.54436 13.9937 3.72714 11.8305C2.38344 10.2312 1.27298 8.4906 0.542711 6.52468C0.189544 5.5739 -0.0630309 4.60006 0.0138399 3.56999C0.0612801 2.93438 0.300019 2.39365 0.768491 1.9478C1.27145 1.46878 1.75068 0.964948 2.24617 0.477807C2.89496 -0.16022 3.70649 -0.158902 4.35682 0.479565C4.7583 0.873582 5.15298 1.27419 5.55073 1.67194Z" fill="#8599A7"/>
</svg>
