<svg width="16" height="15" viewBox="0 0 16 15" fill="none" xmlns="http://www.w3.org/2000/svg">
<path d="M1.64434 14.7129H14.3676C14.6537 14.7137 14.935 14.639 15.183 14.4964C15.431 14.3538 15.6371 14.1484 15.7804 13.9008C15.9237 13.6532 15.9992 13.3721 15.9993 13.0861C15.9993 12.8 15.924 12.5189 15.7808 12.2712L9.15658 0.676766C9.03977 0.471266 8.8706 0.300381 8.6663 0.181503C8.46199 0.0626258 8.22983 0 7.99345 0C7.75707 0 7.52492 0.0626258 7.32061 0.181503C7.1163 0.300381 6.94713 0.471266 6.83033 0.676766L0.219492 12.2445C0.0750725 12.4946 -0.000964156 12.7784 -0.000976561 13.0672C-0.000988966 13.356 0.0750233 13.6398 0.219422 13.8899C0.36382 14.1401 0.571517 14.3478 0.82164 14.4923C1.07176 14.6367 1.3555 14.7128 1.64434 14.7129ZM1.37676 12.9151L7.9993 1.334L14.6185 12.9352C14.6453 12.9787 14.6595 13.0287 14.6595 13.0798C14.6595 13.1309 14.6453 13.181 14.6185 13.2245C14.5937 13.2689 14.5572 13.3058 14.513 13.3311C14.4688 13.3565 14.4186 13.3693 14.3676 13.3683H1.64434C1.59048 13.3683 1.53755 13.3542 1.49086 13.3274C1.44416 13.3005 1.40533 13.2619 1.37824 13.2153C1.35115 13.1688 1.33676 13.1159 1.3365 13.0621C1.33624 13.0082 1.35013 12.9552 1.37676 12.9084V12.9151Z" fill="#8599A7"/>
<path d="M7.99805 9.36132C8.17546 9.36132 8.34561 9.29084 8.47106 9.16539C8.59651 9.03994 8.66699 8.86979 8.66699 8.69237V6.0166C8.66699 5.83918 8.59651 5.66904 8.47106 5.54359C8.34561 5.41813 8.17546 5.34766 7.99805 5.34766C7.82063 5.34766 7.65048 5.41813 7.52503 5.54359C7.39958 5.66904 7.3291 5.83918 7.3291 6.0166V8.69237C7.3291 8.86979 7.39958 9.03994 7.52503 9.16539C7.65048 9.29084 7.82063 9.36132 7.99805 9.36132Z" fill="#8599A7"/>
<path d="M7.99219 12.0312C8.36163 12.0312 8.66113 11.7318 8.66113 11.3623C8.66113 10.9929 8.36163 10.6934 7.99219 10.6934C7.62274 10.6934 7.32324 10.9929 7.32324 11.3623C7.32324 11.7318 7.62274 12.0312 7.99219 12.0312Z" fill="#8599A7"/>
</svg>
