<svg width="52" height="39" viewBox="0 0 52 39" fill="none" xmlns="http://www.w3.org/2000/svg">
<path fill-rule="evenodd" clip-rule="evenodd" d="M48.9412 29.8229C48.9412 26.8665 46.5446 24.47 43.5882 24.47C40.6319 24.47 38.2353 26.8665 38.2353 29.8229C38.2353 32.7792 40.6319 35.1758 43.5882 35.1758C46.5446 35.1758 48.9412 32.7792 48.9412 29.8229ZM35.1765 29.8229C35.1765 25.1772 38.9425 21.4111 43.5882 21.4111C48.2339 21.4111 52 25.1772 52 29.8229C52 34.4686 48.2339 38.2347 43.5882 38.2347C38.9425 38.2347 35.1765 34.4686 35.1765 29.8229ZM13.7647 29.8229C13.7647 26.8665 11.3681 24.47 8.41176 24.47C5.45542 24.47 3.05882 26.8665 3.05882 29.8229C3.05882 32.7792 5.45542 35.1758 8.41176 35.1758C11.3681 35.1758 13.7647 32.7792 13.7647 29.8229ZM0 29.8229C0 25.1772 3.76608 21.4111 8.41176 21.4111C13.0575 21.4111 16.8235 25.1772 16.8235 29.8229C16.8235 34.4686 13.0575 38.2347 8.41176 38.2347C3.76608 38.2347 0 34.4686 0 29.8229Z" fill="#19C92B"/>
<path fill-rule="evenodd" clip-rule="evenodd" d="M32.3174 5.35294H31.3529C30.8715 5.35294 30.4182 5.57959 30.1294 5.96471L26 11.4706H16.8235L13.4102 7.43266C13.1196 7.08396 12.6892 6.88235 12.2353 6.88235H1.52941C0.684738 6.88235 0 7.56709 0 8.41177V18.3529C0 19.1976 0.684738 19.8824 1.52941 19.8824H11.8147L17.0829 23.1863L19.1961 29.5425C19.4043 30.167 19.9888 30.5882 20.6471 30.5882H31.3529C32.0112 30.5882 32.5957 30.167 32.8039 29.5425L34.9051 23.1578L39.4987 19.8824H47.0706L49.7866 21.2503C50.8035 21.7588 52 21.0193 52 19.8824V12.2353C52 11.3906 51.3153 10.7059 50.4706 10.7059H46.4941L41.6109 5.8009C41.324 5.51408 40.935 5.35294 40.5294 5.35294H35.7393L33.4856 0.845438C33.2265 0.327298 32.6969 0 32.1176 0L25.9981 0C25.5766 0 25.2353 0.345578 25.2353 0.77187V2.28695C25.2353 2.71979 25.5771 3.05882 25.9986 3.05882H31.1672L32.3174 5.35294Z" fill="#19C92B"/>
</svg>
