<svg style="transform : scaleX(-1)" width="88" height="36" viewBox="0 0 88 36" fill="none" xmlns="http://www.w3.org/2000/svg">
<path d="M87.8533 7.71345C87.8533 5.75789 87.1298 4.32056 85.976 3.08856C84.8222 1.93478 83.16 1.13301 81.2827 0.634339C79.4053 0.125895 78.5351 0.272561 77.088 0.272561C75.2791 0.272561 14.0116 0.272561 10.1884 0.272561C6.43378 0.272561 2.74756 2.14989 2.45422 4.38901C1.73067 10.021 1.36889 12.045 1.36889 12.045C1.36889 12.045 0 13.7854 0 15.1543V25.9197C0 25.9197 2.74756 28.4521 5.632 28.4521H14.3733C14.3733 28.4521 14.3733 28.7454 14.3733 28.9606C14.3733 32.7152 17.4827 35.7561 21.2373 35.7561C24.992 35.7561 28.1013 32.725 28.1013 28.9606C28.1013 28.7454 28.1013 28.4521 28.1013 28.4521H65.6187C65.6187 28.4521 65.6187 28.7454 65.6187 28.9606C65.6187 32.7152 68.728 35.7561 72.4827 35.7561C76.2373 35.7561 79.3467 32.725 79.3467 28.9606C79.3467 28.7454 79.3467 28.4521 79.3467 28.4521H88C88 28.4521 87.8533 10.9597 87.8533 7.71345ZM2.96267 23.1037C2.23911 23.1037 1.66222 21.8717 1.66222 20.3561C1.66222 18.9872 2.17067 17.6868 2.96267 17.6868C3.61778 17.6868 4.11644 18.9872 4.11644 20.3561C4.11644 21.8717 3.608 23.1037 2.96267 23.1037ZM6.20889 13.7072L3.09956 11.8299L4.03822 4.96589L6.78578 6.11967L6.20889 13.7072ZM8.81956 14.7241C8.81956 14.7241 8.81956 10.8228 8.75111 9.95256C8.75111 7.35167 11.2053 5.32767 12.5058 5.32767C13.5911 5.32767 18.1378 5.32767 18.1378 5.32767L18.6462 14.7241H8.81956V14.7241ZM21.3156 32.637C19.2231 32.637 17.4827 30.9063 17.4827 28.8041C17.4827 26.7117 19.2133 24.9712 21.3156 24.9712C23.4178 24.9712 25.1484 26.7019 25.1484 28.8041C25.1484 30.9063 23.408 32.637 21.3156 32.637ZM21.2373 13.277C21.2373 13.277 20.944 6.77478 20.944 6.70634C20.8756 6.27612 21.2373 5.33745 21.9511 5.33745C22.6844 5.33745 24.728 5.33745 29.8516 5.33745L30.2133 13.2868H21.2373V13.277ZM33.264 13.277L32.9316 5.32767H42.3378L42.6116 13.277H33.264ZM45.6427 13.277L45.3102 5.32767H54.7164L54.9902 13.277H45.6427ZM58.0311 13.277L57.6987 5.32767H67.1049L67.3787 13.277H58.0311ZM72.4924 32.637C70.4 32.637 68.6596 30.9063 68.6596 28.8041C68.6596 26.7117 70.3902 24.9712 72.4924 24.9712C74.5947 24.9712 76.3253 26.7019 76.3253 28.8041C76.3156 30.9063 74.5849 32.637 72.4924 32.637ZM70.3707 13.277L70.0773 5.32767C78.5351 5.32767 79.3271 5.32767 79.3956 5.32767C83.5902 5.32767 84.4507 9.65922 84.4507 13.277H70.3707Z" fill="#19C92B"/>
</svg>
