<svg width="77" height="26" viewBox="0 0 77 26" fill="none" xmlns="http://www.w3.org/2000/svg">
<path d="M65.7954 25.4101C67.2829 25.0963 68.6172 24.2803 69.5742 23.099C70.5311 21.9177 71.0525 20.4431 71.0507 18.9228C71.0766 18.0938 70.9376 17.2679 70.6419 16.493C70.3461 15.7181 69.8995 15.0096 69.3278 14.4087C68.7209 13.7119 67.9685 13.1569 67.1236 12.7827C66.2788 12.4085 65.3621 12.2243 64.4383 12.2431C63.3469 12.2174 62.2669 12.4688 61.2991 12.9737C60.3312 13.4787 59.5072 14.2208 58.9039 15.1306C58.1865 16.2365 57.8093 17.5285 57.819 18.8467C57.8287 20.1649 58.2249 21.4513 58.9585 22.5465C59.6921 23.6417 60.7308 24.4977 61.9461 25.0084C63.1613 25.5191 64.4997 25.6621 65.7954 25.4197V25.4101ZM63.187 23.8893C62.1528 23.6418 61.2213 23.0784 60.5218 22.2773C59.8224 21.4762 59.3897 20.4772 59.2839 19.419C59.1781 18.3608 59.4044 17.296 59.9313 16.3722C60.4583 15.4485 61.2598 14.7118 62.2245 14.2643C62.9987 13.8876 63.8559 13.7138 64.7157 13.7592C65.5754 13.8046 66.4096 14.0676 67.1398 14.5236C67.8701 14.9797 68.4725 15.6138 68.8906 16.3664C69.3087 17.1191 69.5286 17.9656 69.5299 18.8266C69.5818 19.8528 69.2943 20.8676 68.7118 21.7141C68.1362 22.6111 67.2927 23.3041 66.301 23.6946C65.3092 24.085 64.2197 24.1532 63.187 23.8893ZM13.4641 25.5064C14.8429 25.2694 16.1086 24.5944 17.0735 23.5813C17.9203 22.7449 18.5084 21.6823 18.7675 20.5206C19.185 18.8231 18.9265 17.0298 18.0465 15.5194C17.1664 14.009 15.7338 12.8997 14.0512 12.4259C12.8062 12.1278 11.5045 12.1643 10.2782 12.5318C9.19578 12.8892 8.22048 13.5127 7.44183 14.3452C6.66318 15.1776 6.10612 16.1924 5.82179 17.2962C5.58813 18.5767 5.65068 19.8936 6.00466 21.1462C6.37164 22.1169 6.95104 22.9932 7.70046 23.711C8.44989 24.4287 9.35035 24.9698 10.3359 25.2946C11.3498 25.5595 12.4044 25.6314 13.4448 25.5064H13.4641ZM11.0674 23.8893C9.78599 23.5707 8.67673 22.7703 7.97052 21.6545C7.26431 20.5388 7.01551 19.1937 7.27591 17.8991C7.53631 16.6046 8.28584 15.4603 9.36854 14.7044C10.4512 13.9485 11.7837 13.6392 13.0887 13.8408C13.7738 13.9467 14.4303 14.1903 15.0186 14.5569C15.607 14.9235 16.1149 15.4056 16.5117 15.974C16.9085 16.5424 17.1861 17.1853 17.3275 17.864C17.469 18.5426 17.4714 19.2428 17.3347 19.9225C17.198 20.6021 16.925 21.2469 16.5322 21.8181C16.1393 22.3892 15.6348 22.8748 15.049 23.2456C14.4633 23.6163 13.8085 23.8645 13.1242 23.9752C12.4398 24.0858 11.7402 24.0566 11.0674 23.8893ZM56.7286 21.7815C56.7286 21.7815 56.6324 21.3483 56.5072 20.8767C56.2077 19.5621 56.2077 18.1969 56.5072 16.8823C56.8565 15.4982 57.5631 14.2301 58.5563 13.2049C59.5495 12.1796 60.7945 11.433 62.1668 11.0399C62.9203 10.8094 63.7108 10.7245 64.496 10.7897C65.2902 10.7323 66.0879 10.8303 66.8445 11.0784C68.0279 11.4693 69.105 12.128 69.9919 13.0034C70.8755 13.8113 71.5655 14.8082 72.0104 15.9197C72.4554 17.0313 72.6439 18.2289 72.5618 19.4233C72.5436 19.8804 72.4824 20.3348 72.3789 20.7805L72.2634 21.0788H72.9083C73.2644 21.0788 74.0056 21.0788 74.5638 21.0115C75.5263 20.9441 75.5841 20.9345 76.1038 20.4725C76.6236 20.0105 76.614 19.9816 76.4888 19.818C76.3465 19.4499 76.2778 19.0575 76.2867 18.663C76.2386 17.7004 76.2867 17.7004 76.5658 17.2769C76.8058 16.9634 76.9436 16.5837 76.9605 16.1893C77.0471 15.4963 77.0375 15.4674 76.2001 14.2643L75.6033 13.4366L75.767 12.8494C75.9291 12.2017 75.9291 11.524 75.767 10.8763C74.1261 10.0092 72.3964 9.32182 70.6079 8.82616C66.0806 7.55661 61.4017 6.909 56.6998 6.90115L53.716 6.83378L51.2135 5.14939C48.5666 3.36876 46.6897 2.26188 44.1968 0.837377L42.6761 0L41.9927 0.105876C41.5463 0.134312 41.1147 0.276633 40.7389 0.519265C40.3632 0.761897 40.0559 1.09675 39.8463 1.49188C39.7789 1.70363 39.8463 1.76138 40.8088 2.08863C42.9501 2.94621 44.9823 4.05439 46.863 5.39002L49.3462 7.02628H48.4896C48.018 7.02628 44.3412 6.9589 40.3276 6.85303C32.5602 6.64128 32.8297 6.66053 32.82 6.12153C32.8536 5.9459 32.9451 5.78661 33.0799 5.66915C33.4793 5.00826 33.6358 4.22886 33.5227 3.46501C33.436 3.17626 33.3494 3.10889 32.9837 3.04151C32.3151 2.88657 31.6172 2.91315 30.9624 3.11851C30.5678 3.39764 30.3464 4.35052 30.4041 5.62102V6.71828L30.0673 6.66053C29.8844 6.66053 27.8824 6.42953 25.6301 6.20815C23.3779 5.98678 21.424 5.79427 21.2892 5.7654C21.1545 5.73652 20.9427 5.4574 20.6347 4.70664C20.4649 4.31879 20.2195 3.96868 19.9129 3.67676C19.575 3.54149 19.2121 3.48009 18.8485 3.4967C18.4849 3.5133 18.1291 3.60751 17.805 3.77301C16.8425 4.17727 16.8425 4.19652 16.7462 4.84139C16.6885 5.24565 16.6211 5.39002 16.4863 5.39002L13.9838 5.1879L11.6738 4.98577L11.2118 5.24565C10.7073 5.46746 10.1717 5.6103 9.62368 5.66915C7.41671 5.94942 5.19683 6.11648 2.97277 6.16965H1.73115L1.78889 8.09466C1.8336 9.00966 1.80786 9.92674 1.7119 10.8378C1.69241 11.1334 1.60816 11.4212 1.46512 11.6807C1.32207 11.9401 1.12373 12.165 0.88414 12.3393C0.586426 12.638 0.312859 12.9599 0.0660172 13.3018C-0.0223236 13.7596 -0.0223236 14.23 0.0660172 14.6878C0.123764 15.3231 0.16227 16.2086 0.17189 16.6128C0.100029 17.0696 0.210655 17.5363 0.479889 17.9122C0.700203 18.2144 0.962753 18.4835 1.25952 18.7111C1.57714 18.9517 1.73115 19.1346 1.73115 19.3175C1.73115 19.6832 1.85627 19.741 3.11715 19.9238L4.22403 20.0875V18.8747C4.17854 17.269 4.64729 15.6907 5.56191 14.3702C6.49199 12.9755 7.82941 11.9014 9.39199 11.2943C10.9546 10.6872 12.6663 10.5765 14.294 10.9774C15.9218 11.3783 17.3864 12.2712 18.4883 13.5346C19.5902 14.7979 20.2758 16.3702 20.4519 18.0373C20.5466 19.0697 20.4685 20.1106 20.2209 21.1173L20.0572 21.5793L20.9524 21.6371C21.9726 21.7045 56.7383 21.8488 56.7383 21.7815H56.7286Z" fill="#19C92B"/>
</svg>
