<svg width="60" height="44" viewBox="0 0 60 44" fill="none" xmlns="http://www.w3.org/2000/svg">
<path d="M1.2 0H49.2C52.512 0 55.2 2.688 55.2 6C55.2 9.312 52.512 12 49.2 12H46.344L52.344 24H58.8C59.46 24 60 24.54 60 25.2V37.2C60 37.86 59.46 38.4 58.8 38.4H52.68C52.116 41.136 49.692 43.2 46.8 43.2C43.908 43.2 41.484 41.136 40.92 38.4H19.08C18.5148 41.136 16.092 43.2 13.2 43.2C10.308 43.2 7.884 41.136 7.32 38.4H1.2C0.539997 38.4 -3.8147e-06 37.86 -3.8147e-06 37.2V1.2C-3.8147e-06 0.54 0.539997 0 1.2 0ZM46.8 40.8C48.78 40.8 50.4 39.18 50.4 37.2C50.4 35.22 48.78 33.6 46.8 33.6C44.82 33.6 43.2 35.22 43.2 37.2C43.2 39.18 44.82 40.8 46.8 40.8ZM36 24H49.656L43.656 12H36V24ZM13.2 40.8C15.18 40.8 16.8 39.18 16.8 37.2C16.8 35.22 15.18 33.6 13.2 33.6C11.22 33.6 9.6 35.22 9.6 37.2C9.6 39.18 11.22 40.8 13.2 40.8ZM9.6 22.8C9.6 23.4636 10.1364 24 10.8 24H25.2C25.8636 24 26.4 23.4636 26.4 22.8V13.2C26.4 12.5376 25.8636 12 25.2 12H10.8C10.1364 12 9.6 12.5376 9.6 13.2V22.8Z" fill="#19C92B"/>
</svg>
