<svg width="82" height="29" viewBox="0 0 82 29" fill="none" xmlns="http://www.w3.org/2000/svg">
<path fill-rule="evenodd" clip-rule="evenodd" d="M15.6887 24.4724C15.7449 24.5206 15.7997 24.5687 15.8573 24.6116C15.9696 24.6959 16.0847 24.7721 16.2065 24.8444C16.3015 24.9006 16.3978 24.9528 16.4968 25.0023C16.6039 25.0544 16.7082 25.1039 16.818 25.1468C16.9544 25.1989 17.0976 25.2391 17.2408 25.2779C17.3304 25.3006 17.416 25.3301 17.5057 25.3475C17.7492 25.393 17.9967 25.4224 18.2536 25.4224C18.5092 25.4224 18.7567 25.393 19.0003 25.3475C19.0899 25.3301 19.1755 25.3006 19.2652 25.2779C19.4084 25.2391 19.5515 25.1989 19.688 25.1468C19.7977 25.1039 19.9021 25.0544 20.0078 25.0023C20.1081 24.9528 20.2058 24.9006 20.3008 24.843C20.4212 24.7721 20.5363 24.6959 20.6474 24.6129C20.7062 24.5687 20.7624 24.5206 20.8173 24.4724C21.6964 23.7352 22.2677 22.6447 22.2677 21.4083C22.2677 19.1912 20.4694 17.3943 18.2536 17.3943C16.0365 17.3943 14.2396 19.1912 14.2396 21.4083C14.2396 22.6447 14.8096 23.7365 15.6887 24.4724ZM24.9438 8.02813V4.07427C24.5076 4.17596 24.074 4.27899 23.6459 4.38737C23.4692 4.43019 23.2926 4.47568 23.1147 4.52117C22.5888 4.65765 22.0697 4.79814 21.5572 4.94131C21.3485 5.00018 21.1384 5.05906 20.927 5.12061C20.6661 5.19554 20.4052 5.27046 20.1496 5.34673L19.1996 6.29806C18.5427 6.95503 18.3446 7.34038 18.2858 7.50095C18.5172 7.66017 19.3468 8.02277 22.1112 8.02813H24.9438ZM27.6198 8.02813H51.9142C51.8861 8.00806 51.8607 7.98932 51.8313 7.96925C51.454 7.70834 51.0499 7.43806 50.607 7.16109C50.5776 7.14236 50.5414 7.12362 50.512 7.10489C50.1052 6.85334 49.669 6.59778 49.2114 6.34356C49.0589 6.25926 48.897 6.17497 48.7391 6.09067C48.3738 5.89532 47.9925 5.70265 47.5978 5.51131C47.4131 5.423 47.2285 5.33335 47.0385 5.24638C46.5903 5.04166 46.1206 4.84364 45.6376 4.65096C45.4958 4.59476 45.3619 4.53455 45.2174 4.47969C44.5926 4.24153 43.9396 4.01941 43.2626 3.81737C43.0994 3.76787 42.9254 3.72773 42.7582 3.6809C42.2337 3.53371 41.6958 3.39857 41.1432 3.27949C40.9023 3.22864 40.6561 3.18181 40.4099 3.13498C39.8828 3.03731 39.3422 2.95569 38.7936 2.88879C38.5528 2.85935 38.3159 2.82456 38.0711 2.80182C37.2816 2.72689 36.4775 2.67604 35.6479 2.67604C35.1702 2.67604 34.6792 2.69076 34.1814 2.71217C34.0423 2.71886 33.9031 2.72555 33.7626 2.73358C33.2957 2.759 32.8207 2.79111 32.335 2.8366C32.1798 2.84998 32.0232 2.86872 31.8667 2.88477C31.5201 2.9209 31.1682 2.96104 30.8136 3.0052C30.5808 3.03463 30.3494 3.06407 30.1179 3.09618C29.7071 3.15372 29.2896 3.21794 28.8682 3.28752C28.5671 3.33836 28.2647 3.39055 27.9637 3.4454C27.8499 3.46681 27.7335 3.48956 27.6198 3.51097V8.02813ZM65.1954 24.4724C65.2516 24.5206 65.3065 24.5687 65.364 24.6116C65.4764 24.6959 65.5915 24.7721 65.7132 24.8444C65.8082 24.9006 65.9046 24.9528 66.0036 25.0023C66.1106 25.0544 66.215 25.1039 66.3247 25.1468C66.4612 25.1989 66.6044 25.2391 66.7475 25.2779C66.8372 25.3006 66.9228 25.3301 67.0125 25.3475C67.256 25.393 67.5035 25.4224 67.7604 25.4224C68.016 25.4224 68.2635 25.393 68.507 25.3475C68.5967 25.3301 68.6823 25.3006 68.772 25.2779C68.9151 25.2391 69.0583 25.1989 69.1948 25.1468C69.3045 25.1039 69.4089 25.0544 69.5146 25.0023C69.6149 24.9528 69.7126 24.9006 69.8076 24.843C69.928 24.7721 70.0431 24.6959 70.1541 24.6129C70.213 24.5687 70.2692 24.5206 70.3241 24.4724C71.2031 23.7352 71.7745 22.6447 71.7745 21.4083C71.7745 19.1912 69.9762 17.3943 67.7604 17.3943C65.5433 17.3943 63.7464 19.1912 63.7464 21.4083C63.7464 22.6447 64.3164 23.7365 65.1954 24.4724ZM2.13585 14.381C2.22683 14.258 2.31915 14.1362 2.40479 14.0011C3.34943 12.5132 3.53542 11.1738 3.53542 9.36615V8.02813C3.53542 7.28954 4.13351 6.6901 4.87344 6.6901H8.60117C9.99404 6.07462 16.268 3.39991 23.6419 1.62436C23.6566 1.62034 23.67 1.61767 23.6833 1.61499C24.3216 1.46112 24.9665 1.31527 25.6181 1.1788C25.7787 1.14401 25.9366 1.1119 26.0931 1.07978C26.5882 0.978093 27.0819 0.884432 27.581 0.794784C27.858 0.745278 28.1309 0.698447 28.4039 0.654292C28.7946 0.588729 29.1853 0.528518 29.5773 0.472321C29.9413 0.420139 30.2985 0.374646 30.6558 0.331829C30.9729 0.293027 31.29 0.254224 31.6071 0.222111C32.05 0.176619 32.4808 0.143168 32.9103 0.112394C33.1538 0.0949995 33.3987 0.0735912 33.6422 0.0602109C34.3273 0.0227464 34.9976 0 35.6479 0C36.3865 0 37.1077 0.0321125 37.8168 0.0856333C38.0523 0.104366 38.2785 0.136478 38.5113 0.159224C38.9783 0.206055 39.4425 0.254224 39.8948 0.322463C40.1597 0.361266 40.4153 0.410772 40.6762 0.456265C41.0816 0.528518 41.4844 0.602109 41.8777 0.689081C42.1413 0.746616 42.3996 0.809503 42.6578 0.873728C43.0325 0.967389 43.4004 1.06373 43.763 1.16809C44.0132 1.24035 44.2608 1.31394 44.5056 1.39154C44.8615 1.50394 45.2094 1.62168 45.5519 1.74344C45.7808 1.82372 46.0082 1.904 46.2303 1.9883C46.5795 2.1221 46.9167 2.25992 47.2499 2.40041C47.4466 2.48337 47.646 2.56231 47.8373 2.64794C48.2026 2.80984 48.5518 2.9771 48.897 3.14569C49.0375 3.21393 49.1847 3.27949 49.3225 3.34907C49.7988 3.58991 50.2551 3.83209 50.6886 4.07695C50.7274 4.09836 50.7609 4.1211 50.7997 4.14251C51.193 4.36596 51.569 4.58941 51.9263 4.81152C52.0587 4.89448 52.1778 4.97342 52.3063 5.05504C52.5565 5.21561 52.8027 5.37483 53.0328 5.53004C53.168 5.62236 53.2924 5.71067 53.4208 5.80032C53.6229 5.94081 53.8196 6.07997 54.0042 6.21377C54.126 6.30342 54.237 6.38637 54.3508 6.47201C54.5234 6.60313 54.6853 6.72623 54.8392 6.84665C54.9382 6.92426 55.0318 6.99785 55.1228 7.07144C55.2687 7.18919 55.3998 7.29757 55.5256 7.40327C55.6018 7.46616 55.6768 7.52771 55.745 7.58658C55.8694 7.69228 55.9751 7.78594 56.0755 7.87425C56.1196 7.91439 56.1665 7.95453 56.2066 7.99066C56.22 8.0027 56.2387 8.01876 56.2508 8.02946C61.4864 8.06559 81.1406 8.69446 81.1406 16.0563C81.1406 23.8596 77.5373 24.0844 77.1266 24.0844H73.8832C72.8476 26.4433 70.4953 28.0984 67.7604 28.0984C65.0242 28.0984 62.6719 26.4433 61.6363 24.0844H24.3764C23.3408 26.4433 20.9886 28.0984 18.2536 28.0984C15.5174 28.0984 13.1652 26.4433 12.1295 24.0844H10.2255C5.56252 24.0844 0.859375 22.4292 0.859375 18.7323C0.859375 16.2971 1.4374 15.3217 2.13585 14.381Z" fill="#8599A7"/>
</svg>
