<svg width="200" height="100" viewBox="0 0 100 100" fill="none" xmlns="http://www.w3.org/2000/svg">
<path d="M28.5062 52.168C25.4971 52.168 23.0898 54.5753 23.0898 57.5844C23.0898 60.5935 25.4971 63.0008 28.5062 63.0008C31.5154 63.0008 33.9226 60.5935 33.9226 57.5844C33.9226 54.5753 31.5154 52.168 28.5062 52.168ZM28.5062 60.9374C26.6148 60.9374 25.1532 59.4758 25.1532 57.5844C25.1532 55.6929 26.6148 54.2314 28.5062 54.2314C30.3977 54.2314 31.8592 55.6929 31.8592 57.5844C31.8592 59.4758 30.3977 60.9374 28.5062 60.9374Z" fill="#8599A7"/>
<path d="M28.5081 58.2721C28.888 58.2721 29.1959 57.9641 29.1959 57.5843C29.1959 57.2044 28.888 56.8965 28.5081 56.8965C28.1282 56.8965 27.8203 57.2044 27.8203 57.5843C27.8203 57.9641 28.1282 58.2721 28.5081 58.2721Z" fill="#8599A7"/>
<path d="M28.418 56.7236L28.2461 54.4883H28.7619L28.59 56.7236H28.504C28.504 56.7236 28.418 56.6376 28.418 56.7236Z" fill="#8599A7"/>
<path d="M28.59 58.5273L28.7619 60.7627H28.2461L28.418 58.5273H28.504H28.59Z" fill="#8599A7"/>
<path d="M29.4531 57.4981L31.6885 57.3262V57.842L29.4531 57.6701V57.5841V57.4981Z" fill="#8599A7"/>
<path d="M27.6455 57.6701L25.4102 57.842V57.3262L27.6455 57.4981V57.5841C27.6455 57.6701 27.6455 57.6701 27.6455 57.6701Z" fill="#8599A7"/>
<path d="M29.1055 56.8943L30.567 55.1748L30.9109 55.5187L29.1914 56.9803C29.1914 56.9803 29.1914 56.9803 29.1055 56.8943Z" fill="#8599A7"/>
<path d="M27.9891 58.2715L26.5275 59.991L26.1836 59.6471L27.9031 58.1855C27.8171 58.1855 27.9031 58.2715 27.9891 58.2715C27.9031 58.2715 27.9031 58.2715 27.9891 58.2715Z" fill="#8599A7"/>
<path d="M29.2778 58.1846L30.9973 59.6461L30.6534 59.99L29.1919 58.2705C29.1059 58.2705 29.1919 58.2705 29.2778 58.1846C29.1919 58.1846 29.1919 58.1846 29.2778 58.1846Z" fill="#8599A7"/>
<path d="M27.8211 56.9803L26.1016 55.5187L26.4455 55.1748L27.907 56.8943C27.907 56.8943 27.907 56.8943 27.8211 56.9803Z" fill="#8599A7"/>
<path d="M71.6625 52.0811C68.6534 52.0811 66.2461 54.4883 66.2461 57.4975C66.2461 60.5066 68.6534 62.9139 71.6625 62.9139C74.6716 62.9139 77.0789 60.5066 77.0789 57.4975C77.0789 54.4883 74.5856 52.0811 71.6625 52.0811ZM71.6625 60.8505C69.771 60.8505 68.3095 59.3889 68.3095 57.4975C68.3095 55.606 69.771 54.1444 71.6625 54.1444C73.5539 54.1444 75.0155 55.606 75.0155 57.4975C75.0155 59.3889 73.468 60.8505 71.6625 60.8505Z" fill="#8599A7"/>
<path d="M71.6644 58.1852C72.0442 58.1852 72.3522 57.8772 72.3522 57.4974C72.3522 57.1175 72.0442 56.8096 71.6644 56.8096C71.2845 56.8096 70.9766 57.1175 70.9766 57.4974C70.9766 57.8772 71.2845 58.1852 71.6644 58.1852Z" fill="#8599A7"/>
<path d="M71.4923 56.6367L71.3203 54.4014H71.8362L71.7502 56.6367H71.6642C71.5782 56.5507 71.5782 56.5507 71.4923 56.6367Z" fill="#8599A7"/>
<path d="M71.7501 58.4424L71.9221 60.6777H71.4062L71.5782 58.4424H71.6642H71.7501Z" fill="#8599A7"/>
<path d="M72.5273 57.4122L74.7627 57.2402V57.7561L72.5273 57.5841V57.4982V57.4122Z" fill="#8599A7"/>
<path d="M70.7197 57.5832L68.4844 57.7551V57.2393L70.7197 57.4112V57.4972V57.5832Z" fill="#8599A7"/>
<path d="M72.1797 56.8084L73.6413 55.0889L73.9852 55.4328L72.2657 56.8943C72.3516 56.8943 72.2657 56.8943 72.1797 56.8084C72.2657 56.8084 72.2657 56.8084 72.1797 56.8084Z" fill="#8599A7"/>
<path d="M71.0633 58.1836L69.6017 59.9031L69.2578 59.5592L70.9773 58.0977C70.9773 58.0977 70.9773 58.1836 71.0633 58.1836Z" fill="#8599A7"/>
<path d="M72.3516 58.0986L74.0711 59.5602L73.7272 59.9041L72.2656 58.1846C72.2656 58.1846 72.2656 58.1846 72.3516 58.0986Z" fill="#8599A7"/>
<path d="M70.8875 56.8943L69.168 55.4328L69.5119 55.0889L70.9734 56.8084C71.0594 56.8084 70.9734 56.8084 70.8875 56.8943C70.9734 56.8943 70.9734 56.8943 70.8875 56.8943Z" fill="#8599A7"/>
<path d="M84.475 57.0678C84.1311 56.9818 84.0452 56.5519 84.0452 56.5519L83.9592 54.1446C83.9592 54.1446 84.561 53.9727 84.475 53.1989C84.3891 52.4251 83.7013 51.5654 83.0994 51.3934C82.4976 51.2215 79.3166 50.4477 78.027 49.6739C76.7373 48.9002 76.6514 47.5246 76.6514 47.5246L82.5836 48.8142C82.5836 48.8142 81.38 47.0087 80.4342 46.5789C79.4885 46.149 66.9362 44.1716 66.1625 44.0856C65.3887 43.9996 59.1985 38.8411 51.8907 36.8637C44.5828 34.8863 22.6593 37.0357 22.6593 37.0357L22.9173 37.8094L17.3289 45.1173V48.8142L16.3832 49.8459L16.6411 52.941L15.5234 53.6288L16.0393 55.3483L22.4014 57.7555H22.6593C22.6593 57.5836 22.6593 57.4976 22.6593 57.3257C22.6593 54.0586 25.3245 51.3934 28.5916 51.3934C31.8586 51.3934 34.5238 54.0586 34.5238 57.3257C34.5238 57.4976 34.5238 57.6696 34.5238 57.8415H35.5555H64.8728L65.6466 57.7555C65.6466 57.5836 65.6466 57.4117 65.6466 57.2397C65.6466 53.9727 68.3118 51.3075 71.5789 51.3075C74.588 51.3075 77.1672 53.5428 77.5111 56.5519L78.1129 56.4659L77.5971 58.9592C77.5971 58.9592 77.769 58.5293 77.941 58.3574C78.1129 58.1854 79.9184 58.3574 79.9184 58.3574C79.9184 58.3574 84.733 57.1537 84.475 57.0678ZM28.3336 43.9136C27.8178 43.6557 26.4422 43.5697 26.8721 42.4521C27.302 41.3344 28.1617 38.6692 28.6775 38.5832C29.1934 38.4972 37.7049 37.8954 42.9493 38.1533L43.5511 44.6874C43.5511 44.6874 28.8495 44.1716 28.3336 43.9136ZM47.2481 44.8594L45.7005 38.0674C46.0444 37.9814 50.0852 38.0674 52.8364 38.8411C55.5876 39.6149 61.09 43.6557 61.6918 44.7734C62.2076 45.7191 62.1217 45.7191 62.1217 45.7191L47.2481 44.8594Z" fill="#8599A7"/>
</svg>
