<svg width="70" height="30.000000000000004" xmlns="http://www.w3.org/2000/svg" fill="none">

<g>
    <title>Layer 1</title>
    <path id="svg_1" fill="#19C92B" d="m12.79191,17.168c-3.0091,0 -5.4164,2.4073 -5.4164,5.4164c0,3.0091 2.4073,5.4164 5.4164,5.4164c3.0092,0 5.4164,-2.4073 5.4164,-5.4164c0,-3.0091 -2.4072,-5.4164 -5.4164,-5.4164zm0,8.7694c-1.8914,0 -3.353,-1.4616 -3.353,-3.353c0,-1.8915 1.4616,-3.353 3.353,-3.353c1.8915,0 3.353,1.4615 3.353,3.353c0,1.8914 -1.4615,3.353 -3.353,3.353z"/>
    <path id="svg_2" fill="#19C92B" d="m12.79381,23.2721c0.3799,0 0.6878,-0.308 0.6878,-0.6878c0,-0.3799 -0.3079,-0.6878 -0.6878,-0.6878c-0.3799,0 -0.6878,0.3079 -0.6878,0.6878c0,0.3798 0.3079,0.6878 0.6878,0.6878z"/>
    <path id="svg_3" fill="#19C92B" d="m12.70371,21.7236l-0.1719,-2.2353l0.5158,0l-0.1719,2.2353l-0.086,0c0,0 -0.086,-0.086 -0.086,0z"/>
    <path id="svg_4" fill="#19C92B" d="m12.87571,23.5273l0.1719,2.2354l-0.5158,0l0.1719,-2.2354l0.086,0l0.086,0z"/>
    <path id="svg_5" fill="#19C92B" d="m13.73881,22.4981l2.2354,-0.1719l0,0.5158l-2.2354,-0.1719l0,-0.086l0,-0.086z"/>
    <path id="svg_6" fill="#19C92B" d="m11.93121,22.6701l-2.2353,0.1719l0,-0.5158l2.2353,0.1719l0,0.086c0,0.086 0,0.086 0,0.086z"/>
    <path id="svg_7" fill="#19C92B" d="m13.39121,21.8943l1.4615,-1.7195l0.3439,0.3439l-1.7195,1.4616c0,0 0,0 -0.0859,-0.086z"/>
    <path id="svg_8" fill="#19C92B" d="m12.27481,23.2715l-1.4616,1.7195l-0.3439,-0.3439l1.7195,-1.4616c-0.086,0 0,0.086 0.086,0.086c-0.086,0 -0.086,0 0,0z"/>
    <path id="svg_9" fill="#19C92B" d="m13.56351,23.1846l1.7195,1.4615l-0.3439,0.3439l-1.4615,-1.7195c-0.086,0 0,0 0.0859,-0.0859c-0.0859,0 -0.0859,0 0,0z"/>
    <path id="svg_10" fill="#19C92B" d="m12.10681,21.9803l-1.7195,-1.4616l0.3439,-0.3439l1.4615,1.7195c0,0 0,0 -0.0859,0.086z"/>
    <path id="svg_11" fill="#19C92B" d="m55.94821,17.0811c-3.0091,0 -5.4164,2.4072 -5.4164,5.4164c0,3.0091 2.4073,5.4164 5.4164,5.4164c3.0091,0 5.4164,-2.4073 5.4164,-5.4164c0,-3.0092 -2.4933,-5.4164 -5.4164,-5.4164zm0,8.7694c-1.8915,0 -3.353,-1.4616 -3.353,-3.353c0,-1.8915 1.4615,-3.3531 3.353,-3.3531c1.8914,0 3.353,1.4616 3.353,3.3531c0,1.8914 -1.5475,3.353 -3.353,3.353z"/>
    <path id="svg_12" fill="#19C92B" d="m55.95011,23.1852c0.3798,0 0.6878,-0.308 0.6878,-0.6878c0,-0.3799 -0.308,-0.6878 -0.6878,-0.6878c-0.3799,0 -0.6878,0.3079 -0.6878,0.6878c0,0.3798 0.3079,0.6878 0.6878,0.6878z"/>
    <path id="svg_13" fill="#19C92B" d="m55.77801,21.6367l-0.172,-2.2353l0.5159,0l-0.086,2.2353l-0.086,0c-0.086,-0.086 -0.086,-0.086 -0.1719,0z"/>
    <path id="svg_14" fill="#19C92B" d="m56.03581,23.4424l0.172,2.2353l-0.5159,0l0.172,-2.2353l0.086,0l0.0859,0z"/>
    <path id="svg_15" fill="#19C92B" d="m56.81301,22.4122l2.2354,-0.172l0,0.5159l-2.2354,-0.172l0,-0.0859l0,-0.086z"/>
    <path id="svg_16" fill="#19C92B" d="m55.00541,22.5832l-2.2353,0.1719l0,-0.5158l2.2353,0.1719l0,0.086l0,0.086z"/>
    <path id="svg_17" fill="#19C92B" d="m56.46541,21.8084l1.4616,-1.7195l0.3439,0.3439l-1.7195,1.4615c0.0859,0 0,0 -0.086,-0.0859c0.086,0 0.086,0 0,0z"/>
    <path id="svg_18" fill="#19C92B" d="m55.34901,23.1836l-1.4616,1.7195l-0.3439,-0.3439l1.7195,-1.4615c0,0 0,0.0859 0.086,0.0859z"/>
    <path id="svg_19" fill="#19C92B" d="m56.63731,23.0986l1.7195,1.4616l-0.3439,0.3439l-1.4616,-1.7195c0,0 0,0 0.086,-0.086z"/>
    <path id="svg_20" fill="#19C92B" d="m55.17321,21.8943l-1.7195,-1.4615l0.3439,-0.3439l1.4615,1.7195c0.086,0 0,0 -0.0859,0.0859c0.0859,0 0.0859,0 0,0z"/>
    <path id="svg_21" fill="#19C92B" d="m68.76071,22.0678c-0.3439,-0.086 -0.4298,-0.5159 -0.4298,-0.5159l-0.086,-2.4073c0,0 0.6018,-0.1719 0.5158,-0.9457c-0.0859,-0.7738 -0.7737,-1.6335 -1.3756,-1.8055c-0.6018,-0.1719 -3.7828,-0.9457 -5.0724,-1.7195c-1.2897,-0.7737 -1.3756,-2.1493 -1.3756,-2.1493l5.9322,1.2896c0,0 -1.2036,-1.8055 -2.1494,-2.2353c-0.9457,-0.4299 -13.498,-2.4073 -14.2717,-2.4933c-0.7738,-0.086 -6.964,-5.2445 -14.2718,-7.2219c-7.3079,-1.9774 -29.2314,0.172 -29.2314,0.172l0.258,0.7737l-5.5884,7.3079l0,3.6969l-0.9457,1.0317l0.2579,3.0951l-1.1177,0.6878l0.5159,1.7195l6.3621,2.4072l0.2579,0c0,-0.1719 0,-0.2579 0,-0.4298c0,-3.2671 2.6652,-5.9323 5.9323,-5.9323c3.267,0 5.9322,2.6652 5.9322,5.9323c0,0.1719 0,0.3439 0,0.5158l1.0317,0l29.3173,0l0.7738,-0.086c0,-0.1719 0,-0.3438 0,-0.5158c0,-3.267 2.6652,-5.9322 5.9323,-5.9322c3.0091,0 5.5883,2.2353 5.9322,5.2444l0.6018,-0.086l-0.5158,2.4933c0,0 0.1719,-0.4299 0.3439,-0.6018c0.1719,-0.172 1.9774,0 1.9774,0c0,0 4.8146,-1.2037 4.5566,-1.2896zm-56.1414,-13.1542c-0.5158,-0.2579 -1.8914,-0.3439 -1.4615,-1.4615c0.4299,-1.1177 1.2896,-3.7829 1.8054,-3.8689c0.5159,-0.086 9.0274,-0.6878 14.2718,-0.4299l0.6018,6.5341c0,0 -14.7016,-0.5158 -15.2175,-0.7738zm18.9145,0.9458l-1.5476,-6.792c0.3439,-0.086 4.3847,0 7.1359,0.7737c2.7512,0.7738 8.2536,4.8146 8.8554,5.9323c0.5158,0.9457 0.4299,0.9457 0.4299,0.9457l-14.8736,-0.8597z"/>
</g>
</svg>