<svg width="53" height="47" viewBox="0 0 53 47" fill="none" xmlns="http://www.w3.org/2000/svg">
<path d="M45.0756 33.7676C48.6889 33.7676 51.6289 36.707 51.6289 40.3214C51.6289 43.9341 48.6883 46.8759 45.0756 46.8759C41.4577 46.8759 38.52 43.9347 38.52 40.3214C38.52 36.7065 41.4577 33.7676 45.0756 33.7676ZM45.0756 43.9635C47.0792 43.9635 48.7171 42.3296 48.7171 40.3214C48.7171 38.3138 47.0804 36.6811 45.0756 36.6811C43.0668 36.6811 41.433 38.3138 41.433 40.3214C41.4324 42.3296 43.0668 43.9635 45.0756 43.9635Z" fill="#19C92B"/>
<path d="M10.7384 33.7676C14.3534 33.7676 17.2969 36.707 17.2969 40.3214C17.2969 43.9341 14.354 46.8759 10.7384 46.8759C7.12629 46.8759 4.18684 43.9347 4.18684 40.3214C4.18684 36.7065 7.12571 33.7676 10.7384 33.7676ZM10.7384 43.9635C12.7489 43.9635 14.3816 42.3296 14.3816 40.3214C14.3816 38.3138 12.7478 36.6811 10.7384 36.6811C8.73423 36.6811 7.09922 38.3138 7.09922 40.3214C7.10037 42.3296 8.73365 43.9635 10.7384 43.9635Z" fill="#19C92B"/>
<path d="M6.70291 24.1215C8.06321 24.1215 9.00598 24.1215 9.65906 24.1215V19.976H3.97655V17.7962H9.65906V3.57986V2.10208V0H33.1758H41.8133H42.0431C42.7716 0 43.3689 0.594916 43.3689 1.32402V2.25642C43.3689 2.98552 42.7716 4.41724 42.0431 4.41724H41.8133H38.1989L42.9352 24.361C44.603 24.6933 46.3699 25.1759 47.808 25.8739C47.808 25.8739 51.4247 27.5067 52.125 32.5251H44.0144C44.0144 32.5251 37.1847 32.7002 36.4274 40.1122H18.9571C18.9571 40.1122 18.4325 32.2936 10.6128 32.2936C10.6128 32.2936 3.7842 31.769 2.09332 40.2867L0.298782 40.6812V30.9944C0.299358 30.9926 -0.128544 24.1215 6.70291 24.1215ZM33.333 35.7353L35.7945 28.3544L29.9363 22.7295L28.0727 24.6069L26.7463 23.2944L31.8017 18.1959L33.1251 19.5124L31.406 21.2459L36.5046 26.2253L37.3615 23.6538C37.3615 23.6538 38.4834 23.7051 40.0787 23.9032L35.4944 4.41724H33.1764H12.4597V17.7962H14.2681V25.1299C14.2681 27.2481 15.9014 27.5666 16.7474 27.6115H25.8681V29.7112H24.4611L24.7358 35.737H33.333V35.7353Z" fill="#19C92B"/>
<path d="M45.0831 42.0067C44.1387 42.0067 43.3732 41.2411 43.3732 40.2968C43.3732 39.3525 44.1387 38.5869 45.0831 38.5869C46.0274 38.5869 46.793 39.3525 46.793 40.2968C46.793 41.2411 46.0274 42.0067 45.0831 42.0067Z" fill="#19C92B"/>
<path d="M10.8214 42.0076C9.87703 42.0076 9.11149 41.2421 9.11149 40.2978C9.11149 39.3534 9.87703 38.5879 10.8214 38.5879C11.7657 38.5879 12.5312 39.3534 12.5312 40.2978C12.5312 41.2421 11.7657 42.0076 10.8214 42.0076Z" fill="#19C92B"/>
</svg>
