<svg width="82" height="30" viewBox="0 0 82 30" fill="none" xmlns="http://www.w3.org/2000/svg">
<path d="M64.75 26.3125C63.3003 26.3125 62.125 25.1372 62.125 23.6875C62.125 22.2378 63.3003 21.0625 64.75 21.0625C66.1997 21.0625 67.375 22.2378 67.375 23.6875C67.375 25.1372 66.1997 26.3125 64.75 26.3125Z" fill="#19C92B"/>
<path d="M64.75 17.4375C68.201 17.4375 71 20.2355 71 23.6875C71 27.1395 68.201 29.9375 64.75 29.9375C61.299 29.9375 58.5 27.1395 58.5 23.6875C58.5 20.2355 61.299 17.4375 64.75 17.4375ZM64.75 27.3125C66.749 27.3125 68.375 25.6865 68.375 23.6875C68.375 21.6885 66.749 20.0625 64.75 20.0625C62.751 20.0625 61.125 21.6885 61.125 23.6875C61.125 25.6865 62.751 27.3125 64.75 27.3125Z" fill="#19C92B"/>
<path d="M16 26.3125C14.5503 26.3125 13.375 25.1372 13.375 23.6875C13.375 22.2378 14.5503 21.0625 16 21.0625C17.4497 21.0625 18.625 22.2378 18.625 23.6875C18.625 25.1372 17.4497 26.3125 16 26.3125Z" fill="#19C92B"/>
<path d="M16 17.4375C19.451 17.4375 22.25 20.2355 22.25 23.6875C22.25 27.1395 19.451 29.9375 16 29.9375C12.549 29.9375 9.75 27.1395 9.75 23.6875C9.75 20.2355 12.549 17.4375 16 17.4375ZM16 27.3125C17.999 27.3125 19.625 25.6865 19.625 23.6875C19.625 21.6885 17.999 20.0625 16 20.0625C14.001 20.0625 12.375 21.6885 12.375 23.6875C12.375 25.6865 14.001 27.3125 16 27.3125Z" fill="#19C92B"/>
<path d="M2.25 18.1875H4.25V11.1875C4.25 10.3325 5.887 9.1175 6.073 8.9815L16.589 1.3345C17.569 0.621499 19.287 0.0625 20.5 0.0625H42.125C43.335 0.0625 45.059 0.6055 46.051 1.2995L55.274 7.7555C56.116 8.3445 57.678 9.0195 58.686 9.2275L72.893 12.1665C74.019 12.3995 75.668 13.0295 76.57 13.5705C77.536 14.1495 78.591 15.5035 78.975 16.6535L79.486 18.1865H79.75C80.715 18.1865 81.5 18.9715 81.5 19.9365C81.5 20.9015 80.715 21.6865 79.75 21.6865H78.809L78.323 22.6605C77.915 23.4765 76.644 24.3535 75.431 24.6575L72.371 25.4225C72.33 25.4325 72.29 25.4375 72.25 25.4375C72.025 25.4375 71.821 25.2865 71.765 25.0585C71.755 25.0175 71.759 24.9775 71.76 24.9375H71.75V23.6875C71.75 19.8285 68.609 16.6875 64.75 16.6875C60.891 16.6875 57.75 19.8285 57.75 23.6875C57.75 24.6525 56.965 25.4375 56 25.4375H24.75C23.785 25.4375 23 24.6525 23 23.6875C23 19.8285 19.859 16.6875 16 16.6875C12.141 16.6875 9 19.8285 9 23.6875C9 23.9635 8.776 24.1875 8.5 24.1875H7.875C7.217 24.1875 6.13 23.2745 5.646 22.7915L4.542 21.6875H2.249C1.284 21.6875 0.499001 20.9025 0.499001 19.9375C0.499001 18.9725 1.285 18.1875 2.25 18.1875ZM78.025 16.9705C77.881 16.5385 77.605 16.0565 77.277 15.6165L77.125 15.7685V18.1865H78.431L78.025 16.9705ZM72.161 20.6875H79.75C80.163 20.6875 80.5 20.3505 80.5 19.9375C80.5 19.5245 80.163 19.1875 79.75 19.1875H71.359C71.678 19.6535 71.945 20.1565 72.161 20.6875ZM32.875 13.5625H35.375C35.651 13.5625 35.875 13.3385 35.875 13.0625C35.875 12.7865 35.651 12.5625 35.375 12.5625H32.875C32.599 12.5625 32.375 12.7865 32.375 13.0625C32.375 13.3385 32.599 13.5625 32.875 13.5625ZM32.375 11.1875C32.375 11.4635 32.599 11.6875 32.875 11.6875H54.125C54.201 11.6875 54.271 11.6675 54.335 11.6385C54.353 11.6305 54.366 11.6165 54.384 11.6055C54.43 11.5765 54.471 11.5435 54.505 11.5015C54.513 11.4925 54.524 11.4895 54.53 11.4805C54.541 11.4655 54.544 11.4475 54.552 11.4315C54.569 11.4015 54.583 11.3725 54.594 11.3395C54.605 11.3055 54.611 11.2735 54.614 11.2395C54.616 11.2215 54.625 11.2055 54.625 11.1875C54.625 11.1745 54.618 11.1635 54.617 11.1495C54.615 11.1145 54.607 11.0825 54.596 11.0485C54.587 11.0185 54.578 10.9895 54.565 10.9625C54.55 10.9345 54.533 10.9105 54.513 10.8855C54.492 10.8585 54.47 10.8325 54.444 10.8105C54.434 10.8025 54.428 10.7895 54.418 10.7825L43.979 3.2425C43.451 2.8615 42.527 2.5625 41.875 2.5625H32.875C32.599 2.5625 32.375 2.7865 32.375 3.0625V11.1875ZM14.882 11.2185C14.884 11.2525 14.893 11.2845 14.902 11.3175C14.911 11.3485 14.918 11.3785 14.931 11.4065C14.945 11.4335 14.963 11.4565 14.981 11.4805C15.002 11.5085 15.023 11.5355 15.05 11.5595C15.058 11.5665 15.062 11.5765 15.071 11.5835C15.08 11.5905 15.092 11.5875 15.1 11.5935C15.18 11.6485 15.271 11.6875 15.375 11.6875H30.375C30.651 11.6875 30.875 11.4635 30.875 11.1875V3.0625C30.875 2.7865 30.651 2.5625 30.375 2.5625H22.625C21.914 2.5625 21.052 2.9875 20.619 3.5505L14.978 10.8835C14.965 10.9005 14.962 10.9195 14.952 10.9375C14.934 10.9675 14.918 10.9965 14.907 11.0295C14.896 11.0625 14.891 11.0945 14.886 11.1285C14.884 11.1495 14.874 11.1675 14.874 11.1885C14.875 11.1985 14.881 11.2075 14.882 11.2185ZM6.125 12.9375H5.25V16.3125H6.125V12.9375ZM2.25 20.6875H8.589C8.805 20.1575 9.072 19.6545 9.391 19.1875H2.25C1.837 19.1875 1.5 19.5245 1.5 19.9375C1.5 20.3505 1.837 20.6875 2.25 20.6875Z" fill="#19C92B"/>
</svg>
