<svg width="78" height="22" viewBox="0 0 78 22" fill="none" xmlns="http://www.w3.org/2000/svg">
<path d="M72.1836 16.5673C72.1836 13.919 70.0311 11.7656 67.3837 11.7656C64.7363 11.7656 62.582 13.919 62.582 16.5673C62.582 19.2138 64.7363 21.3672 67.3837 21.3672C70.0311 21.3672 72.1836 19.2138 72.1836 16.5673Z" fill="#19C92B"/>
<path d="M11.4199 21.3672C14.0664 21.3672 16.2198 19.2138 16.2198 16.5673C16.2198 13.919 14.0664 11.7656 11.4199 11.7656C8.77255 11.7656 6.61914 13.919 6.61914 16.5673C6.61826 19.2138 8.77255 21.3672 11.4199 21.3672Z" fill="#19C92B"/>
<path d="M77.1825 8.46664C76.5461 8.07727 75.516 7.94015 73.3195 7.72042C69.4882 7.3372 60.1046 6.47144 58.9655 6.36597C57.9433 5.73928 49.523 0.630859 46.5663 0.630859H18.2177C16.1416 0.630859 15.2732 1.76909 14.6413 2.60057C14.5437 2.7289 14.4505 2.85019 14.36 2.9583C13.4415 4.0605 11.6414 5.8096 10.7212 5.8096C9.48803 5.8096 3.24929 6.07943 1.55557 6.22006C-0.216382 6.36772 -0.0361983 9.23835 0.0604855 10.78C0.0763065 11.0367 0.0903695 11.2573 0.0903695 11.397V11.601C0.0903695 11.6396 0.121133 11.6695 0.158927 11.6695H1.99856C2.52416 11.6695 2.95221 12.0976 2.95221 12.6232C2.95221 13.1497 2.52416 13.5777 1.99856 13.5777H0.159806C0.12289 13.5777 0.0912484 13.6085 0.0912484 13.6454V16.4395C0.0912484 17.6156 0.641467 18.2115 1.72696 18.2115H5.00103C5.22516 18.2115 5.40973 18.0287 5.40973 17.8028C5.40973 17.7685 5.40534 17.736 5.39919 17.7114C5.35788 17.3501 5.052 14.12 6.84153 12.0694C7.86286 10.8996 9.39838 10.3063 11.4032 10.3063C13.2227 10.3063 14.6852 10.8864 15.7487 12.0299C18.1078 14.5665 17.8134 19.0904 17.8107 19.1353C17.802 19.2486 17.8424 19.3611 17.9189 19.4446C17.9953 19.5281 18.1052 19.5738 18.2186 19.5738H60.7419C60.8535 19.5738 60.9625 19.5273 61.0398 19.4455C61.1172 19.3647 61.1576 19.253 61.1497 19.1414C61.1479 19.0966 60.9115 14.7599 63.1906 12.3366C64.2031 11.2608 65.5813 10.715 67.283 10.715C69.1419 10.715 70.6221 11.2801 71.6777 12.3911C73.7019 14.5217 73.5551 18.019 73.5542 18.0533C73.5472 18.1649 73.5894 18.2756 73.6658 18.3565C73.7432 18.4383 73.8504 18.484 73.962 18.484H77.5051C77.7274 18.484 77.9111 18.3038 77.9146 18.0823V18.0603C77.9296 17.1778 77.9999 12.6768 77.9999 10.7668C77.999 9.68046 77.9428 8.9316 77.1825 8.46664ZM56.9879 7.2159L42.6822 7.17547V2.07848H46.3316C49.4079 2.07848 55.4031 6.11107 56.9879 7.2159ZM41.7285 2.07848V7.17284L32.5972 7.14735V2.07848H41.7285ZM31.6427 2.07848V7.14471L22.1026 7.11746V2.07936H31.6427V2.07848ZM21.1481 2.07848V7.11395L14.4488 7.09549C15.0342 6.19018 16.618 3.73793 16.8501 3.37492L16.9116 3.27648C17.1867 2.82822 17.649 2.07936 19.1037 2.07936H21.1481V2.07848Z" fill="#19C92B"/>
</svg>
