<svg width="60" height="40" viewBox="0 0 60 40" fill="none" xmlns="http://www.w3.org/2000/svg">
<path d="M58.7764 9.38457L53.0003 2.11897C52.4748 1.45567 51.8056 0.920251 51.0432 0.553047C50.2808 0.185842 49.445 -0.0035785 48.5987 -0.000949568H5.625C4.13364 0.000601513 2.7038 0.593731 1.64925 1.64828C0.594696 2.70284 0.00156682 4.13267 1.57342e-05 5.62404V8.08497C1.57342e-05 8.33361 0.0987876 8.57207 0.274603 8.74788C0.450417 8.9237 0.688874 9.02247 0.937514 9.02247V11.0147C0.87617 11.0137 0.814897 11.0192 0.754702 11.0311C0.694497 11.0427 0.63561 11.0604 0.578921 11.0838C0.522308 11.1073 0.468143 11.1364 0.417202 11.1705C0.313843 11.2379 0.225645 11.3261 0.158219 11.4295C0.124093 11.4804 0.0950482 11.5346 0.0715 11.5912C0.0481066 11.6479 0.0304406 11.7068 0.0187657 11.767C0.00592777 11.8279 -0.000358015 11.8899 1.57342e-05 11.9521C0.000459682 12.2007 0.0990063 12.4391 0.274234 12.6154C0.318099 12.6589 0.365967 12.6981 0.417202 12.7326C0.468143 12.7667 0.522308 12.7958 0.578921 12.8193C0.63561 12.8427 0.694497 12.8604 0.754702 12.8721C0.81485 12.8843 0.876127 12.8902 0.937514 12.8896V14.4424C0.688874 14.4424 0.450417 14.5411 0.274603 14.717C0.0987876 14.8928 1.57342e-05 15.1312 1.57342e-05 15.3799V27.1865C0.00156682 28.6779 0.594696 30.1077 1.64925 31.1622C2.7038 32.2168 4.13364 32.8099 5.625 32.8115H7.79531C8.03762 34.701 8.98984 36.4274 10.4587 37.6404C11.9275 38.8534 13.8029 39.4621 15.7041 39.3428C17.6053 39.2234 19.3899 38.3851 20.6956 36.998C22.0012 35.6109 22.7302 33.7789 22.7343 31.874H25.0781C25.0781 32.1226 25.1769 32.3611 25.3527 32.5369C25.5285 32.7127 25.7669 32.8115 26.0156 32.8115H36.1546C36.3826 34.6243 37.2644 36.2915 38.6345 37.5002C40.0047 38.7089 41.7689 39.3758 43.596 39.3758C45.4231 39.3758 47.1873 38.7089 48.5575 37.5002C49.9276 36.2915 50.8095 34.6243 51.0374 32.8115H54.3749C55.8663 32.8099 57.2961 32.2168 58.3506 31.1622C59.4052 30.1077 59.9983 28.6779 59.9999 27.1865V12.8896C59.9988 11.6168 59.5677 10.3816 58.7764 9.38457ZM33.5156 6.20997H45.703V15.3506H33.5156V6.20997ZM21.7968 6.20997H31.6406V15.3506H21.7968V6.20997ZM9.18398 11.7775L9.8707 8.55372C10.0136 7.89197 10.3782 7.29888 10.9041 6.87265C11.4301 6.44642 12.0859 6.21262 12.7629 6.20997H19.9218V15.3506H12.0762C11.6356 15.3504 11.2006 15.2519 10.803 15.0621C10.4054 14.8723 10.0553 14.5961 9.77807 14.2537C9.50088 13.9113 9.30369 13.5112 9.20091 13.0828C9.09812 12.6544 9.09234 12.2085 9.18398 11.7775ZM58.1249 24.8427H55.078C54.8294 24.8427 54.5909 24.744 54.4151 24.5682C54.2393 24.3923 54.1405 24.1539 54.1405 23.9052C54.1405 23.6566 54.2393 23.4181 54.4151 23.2423C54.5909 23.0665 54.8294 22.9677 55.078 22.9677H58.1249V24.8427ZM58.1249 12.8896V15.3506H47.578V6.20997H53.8558L57.3046 10.5518C57.8342 11.216 58.1234 12.0401 58.1249 12.8896ZM15.2344 37.499C14.1218 37.499 13.0343 37.1691 12.1093 36.551C11.1843 35.9329 10.4633 35.0544 10.0375 34.0266C9.6118 32.9987 9.50041 31.8677 9.71745 30.7766C9.93449 29.6855 10.4702 28.6832 11.2569 27.8965C12.0436 27.1098 13.0458 26.5741 14.137 26.3571C15.2281 26.14 16.3591 26.2514 17.3869 26.6772C18.4148 27.1029 19.2933 27.8239 19.9114 28.7489C20.5294 29.6739 20.8593 30.7615 20.8593 31.874C20.8578 33.3653 20.2647 34.7952 19.2101 35.8497C18.1556 36.9043 16.7257 37.4974 15.2344 37.499ZM43.5937 37.499C42.4811 37.499 41.3936 37.1691 40.4686 36.551C39.5436 35.9329 38.8226 35.0544 38.3969 34.0266C37.9711 32.9987 37.8597 31.8677 38.0768 30.7766C38.2938 29.6855 38.8295 28.6832 39.6162 27.8965C40.4029 27.1098 41.4051 26.5741 42.4963 26.3571C43.5874 26.14 44.7184 26.2514 45.7463 26.6772C46.7741 27.1029 47.6526 27.8239 48.2707 28.7489C48.8888 29.6739 49.2187 30.7615 49.2187 31.874C49.2171 33.3653 48.624 34.7952 47.5694 35.8497C46.5149 36.9043 45.085 37.4974 43.5937 37.499ZM17.1094 31.874C17.1094 32.2448 16.9994 32.6073 16.7934 32.9157C16.5873 33.224 16.2945 33.4643 15.9519 33.6063C15.6093 33.7482 15.2323 33.7853 14.8686 33.7129C14.5048 33.6406 14.1708 33.462 13.9085 33.1998C13.6463 32.9376 13.4677 32.6035 13.3954 32.2398C13.323 31.8761 13.3602 31.4991 13.5021 31.1565C13.644 30.8138 13.8843 30.521 14.1927 30.315C14.501 30.1089 14.8635 29.999 15.2344 29.999C15.7316 29.999 16.2085 30.1965 16.5602 30.5482C16.9118 30.8998 17.1094 31.3767 17.1094 31.874ZM45.4687 31.874C45.4687 32.2448 45.3587 32.6073 45.1527 32.9157C44.9466 33.224 44.6538 33.4643 44.3112 33.6063C43.9686 33.7482 43.5916 33.7853 43.2279 33.7129C42.8642 33.6406 42.5301 33.462 42.2678 33.1998C42.0056 32.9376 41.827 32.6035 41.7547 32.2398C41.6824 31.8761 41.7195 31.4991 41.8614 31.1565C42.0033 30.8138 42.2436 30.521 42.552 30.315C42.8603 30.1089 43.2228 29.999 43.5937 29.999C44.0909 29.999 44.5679 30.1965 44.9195 30.5482C45.2711 30.8998 45.4687 31.3767 45.4687 31.874Z" fill="#19C92B"/>
</svg>
