<svg width="72" height="28" viewBox="0 0 72 28" fill="none" xmlns="http://www.w3.org/2000/svg">
<path d="M13.9077 27.617C15.9557 27.617 17.7647 26.586 18.8507 25.017H53.1517C54.2377 26.585 56.0477 27.617 58.0947 27.617C60.1417 27.617 61.9517 26.586 63.0377 25.017H65.8917C66.0177 25.017 66.1417 24.988 66.2547 24.932L71.4527 22.332C71.7277 22.194 71.9017 21.913 71.9017 21.605V16.407C71.9017 16.191 71.8157 15.985 71.6637 15.833L66.4667 10.635C66.4667 10.635 66.4657 10.634 66.4647 10.634L56.0707 0.237999C55.9187 0.085999 55.7117 0 55.4957 0H6.10966C5.80166 0 5.52066 0.174001 5.38266 0.449001L0.184656 10.845C0.180656 10.852 0.179657 10.859 0.176657 10.866C0.158657 10.904 0.145656 10.945 0.132656 10.986C0.128656 11.002 0.121656 11.016 0.118656 11.032C0.105656 11.09 0.0976562 11.148 0.0976562 11.209V21.606C0.0976562 21.993 0.370657 22.327 0.749657 22.402L8.36066 23.925C9.27266 26.092 11.4147 27.617 13.9077 27.617ZM13.9077 25.992C11.4887 25.992 9.52066 24.025 9.52066 21.606C9.52066 19.187 11.4887 17.22 13.9077 17.22C16.3267 17.22 18.2937 19.187 18.2937 21.606C18.2937 24.025 16.3267 25.992 13.9077 25.992ZM58.0957 25.992C55.6767 25.992 53.7097 24.025 53.7097 21.606C53.7097 19.187 55.6767 17.22 58.0957 17.22C60.5147 17.22 62.4827 19.187 62.4827 21.606C62.4827 24.025 60.5147 25.992 58.0957 25.992ZM48.5107 1.625H55.1597L63.9317 10.397H48.5107V1.625ZM32.9147 1.625H46.8867V10.397H32.9147V1.625ZM31.2907 1.625V10.397H17.5477L19.7407 1.625H31.2907ZM6.61166 1.625H18.0657L15.8727 10.397H2.22566L6.61166 1.625Z" fill="#8599A7"/>
</svg>
