<svg width="61" height="35" viewBox="0 0 61 35" fill="none" xmlns="http://www.w3.org/2000/svg">
<path d="M45.1877 0.273438C48.5065 2.07551 55.3348 9.28248 55.8562 13.0286C56.3775 16.7748 48.7412 12.0566 43.549 19.2989C41.0489 22.7864 40.7235 27.7912 42.1529 30.904C38.2648 30.904 20.5547 30.904 20.5547 30.904C20.5547 30.904 27.9517 27.3952 28.7337 24.0524C29.5157 20.7096 28.307 13.882 33.7832 12.886C39.2595 11.8899 48.0792 11.7479 48.3638 10.3252C48.6485 8.90246 48.6485 6.27102 43.0296 3.28423C43.457 1.50616 45.1877 0.273438 45.1877 0.273438Z" fill="#19C92B"/>
<path d="M25.1443 25.6475C26.039 24.8795 26.6623 24.1528 26.7923 23.5974C26.9444 22.9481 27.0124 22.0147 27.0844 21.0266C27.3317 17.6338 27.7451 11.9563 33.428 10.9229C35.456 10.5542 37.8561 10.3049 40.1762 10.0649C40.6616 10.0142 41.1983 9.95885 41.7503 9.89885L40.1096 8.04677C38.9295 6.71538 37.1628 6.06202 35.4 6.30536L28.9944 7.19074C28.1597 7.30607 27.4297 7.8101 27.025 8.54879L25.3916 11.5349L16.9993 9.33016L14.7945 5.91602L5.05078 6.84072L23.1162 17.3672L25.1443 25.6475Z" fill="#19C92B"/>
<path d="M15.204 27.6897C14.2486 29.3091 12.4926 30.4011 10.4798 30.4011C7.45036 30.4011 4.98559 27.9363 4.98559 24.9069C4.98559 21.8774 7.45036 19.4127 10.4798 19.4127C11.8125 19.4127 13.0346 19.8907 13.9853 20.684L18.3775 19.6767C16.6814 17.1159 13.7813 15.4238 10.4792 15.4238C5.2416 15.4238 0.996094 19.67 0.996094 24.9069C0.996094 30.1444 5.2416 34.3899 10.4792 34.3899C14.8753 34.3899 18.5575 31.3932 19.6289 27.3343L15.204 27.6897Z" fill="#19C92B"/>
<path d="M52.9285 18.1934C52.7338 18.1934 52.5431 18.2087 52.3518 18.2227L54.0132 21.6482C56.1093 22.1409 57.676 24.0223 57.676 26.2664C57.676 28.8845 55.5459 31.0146 52.9278 31.0146C50.3097 31.0146 48.1796 28.8845 48.1796 26.2664C48.1796 25.5497 48.3436 24.8716 48.6296 24.2616L46.9676 20.8355C45.6595 22.2702 44.8555 24.1716 44.8555 26.2664C44.8555 30.7245 48.4696 34.3387 52.9278 34.3387C57.3867 34.3387 61.0008 30.7245 61.0008 26.2664C61.0008 21.8082 57.3867 18.1934 52.9285 18.1934Z" fill="#19C92B"/>
<path d="M49.6493 17.2246C49.0353 17.3966 48.4173 17.646 47.8086 18L52.0301 26.7017C52.2028 27.057 52.5581 27.2637 52.9281 27.2637C53.0741 27.2637 53.2228 27.231 53.3628 27.1637C53.8582 26.923 54.0649 26.327 53.8248 25.831L49.6493 17.2246Z" fill="#19C92B"/>
<path d="M21.9275 20.9082L9.74565 23.7023C9.09629 23.8003 8.64294 24.3983 8.72428 25.0504C8.80228 25.6744 9.34564 26.1351 9.97433 26.1104L22.9469 25.0684L21.9275 20.9082Z" fill="#19C92B"/>
</svg>
