<svg width="75" height="28" viewBox="0 0 75 28" fill="none" xmlns="http://www.w3.org/2000/svg">
<path fill-rule="evenodd" clip-rule="evenodd" d="M73.2575 11.3196C73.1662 9.95009 68.1447 9.03711 60.2018 7.85022C52.2588 6.66334 55.5455 2.18971 45.5027 1.18543C35.3685 0.0898418 27.3343 -1.00574 26.4213 1.64192C25.7822 3.0114 25.5083 7.75893 25.5083 7.75893H3.32273C1.86195 8.21542 2.13585 14.0585 2.40975 15.3367C-0.603108 15.3367 -0.420511 19.5364 2.31845 19.5364C4.87481 19.5364 6.60948 19.5364 9.16584 18.8061C9.98753 18.9887 10.7179 19.1713 11.357 19.3538C12.4526 16.9801 14.7351 15.428 17.474 15.428C21.2173 15.428 24.2301 18.4409 24.2301 22.1841H56.1846C56.1846 18.4409 59.1975 15.428 62.8494 15.428C66.3188 15.428 69.2403 18.0757 69.6055 21.545C71.1576 21.1798 72.9836 20.7233 73.714 20.4494C75.1747 19.8103 74.9921 14.515 74.9921 14.515C74.9921 14.515 73.3488 12.6891 73.2575 11.3196Z" fill="#8599A7"/>
<path fill-rule="evenodd" clip-rule="evenodd" d="M22.9534 22.1835C22.9534 19.0793 20.4883 16.6143 17.4755 16.6143C14.4626 16.6143 11.9062 19.1706 11.9062 22.1835C11.9062 25.1963 14.3713 27.6614 17.4755 27.6614C20.4883 27.6614 22.9534 25.1963 22.9534 22.1835Z" fill="#8599A7"/>
<path fill-rule="evenodd" clip-rule="evenodd" d="M21 22.0289C21 20.062 19.438 18.5 17.5289 18.5C15.6198 18.5 14 20.1198 14 22.0289C14 23.938 15.562 25.5 17.5289 25.5C19.438 25.5 21 23.938 21 22.0289Z" fill="white"/>
<path fill-rule="evenodd" clip-rule="evenodd" d="M68.4182 22.1835C68.4182 19.1706 65.8619 16.6143 62.849 16.6143C59.8362 16.6143 57.3711 19.0793 57.3711 22.1835C57.3711 25.1963 59.8362 27.6614 62.849 27.6614C65.9532 27.6614 68.4182 25.1963 68.4182 22.1835Z" fill="#8599A7"/>
<path fill-rule="evenodd" clip-rule="evenodd" d="M66.5 22.0289C66.5 20.062 64.938 18.5 63.0289 18.5C61.1198 18.5 59.5 20.1198 59.5 22.0289C59.5 23.938 61.062 25.5 63.0289 25.5C64.938 25.5 66.5 23.938 66.5 22.0289Z" fill="white"/>
</svg>
