<svg width="79" height="28" viewBox="0 0 79 28" fill="none" xmlns="http://www.w3.org/2000/svg">
<path d="M69.0567 22.0312C68.2919 22.0312 67.672 21.4112 67.672 20.6464C67.672 19.8817 68.2919 19.2617 69.0567 19.2617C69.8214 19.2617 70.4414 19.8817 70.4414 20.6464C70.4414 21.4112 69.8214 22.0312 69.0567 22.0312Z" fill="#8599A7"/>
<path d="M69.0564 14.001C69.6103 14.001 70.1642 14.0933 70.7181 14.1856C73.4875 14.9241 75.7031 17.5089 75.7031 20.5553C75.7031 23.694 73.5799 26.2788 70.7181 26.925C70.1642 27.1097 69.6103 27.1097 69.0564 27.1097C65.4562 27.1097 62.5021 24.1556 62.5021 20.5553C62.5021 16.9551 65.4562 14.001 69.0564 14.001ZM73.1183 20.6477C73.1183 18.4321 71.3643 16.6781 69.1488 16.6781C66.9332 16.6781 65.1792 18.4321 65.1792 20.6477C65.1792 22.8632 66.9332 24.6172 69.1488 24.6172C71.272 24.5249 73.1183 22.7709 73.1183 20.6477Z" fill="#8599A7"/>
<path d="M18.1913 7.44739H44.1318C44.8703 7.44739 45.2395 6.61656 44.8703 6.06267L42.2855 2.37008C42.0085 1.90851 42.1008 1.3546 42.5624 1.07765C43.024 0.800706 43.5779 0.893038 43.8548 1.35461L48.1013 7.53969H53.9171C59.2714 7.53969 64.5333 7.44739 68.6875 7.90897C64.8103 8.27823 62.687 9.93988 60.3792 11.7862C56.1327 15.2018 50.4092 19.7253 28.7152 19.9099C28.6229 16.3096 27.6997 13.6325 25.9457 11.7862C24.1918 9.93988 21.607 9.10905 18.3759 9.10905C13.0217 9.10905 6.92889 11.5092 3.42093 13.1709C5.91343 8.64747 14.3141 7.44739 18.1913 7.44739Z" fill="#8599A7"/>
<path d="M1.02064 17.6948L1.20527 16.5871C1.38989 15.4793 2.0361 14.5561 3.05156 14.0946C8.77508 11.3251 28.1612 3.29373 27.7919 20.6489C64.0716 20.6489 57.6096 8.55566 70.5337 8.55566C74.9648 8.55566 81.2422 10.8635 78.1958 22.5875H76.8111C76.9957 21.9413 77.088 21.2028 77.088 20.4643C77.088 16.864 74.6878 13.8176 71.1799 12.8945C70.5337 12.7098 69.8875 12.6175 69.149 12.6175C66.1026 12.6175 63.2408 14.5561 62.0407 17.3256C61.6715 18.2487 61.3945 19.2642 61.3945 20.1873C61.3022 21.5721 60.0098 22.8645 58.6251 22.8645H27.3304H26.3149C25.5764 22.8645 24.8379 22.5875 24.284 22.126C23.7301 24.4338 21.8838 26.2801 19.5759 26.834C19.022 27.0186 18.4681 27.0186 17.9142 27.0186C14.7756 27.0186 12.0984 24.7108 11.4522 21.7567C11.083 21.9413 10.7137 22.1259 10.4367 22.3106C9.69823 22.6798 8.86739 22.7722 8.03655 22.5875L3.42081 21.3874C1.85146 21.0182 0.743698 19.4488 1.02064 17.6948ZM17.9142 24.6184C20.1298 24.5261 21.8838 22.7721 21.8838 20.6489C21.8838 20.5566 21.8838 20.4643 21.8838 20.372C21.4222 20.095 20.776 19.9104 20.1298 19.8181C19.7605 19.7258 19.3913 19.7258 19.022 19.7258C19.2067 20.0027 19.3913 20.2796 19.3913 20.6489C19.3913 21.3874 18.7451 22.0336 18.0066 22.0336C17.268 22.0336 16.6218 21.3874 16.6218 20.6489C16.6218 20.372 16.7141 20.1873 16.8065 20.0027C15.8833 20.1873 14.9602 20.4643 14.037 20.8335C14.037 22.8645 15.791 24.6184 17.9142 24.6184Z" fill="#8599A7"/>
</svg>
