<svg width="86" height="30" viewBox="0 0 86 30" fill="none" xmlns="http://www.w3.org/2000/svg">
<path d="M1.25 18.2705V12.5635C1.25 11.2135 2.341 9.99448 3.682 9.84548L10.958 9.03648C11.95 8.92648 13.424 8.27748 14.176 7.61948L21.166 1.50448C22.088 0.695478 23.772 0.0634766 25 0.0634766H46.625C47.835 0.0634766 49.56 0.606476 50.551 1.30048L59.774 7.75748C60.617 8.34748 62.179 9.02148 63.186 9.22948L77.393 12.1685C78.518 12.4005 80.167 13.0295 81.07 13.5715C82.036 14.1505 83.091 15.5055 83.475 16.6545L83.986 18.1875H84.25C85.215 18.1875 86 18.9725 86 19.9375C86 20.9025 85.215 21.6875 84.25 21.6875H82.059L81.573 22.6615C81.165 23.4775 79.894 24.3545 78.681 24.6585L75.621 25.4235C75.58 25.4335 75.54 25.4385 75.5 25.4385C75.275 25.4385 75.071 25.2875 75.015 25.0595C75.005 25.0185 75.009 24.9785 75.01 24.9385H75V23.6885C75 19.8295 71.859 16.6885 68 16.6885C64.141 16.6885 61 19.8295 61 23.6885C61 24.6535 60.215 25.4385 59.25 25.4385H26.75C25.785 25.4385 25 24.6535 25 23.6885C25 19.8295 21.859 16.6885 18 16.6885C14.141 16.6885 11 19.8295 11 23.6885C11 23.9645 10.776 24.1885 10.5 24.1885H9.875C9.344 24.1885 7.988 23.7225 7.207 23.4095L2.904 21.6885H1.75C0.785004 21.6885 0 20.9035 0 19.9385C0 19.1475 0.528999 18.4865 1.25 18.2705ZM82.525 16.9715C82.381 16.5405 82.105 16.0585 81.777 15.6175L81.625 15.7695V18.1875H82.931L82.525 16.9715ZM75.411 20.6885H84.25C84.663 20.6885 85 20.3515 85 19.9385C85 19.5255 84.663 19.1885 84.25 19.1885H74.609C74.928 19.6545 75.195 20.1575 75.411 20.6885ZM36.875 11.1885C36.875 11.4645 37.099 11.6885 37.375 11.6885H58.625C58.701 11.6885 58.771 11.6685 58.835 11.6385C58.853 11.6305 58.866 11.6175 58.883 11.6065C58.93 11.5785 58.971 11.5445 59.005 11.5025C59.013 11.4935 59.024 11.4905 59.03 11.4815C59.041 11.4655 59.044 11.4485 59.052 11.4325C59.069 11.4035 59.083 11.3735 59.094 11.3405C59.105 11.3075 59.111 11.2745 59.114 11.2395C59.116 11.2215 59.125 11.2065 59.125 11.1875C59.125 11.1735 59.118 11.1635 59.117 11.1495C59.115 11.1155 59.106 11.0825 59.096 11.0485C59.087 11.0185 59.078 10.9895 59.065 10.9625C59.05 10.9345 59.033 10.9095 59.013 10.8845C58.992 10.8585 58.97 10.8325 58.944 10.8105C58.934 10.8015 58.928 10.7895 58.918 10.7825L48.479 3.24348C47.952 2.86148 47.028 2.56248 46.375 2.56248H37.375C37.099 2.56248 36.875 2.78648 36.875 3.06248V11.1885ZM16.882 11.2205C16.884 11.2535 16.893 11.2845 16.902 11.3185C16.911 11.3495 16.918 11.3805 16.932 11.4085C16.945 11.4345 16.963 11.4575 16.981 11.4815C17.002 11.5105 17.023 11.5385 17.05 11.5615C17.058 11.5685 17.062 11.5785 17.071 11.5845C17.08 11.5905 17.092 11.5885 17.1 11.5945C17.18 11.6495 17.271 11.6885 17.375 11.6885H34.875C35.151 11.6885 35.375 11.4645 35.375 11.1885V3.06348C35.375 2.78748 35.151 2.56348 34.875 2.56348H24.625C23.914 2.56348 23.052 2.98848 22.619 3.55148L16.978 10.8835C16.965 10.9005 16.962 10.9195 16.952 10.9375C16.934 10.9665 16.918 10.9965 16.907 11.0295C16.895 11.0625 16.891 11.0945 16.886 11.1285C16.884 11.1495 16.874 11.1675 16.874 11.1895C16.875 11.1995 16.881 11.2085 16.882 11.2205ZM3.125 12.9385H2.25V16.3135H3.125V12.9385ZM1.75 20.6885H2.988C2.99 20.6885 2.992 20.6885 2.994 20.6885H10.589C10.805 20.1585 11.072 19.6555 11.391 19.1885H1.75C1.337 19.1885 1 19.5255 1 19.9385C1 20.3515 1.337 20.6885 1.75 20.6885Z" fill="#19C92B"/>
<path d="M68 26.3135C66.5503 26.3135 65.375 25.1382 65.375 23.6885C65.375 22.2387 66.5503 21.0635 68 21.0635C69.4497 21.0635 70.625 22.2387 70.625 23.6885C70.625 25.1382 69.4497 26.3135 68 26.3135Z" fill="#19C92B"/>
<path d="M68 17.4385C71.451 17.4385 74.25 20.2365 74.25 23.6885C74.25 27.1405 71.451 29.9385 68 29.9385C64.549 29.9385 61.75 27.1405 61.75 23.6885C61.75 20.2365 64.549 17.4385 68 17.4385ZM68 27.3135C69.999 27.3135 71.625 25.6875 71.625 23.6885C71.625 21.6895 69.999 20.0635 68 20.0635C66.001 20.0635 64.375 21.6895 64.375 23.6885C64.375 25.6875 66.001 27.3135 68 27.3135Z" fill="#19C92B"/>
<path d="M18 26.3135C16.5503 26.3135 15.375 25.1382 15.375 23.6885C15.375 22.2387 16.5503 21.0635 18 21.0635C19.4497 21.0635 20.625 22.2387 20.625 23.6885C20.625 25.1382 19.4497 26.3135 18 26.3135Z" fill="#19C92B"/>
<path d="M18 17.4385C21.451 17.4385 24.25 20.2365 24.25 23.6885C24.25 27.1405 21.451 29.9385 18 29.9385C14.549 29.9385 11.75 27.1405 11.75 23.6885C11.75 20.2365 14.549 17.4385 18 17.4385ZM18 27.3135C19.999 27.3135 21.625 25.6875 21.625 23.6885C21.625 21.6895 19.999 20.0635 18 20.0635C16.001 20.0635 14.375 21.6895 14.375 23.6885C14.375 25.6875 16.001 27.3135 18 27.3135Z" fill="#19C92B"/>
</svg>
