<svg width="60" height="37" viewBox="0 0 60 37" fill="none" xmlns="http://www.w3.org/2000/svg">
<path d="M8.82353 7.47093C8.82353 6.00901 7.6384 4.82387 6.17647 4.82387H2.64706C1.18513 4.82387 -4.76837e-07 6.00901 -4.76837e-07 7.47093V17.1768C-4.76837e-07 18.6387 1.18513 19.8239 2.64706 19.8239H7.05882V22.4709H5.29412C4.3195 22.4709 3.52941 23.261 3.52941 24.2356C3.52941 25.2103 4.3195 26.0003 5.29412 26.0003H7.05882C7.05882 26.975 7.84891 27.7651 8.82353 27.7651H8.98356C9.81342 23.2472 13.7716 19.8239 18.5294 19.8239C23.2872 19.8239 27.2454 23.2472 28.0753 27.7651H38.1012C38.9311 23.2472 42.8893 19.8239 47.6471 19.8239C52.4048 19.8239 56.363 23.2472 57.1929 27.7651H58.2353C59.2099 27.7651 60 26.975 60 26.0003V17.1768C60 16.3276 59.3952 15.5989 58.5605 15.4424L45.245 12.9457L41.1315 5.74716C39.2463 2.44813 35.738 0.412109 31.9383 0.412109H23.8235C22.8489 0.412109 22.0588 1.20219 22.0588 2.17682V4.00539L11.7065 12.7651H8.82353V7.47093ZM17.1705 12.7651L22.0588 8.62881V12.7651H17.1705ZM29.9708 12.7651H25.5882V3.94152H31.9383C34.4714 3.94152 36.8103 5.29883 38.0671 7.49818L41.0767 12.7651H33.8107L31.622 7.65813C31.2381 6.76231 30.2007 6.34737 29.3048 6.73129C28.409 7.11522 27.9941 8.15262 28.378 9.04844L29.9708 12.7651ZM47.6471 36.5886C51.5455 36.5886 54.7059 33.4282 54.7059 29.5298C54.7059 25.6313 51.5455 22.4709 47.6471 22.4709C43.7486 22.4709 40.5882 25.6313 40.5882 29.5298C40.5882 33.4282 43.7486 36.5886 47.6471 36.5886ZM47.6471 32.1768C46.1851 32.1768 45 30.9917 45 29.5298C45 28.0678 46.1851 26.8827 47.6471 26.8827C49.109 26.8827 50.2941 28.0678 50.2941 29.5298C50.2941 30.9917 49.109 32.1768 47.6471 32.1768ZM18.5294 36.5886C22.4279 36.5886 25.5882 33.4282 25.5882 29.5298C25.5882 25.6313 22.4279 22.4709 18.5294 22.4709C14.6309 22.4709 11.4706 25.6313 11.4706 29.5298C11.4706 33.4282 14.6309 36.5886 18.5294 36.5886ZM18.5294 32.1768C17.0675 32.1768 15.8824 30.9917 15.8824 29.5298C15.8824 28.0678 17.0675 26.8827 18.5294 26.8827C19.9913 26.8827 21.1765 28.0678 21.1765 29.5298C21.1765 30.9917 19.9913 32.1768 18.5294 32.1768Z" fill="#19C92B"/>
</svg>
