<svg width="70" height="51" viewBox="0 0 70 51" fill="none" xmlns="http://www.w3.org/2000/svg">
<path d="M60.089 13.8818H50.7734V39.0774H69.7329V23.7022C69.7329 23.4874 69.6487 23.2812 69.4983 23.1278L60.6749 14.1279C60.5206 13.9705 60.3095 13.8818 60.089 13.8818ZM59.482 34.5262H56.0466C55.5981 34.5262 55.2261 34.1542 55.2261 33.7057C55.2261 33.2571 55.5981 32.8852 56.0466 32.8852H59.482C59.9305 32.8852 60.3025 33.2571 60.3025 33.7057C60.3025 34.1542 59.9305 34.5262 59.482 34.5262ZM65.1819 27.7979H55.3356V18.4549H58.5191L65.1818 25.2488V27.7979H65.1819Z" fill="#19C92B"/>
<path d="M43.7346 12.4385H9.26172V33.6845H43.7346V12.4385Z" fill="#19C92B"/>
<path d="M3.88281 7.04492V39.0781H49.1319V7.04492H3.88281ZM45.3793 34.5051C45.3793 34.9536 45.0183 35.3256 44.5588 35.3256H8.44483C7.99638 35.3256 7.62431 34.9536 7.62431 34.5051V11.618C7.62431 11.1585 7.99637 10.7975 8.44483 10.7975H44.5588C45.0183 10.7975 45.3793 11.1585 45.3793 11.618V34.5051Z" fill="#19C92B"/>
<path d="M5.52344 40.7178H14.3195C12.1314 41.6477 10.5996 43.8248 10.5996 46.3411H6.34396C5.8908 46.3411 5.52344 45.9737 5.52344 45.5206V40.7178Z" fill="#19C92B"/>
<path d="M19.1133 40.7178H56.1463C53.9582 41.6477 52.4266 43.8248 52.4266 46.3411H22.8331C22.8331 43.8248 21.3013 41.6477 19.1133 40.7178Z" fill="#19C92B"/>
<path d="M69.7296 40.7178V45.5206C69.7296 45.9737 69.3623 46.3411 68.9091 46.3411H64.6535C64.6535 43.8249 63.1217 41.6477 60.9336 40.7178H69.7296Z" fill="#19C92B"/>
<path d="M51.9242 0H1.08615C0.632985 0 0.265625 0.36736 0.265625 0.820523V4.58479C0.265625 5.03795 0.632985 5.40531 1.08615 5.40531H51.9242C52.3774 5.40531 52.7447 5.04327 52.7447 4.59012C52.7447 3.56977 52.7447 1.83721 52.7447 0.812882C52.7447 0.359708 52.3774 0 51.9242 0Z" fill="#19C92B"/>
<path d="M21.1915 46.3418C21.1915 48.8143 19.1894 50.8273 16.7169 50.8273C14.2553 50.8273 12.2422 48.8143 12.2422 46.3418C12.2422 43.8802 14.2553 41.8672 16.7169 41.8672C19.1894 41.8672 21.1915 43.8802 21.1915 46.3418Z" fill="#19C92B"/>
<path d="M63.0156 46.3418C63.0156 48.8143 61.0025 50.8273 58.541 50.8273C56.0794 50.8273 54.0664 48.8143 54.0664 46.3418C54.0664 43.8802 56.0794 41.8672 58.541 41.8672C61.0025 41.8672 63.0156 43.8802 63.0156 46.3418Z" fill="#19C92B"/>
</svg>
