<svg width="81" height="28" viewBox="0 0 81 28" fill="none" xmlns="http://www.w3.org/2000/svg">
<path d="M66.0703 24.1397C64.778 24.1397 63.7304 23.0921 63.7304 21.7998C63.7304 20.5076 64.778 19.46 66.0703 19.46C67.3626 19.46 68.4102 20.5076 68.4102 21.7998C68.4102 23.0921 67.3626 24.1397 66.0703 24.1397Z" fill="#8599A7"/>
<path d="M66.0715 16.3398C69.0817 16.3398 71.5312 18.7894 71.5312 21.7996C71.5312 24.8098 69.0817 27.2593 66.0715 27.2593C63.0613 27.2593 60.6118 24.8098 60.6118 21.7996C60.6118 18.7894 63.0613 16.3398 66.0715 16.3398ZM66.0715 25.0309C67.8534 25.0309 69.3028 23.5815 69.3028 21.7996C69.3028 20.0177 67.8534 18.5683 66.0715 18.5683C64.2896 18.5683 62.8402 20.0177 62.8402 21.7996C62.8402 23.5815 64.2896 25.0309 66.0715 25.0309Z" fill="#8599A7"/>
<path d="M22.6171 24.1388C21.3249 24.1388 20.2773 23.0912 20.2773 21.7989C20.2773 20.5066 21.3249 19.459 22.6171 19.459C23.9094 19.459 24.957 20.5066 24.957 21.7989C24.957 23.0912 23.9094 24.1388 22.6171 24.1388Z" fill="#8599A7"/>
<path d="M22.6145 16.3398C25.6247 16.3398 28.0742 18.7894 28.0742 21.7996C28.0742 24.8098 25.6247 27.2593 22.6145 27.2593C19.6043 27.2593 17.1547 24.8098 17.1547 21.7996C17.1547 18.7894 19.6043 16.3398 22.6145 16.3398ZM22.6145 25.0309C24.3964 25.0309 25.8458 23.5815 25.8458 21.7996C25.8458 20.0177 24.3964 18.5683 22.6145 18.5683C20.8326 18.5683 19.3832 20.0177 19.3832 21.7996C19.3832 23.5815 20.8326 25.0309 22.6145 25.0309Z" fill="#8599A7"/>
<path d="M2.55804 16.8966H2.66946V13.5539C2.66946 12.5163 3.03136 10.9083 3.47527 9.96964L6.96237 2.6068C7.45798 1.56031 8.75406 0.740234 9.91197 0.740234H45.9017C46.9829 0.740234 48.5125 1.24387 49.3825 1.88656L59.3286 9.23871C60.0426 9.76641 61.394 10.2112 62.2809 10.2112H75.4288C76.6081 10.2112 77.8249 11.0874 78.1984 12.207L79.7743 16.9349C80.4741 17.0883 81 17.7113 81 18.4565C81 19.3167 80.3003 20.0165 79.4401 20.0165H78.6013L78.1681 20.8847C77.7866 21.6468 76.5841 22.2449 75.4297 22.2449H72.7556C72.5095 22.2449 72.3099 22.0452 72.3099 21.7992C72.3099 18.3594 69.51 15.5595 66.0702 15.5595C62.6303 15.5595 59.8305 18.3594 59.8305 21.7992C59.8305 22.6594 59.1307 23.3592 58.2705 23.3592H30.4147C29.5546 23.3592 28.8548 22.6594 28.8548 21.7992C28.8548 18.3594 26.055 15.5595 22.6151 15.5595C19.1753 15.5595 16.3754 18.3594 16.3754 21.7992C16.3754 22.6594 15.6757 23.3592 14.8155 23.3592H8.79863C7.70579 23.3592 6.20113 22.802 5.37214 22.0916L2.95025 20.0165H2.55892C1.69874 20.0165 0.999001 19.3167 0.999001 18.4565C0.999001 17.5963 1.69785 16.8966 2.55804 16.8966ZM77.8195 13.8882H77.003L76.6688 15.2253H78.2652L77.8195 13.8882ZM74.9831 19.1251H79.4401C79.8082 19.1251 80.1086 18.8247 80.1086 18.4565C80.1086 18.0884 79.8082 17.788 79.4401 17.788H74.9831C74.615 17.788 74.3146 18.0884 74.3146 18.4565C74.3146 18.8247 74.615 19.1251 74.9831 19.1251ZM4.34081 13.3311H3.56976C3.56619 13.4068 3.56084 13.4844 3.56084 13.5539V15.2253H4.34081V13.3311ZM39.4391 10.6569C39.4391 10.9029 39.6388 11.1026 39.8848 11.1026H56.0412C56.1072 11.1026 56.1687 11.0857 56.2248 11.0607C56.2418 11.0536 56.2533 11.0411 56.2685 11.0313C56.3086 11.0072 56.3452 10.9796 56.3755 10.9439C56.3817 10.9368 56.3906 10.9341 56.3951 10.927C56.4067 10.9118 56.4093 10.8949 56.4182 10.8789C56.4343 10.8521 56.4477 10.8263 56.4575 10.7969C56.4682 10.7674 56.4726 10.7389 56.4762 10.7077C56.478 10.6899 56.4869 10.6747 56.4869 10.6551C56.4869 10.6444 56.4815 10.6364 56.4806 10.6266C56.4789 10.5963 56.4708 10.5669 56.4628 10.5366C56.4548 10.5098 56.4486 10.4831 56.437 10.459C56.4254 10.4349 56.4076 10.4136 56.3906 10.3913C56.3719 10.3672 56.3541 10.3431 56.3309 10.3226C56.3229 10.3164 56.3193 10.3066 56.3122 10.3012L47.549 3.5998C47.0845 3.24503 46.2636 2.96692 45.6788 2.96692H39.8848C39.6388 2.96692 39.4391 3.16659 39.4391 3.41261V10.6569ZM27.2788 10.935C27.3635 11.0411 27.4928 11.1026 27.6283 11.1026H37.6564C37.9024 11.1026 38.1021 10.9029 38.1021 10.6569V3.41439C38.1021 3.16837 37.9024 2.9687 37.6564 2.9687H29.2996C29.0928 2.9687 28.9119 3.11221 28.8655 3.31456L27.1942 10.5571C27.1639 10.689 27.1951 10.828 27.2788 10.935ZM17.0252 11.1026C17.0297 11.1035 17.0359 11.1026 17.0431 11.1026H25.3998C25.6066 11.1026 25.7876 10.9591 25.8339 10.7567L27.5053 3.51423C27.5356 3.3823 27.5044 3.24235 27.4197 3.13628C27.335 3.0302 27.2066 2.9687 27.0703 2.9687H19.2706C19.0745 2.9687 18.9025 3.09706 18.8446 3.28336L16.65 10.4144C16.6045 10.484 16.5786 10.5678 16.5786 10.6569C16.5795 10.9029 16.7792 11.1026 17.0252 11.1026ZM14.8146 11.1026C15.0107 11.1026 15.1827 10.9742 15.2407 10.7879L17.4691 3.54543C17.4763 3.52403 17.4727 3.50264 17.4763 3.48125C17.4798 3.45896 17.4896 3.43757 17.4896 3.41439C17.4896 3.40637 17.4852 3.40013 17.4852 3.393C17.4834 3.36091 17.4745 3.33149 17.4665 3.3003C17.4593 3.27445 17.454 3.2477 17.4433 3.22453C17.4308 3.19868 17.413 3.17639 17.3951 3.15411C17.3782 3.13093 17.364 3.10775 17.3426 3.08814C17.3229 3.07032 17.2989 3.05873 17.2766 3.04447C17.2499 3.02664 17.224 3.01059 17.1937 2.99901C17.1866 2.99633 17.1812 2.99098 17.175 2.98831C17.1527 2.98118 17.1295 2.98474 17.1072 2.98118C17.0858 2.97761 17.0662 2.96781 17.0439 2.96781H10.6919C10.0323 2.96781 9.29869 3.43668 9.02236 4.03658L6.05315 10.4688C6.05227 10.4715 6.05227 10.4742 6.05138 10.4768C6.03979 10.5027 6.03712 10.533 6.03177 10.5615C6.02553 10.5909 6.01394 10.6195 6.01394 10.6498C6.01394 10.6524 6.01215 10.6542 6.01215 10.6569C6.01215 10.681 6.02196 10.7015 6.02641 10.7238C6.03088 10.7558 6.03355 10.7888 6.04514 10.8182C6.05583 10.8468 6.07455 10.8708 6.09148 10.8958C6.10664 10.9181 6.11734 10.943 6.13695 10.9626C6.16013 10.9867 6.19044 11.0037 6.21807 11.0215C6.23679 11.034 6.25015 11.0509 6.27155 11.0607C6.27422 11.0616 6.27601 11.0616 6.27868 11.0625C6.33484 11.0866 6.39456 11.1017 6.45874 11.1017H14.8146V11.1026ZM2.55804 19.1251H8.1292C8.49734 19.1251 8.79774 18.8247 8.79774 18.4565C8.79774 18.0884 8.49734 17.788 8.1292 17.788H2.55804C2.1899 17.788 1.8895 18.0884 1.8895 18.4565C1.8895 18.8247 2.1899 19.1251 2.55804 19.1251Z" fill="#8599A7"/>
</svg>
