<svg width="72" height="38" viewBox="0 0 72 38" fill="none" xmlns="http://www.w3.org/2000/svg">
<path d="M68.5661 15.5277C70.5932 16.196 71.9999 17.0654 72 18.9629V27.6046C72 29.5006 70.4634 31.0395 68.5666 31.0395H66.3163C66.2462 29.8629 65.8874 28.6877 65.2128 27.6219C63.0855 24.2648 58.6399 23.2686 55.2824 25.396C53.2541 26.6796 52.0938 28.8131 51.9574 31.0394H20.4938C20.2671 27.2684 17.1466 24.2775 13.3193 24.2775C9.49182 24.2775 6.37107 27.2684 6.14475 31.0394H4.32181C2.42504 31.0394 0.886719 29.5005 0.886719 27.6045V4.26976C0.886719 2.37435 2.42504 0.836061 4.32181 0.835938H47.5007C52.4261 0.835938 53.5448 1.68083 55.1876 4.26964L60.0949 12.6019L68.5661 15.5277ZM55.6761 13.5379C55.9095 13.5379 56.0976 13.3493 56.0976 13.1153L51.9816 4.80366C51.8106 4.46799 51.4648 4.38172 51.2328 4.38172H40.0225C39.7872 4.38172 39.5988 4.57018 39.5988 4.80366V13.1159C39.5988 13.3494 39.7873 13.5379 40.0225 13.5379H55.6761ZM13.2081 25.9832C16.2636 25.9832 18.7485 28.4697 18.7485 31.5248C18.7485 34.5803 16.2635 37.0652 13.2081 37.0652C10.1525 37.0652 7.66661 34.5803 7.66661 31.5248C7.66661 28.4697 10.1526 25.9832 13.2081 25.9832ZM59.1884 25.9832C62.2436 25.9832 64.7295 28.4697 64.7295 31.5248C64.7295 34.5803 62.2436 37.0652 59.1884 37.0652C56.1329 37.0652 53.6466 34.5803 53.6466 31.5248C53.6466 28.4697 56.1329 25.9832 59.1884 25.9832ZM59.192 29.6813C58.1735 29.6813 57.3447 30.5101 57.3447 31.5285C57.3447 32.547 58.1735 33.3753 59.192 33.3753C60.2104 33.3753 61.039 32.547 61.039 31.5285C61.039 30.5101 60.2104 29.6813 59.192 29.6813ZM13.212 29.6813C12.1935 29.6813 11.3647 30.5101 11.3647 31.5285C11.3647 32.547 12.1935 33.3753 13.212 33.3753C14.2304 33.3753 15.059 32.547 15.059 31.5285C15.059 30.5101 14.2304 29.6813 13.212 29.6813Z" fill="#8599A7"/>
</svg>
