<svg width="20" height="18" viewBox="0 0 20 18" fill="none" xmlns="http://www.w3.org/2000/svg">
<path d="M17.5 0.666016H2.5C1.83696 0.666016 1.20107 0.929408 0.732233 1.39825C0.263392 1.86709 0 2.50297 0 3.16602V14.8327C0 15.4957 0.263392 16.1316 0.732233 16.6004C1.20107 17.0693 1.83696 17.3327 2.5 17.3327H17.5C18.163 17.3327 18.7989 17.0693 19.2678 16.6004C19.7366 16.1316 20 15.4957 20 14.8327V3.16602C20 2.50297 19.7366 1.86709 19.2678 1.39825C18.7989 0.929408 18.163 0.666016 17.5 0.666016ZM17.125 2.33268L10.1 8.99935C10.0399 9.01525 9.97674 9.01525 9.91667 8.99935L2.875 2.33268H17.125ZM17.5 15.666H2.5C2.27899 15.666 2.06702 15.5782 1.91074 15.4219C1.75446 15.2657 1.66667 15.0537 1.66667 14.8327V3.48268L8.775 10.216C9.11625 10.5082 9.55072 10.6689 10 10.6689C10.4493 10.6689 10.8837 10.5082 11.225 10.216L18.3333 3.48268V14.8327C18.3333 15.0537 18.2455 15.2657 18.0893 15.4219C17.933 15.5782 17.721 15.666 17.5 15.666Z" fill="#8599A7"/>
</svg>
