<svg width="17" height="18" viewBox="0 0 17 18" fill="none" xmlns="http://www.w3.org/2000/svg">
<path d="M2.2881 1.20179C2.2881 0.771054 1.93892 0.421875 1.50818 0.421875C1.07745 0.421875 0.728271 0.771054 0.728271 1.20179V16.8001C0.728271 17.2308 1.07745 17.58 1.50818 17.58C1.93892 17.58 2.2881 17.2308 2.2881 16.8001V1.20179Z" fill="white"/>
<path fill-rule="evenodd" clip-rule="evenodd" d="M1.51011 1.9817C1.07831 1.9817 0.728271 1.63553 0.728271 1.20179C0.728271 0.771054 1.07807 0.421875 1.51011 0.421875L9.30539 0.421875C9.73719 0.421875 10.0872 0.768051 10.0872 1.20179C10.0872 1.63252 9.73743 1.9817 9.30539 1.9817H1.51011Z" fill="white"/>
<path d="M1.50757 16.0203C1.07684 16.0203 0.727661 16.3694 0.727661 16.8002C0.727661 17.2309 1.07684 17.5801 1.50757 17.5801H9.30671C9.73744 17.5801 10.0866 17.2309 10.0866 16.8002C10.0866 16.3694 9.73744 16.0203 9.30671 16.0203H1.50757Z" fill="white"/>
<path fill-rule="evenodd" clip-rule="evenodd" d="M5.01457 9.78053C4.58528 9.78053 4.23727 9.43435 4.23727 9.00062C4.23727 8.56988 4.58812 8.2207 5.01457 8.2207H14.7687C15.198 8.2207 15.546 8.56688 15.546 9.00062C15.546 9.43135 15.1952 9.78053 14.7687 9.78053H5.01457Z" fill="white"/>
<path fill-rule="evenodd" clip-rule="evenodd" d="M16.448 9.55148L12.5877 13.4119C12.2831 13.7164 11.7893 13.7164 11.4847 13.4119C11.1801 13.1073 11.1801 12.6135 11.4847 12.3089L14.7936 9L11.4847 5.69111C11.1801 5.38653 11.1801 4.89272 11.4847 4.58814C11.7893 4.28357 12.2831 4.28357 12.5877 4.58814L16.448 8.44852C16.7526 8.75309 16.7526 9.24691 16.448 9.55148Z" fill="white"/>
</svg>
