<svg width="611.998" height="611.998" xmlns="http://www.w3.org/2000/svg" xml:space="preserve" version="1.1">

 <g>
  <title>Layer 1</title>
     <g transform="rotate(-20 323.498 328.999)" stroke="null" stroke-width="8" id="svg_1">
   <g stroke="null" id="svg_2">
    <g stroke="null" id="svg_3">
     <path stroke="white" id="svg_4" d="m575.49528,220.83196c-10.60816,-9.98745 -23.72409,-16.24666 -37.70561,-18.16631l0,-120.41611c0,-5.72048 -3.44078,-10.91361 -8.79699,-13.27491c-5.35621,-2.36393 -11.63464,-1.45614 -16.05785,2.31408c-91.85019,78.33589 -259.73181,97.17648 -282.24876,99.38124c-0.32718,-0.02186 -0.65076,-0.04898 -0.98513,-0.04898l-81.35978,-0.01312l-0.0027,0c-0.2319,0 -0.4629,0.00525 -0.69301,0.01487c-0.13573,-0.00087 -0.27325,-0.00087 -0.40987,-0.00087l-0.43953,0.00262c-55.15218,0.90692 -99.26386,48.63678 -98.32816,106.39432c0.44313,27.46461 10.93084,53.25619 29.53063,72.62502c18.90629,19.68455 43.98674,30.52469 70.62399,30.52469c0.49077,0 21.02486,-0.01137 21.02486,-0.01137l49.7681,166.47994c0.12764,0.42766 0.27325,0.84395 0.43953,1.25237c5.23397,15.1692 16.09291,27.62903 30.66047,35.1511c9.35517,4.83018 19.58402,7.28507 29.90634,7.28419c6.09326,0 12.22248,-0.85619 18.21867,-2.58257c16.15493,-4.6509 29.56119,-15.10011 37.75056,-29.42275c8.02398,-14.0349 10.16773,-30.25358 6.0654,-45.76911c-0.08,-0.36906 -0.17348,-0.73725 -0.28314,-1.10282l-35.75422,-119.60889c62.58832,12.69683 149.20903,38.07824 206.51395,86.95203c2.78642,2.37617 6.31258,3.61367 9.8774,3.61367c2.09431,0 4.2003,-0.42591 6.18045,-1.29959c5.35711,-2.36218 8.79699,-7.5553 8.79699,-13.27579l0,-120.85426c34.72325,-4.69288 61.35151,-35.97493 60.74569,-73.29669c-0.32269,-20.09909 -8.71969,-39.36122 -23.03828,-52.84603zm-285.35337,338.95672c-17.59218,5.06719 -36.46072,-4.64827 -42.04703,-21.66017c-0.04584,-0.14343 -0.09528,-0.28423 -0.14561,-0.42416l-47.09764,-157.54721l28.22191,0c3.07944,0.25887 19.79794,1.76573 44.35796,5.69687l39.75228,132.98438c0.04135,0.16966 0.08449,0.33758 0.13123,0.50549c4.8187,17.23578 -5.57553,35.37848 -23.1731,40.4448zm-131.10991,-360.02832l55.68519,0.00962l0,151.23727l-55.68519,0l0,-151.24689zm-29.96027,148.20955c-28.72167,-9.10502 -50.10247,-37.66196 -50.64807,-71.40852c-0.56537,-34.9036 20.99071,-64.7094 50.64807,-73.88089l0,145.2894zm378.75496,89.98412c-42.50005,-28.95748 -98.38119,-51.89976 -166.62594,-68.36593c-42.16838,-10.17373 -77.87586,-15.07213 -96.52238,-17.17369l0,-153.91254c18.72742,-2.20214 54.37468,-7.26233 96.42531,-17.55587c68.31126,-16.72679 124.22117,-39.81687 166.72391,-68.81108l0,325.81911l-0.0009,0zm29.96207,-120.62425l0,-84.97028c6.17596,1.60306 11.97081,4.80744 16.86861,9.41811c8.64598,8.14388 13.72176,19.93904 13.9213,32.35864c0.33976,20.92817 -12.92628,38.67994 -30.78991,43.19353z" fill="white"/>
    </g>
   </g>
  </g>
     <g id="svg_5"/>
     <g id="svg_6"/>
     <g id="svg_7"/>
     <g id="svg_8"/>
     <g id="svg_9"/>
     <g id="svg_10"/>
     <g id="svg_11"/>
     <g id="svg_12"/>
     <g id="svg_13"/>
     <g id="svg_14"/>
     <g id="svg_15"/>
     <g id="svg_16"/>
     <g id="svg_17"/>
     <g id="svg_18"/>
     <g id="svg_19"/>
 </g>
</svg>