<svg width="20" height="20" viewBox="0 0 20 20" fill="none" xmlns="http://www.w3.org/2000/svg">
<path d="M20 11.6667V8.33333L17.4622 7.80889C17.3062 7.27568 17.0931 6.76085 16.8267 6.27333L18.2489 4.10889L15.8933 1.75111L13.7289 3.17333C13.2414 2.90691 12.7265 2.69382 12.1933 2.53778L11.6667 0H8.33333L7.80889 2.53778C7.27568 2.69382 6.76085 2.90691 6.27333 3.17333L4.10889 1.75111L1.75111 4.10667L3.17333 6.27111C2.90691 6.75863 2.69382 7.27346 2.53778 7.80667L0 8.33333V11.6667L2.53778 12.1911C2.69382 12.7243 2.90691 13.2391 3.17333 13.7267L1.75111 15.8911L4.10667 18.2489L6.27111 16.8267C6.75863 17.0931 7.27346 17.3062 7.80667 17.4622L8.33333 20H11.6667L12.1911 17.4622C12.7243 17.3062 13.2391 17.0931 13.7267 16.8267L15.8911 18.2489L18.2489 15.8933L16.8267 13.7289C17.0931 13.2414 17.3062 12.7265 17.4622 12.1933L20 11.6667ZM10 6.55556C10.6812 6.55556 11.3472 6.75757 11.9136 7.13605C12.4801 7.51453 12.9215 8.05248 13.1823 8.68187C13.443 9.31126 13.5112 10.0038 13.3783 10.672C13.2454 11.3401 12.9173 11.9539 12.4356 12.4356C11.9539 12.9173 11.3401 13.2454 10.672 13.3783C10.0038 13.5112 9.31126 13.443 8.68187 13.1823C8.05248 12.9215 7.51453 12.4801 7.13605 11.9136C6.75757 11.3472 6.55556 10.6812 6.55556 10C6.55556 9.08648 6.91845 8.21037 7.56441 7.56441C8.21037 6.91845 9.08648 6.55556 10 6.55556Z" fill="white"/>
</svg>
